<mxfile host="Electron" modified="2023-08-24T22:20:09.647Z" agent="Mozilla/5.0 (Windows NT 10.0; Win64; x64) AppleWebKit/537.36 (KHTML, like Gecko) draw.io/21.6.8 Chrome/114.0.5735.289 Electron/25.5.0 Safari/537.36" etag="_Mw-Ymr5tlpO5OHGaF9o" version="21.6.8" type="device">
  <diagram name="Page-1" id="F3vTF0Awxdn76NnoAADl">
    <mxGraphModel dx="934" dy="601" grid="1" gridSize="10" guides="1" tooltips="1" connect="1" arrows="1" fold="1" page="1" pageScale="1" pageWidth="827" pageHeight="1169" math="0" shadow="0">
      <root>
        <mxCell id="0" />
        <mxCell id="1" parent="0" />
        <mxCell id="shfMmyxWsqZTkf_A3RDa-1" value="" style="shape=image;verticalLabelPosition=bottom;labelBackgroundColor=default;verticalAlign=top;imageAspect=0;image=data:image/png,iVBORw0KGgoAAAANSUhEUgAAAuAAAAJ3CAYAAADVveTyAAAAAXNSR0IArs4c6QAAAARnQU1BAACxjwv8YQUAAAAJcEhZcwAADsMAAA7DAcdvqGQAAP+lSURBVHhe7P0JmGRZdd+LrpjnjMzIeajMrHnoqurqAWjoRjRDAwKBQFiCa0sW2H5PsqX7jL/7rOt75QFd+/MgPVkI27INEipZtmXZEmrEIAQNdDdTI7qheq6qrrkqK+fIiMzIiMgY3147zo48cfLEfE7EPifX7/uyY6zOjLNj7/3fa//X2kAQBEEQBEEQBEEQBEEQBEEQBEEQBEEQBEEQBEEQBEEQBEEQBEEQBEEQBEEQBEEQBEEQBEEQBEEQBEEQBEEQBEEQBEEQBEEQBEEQBEEQBEEQBEEQBEEQBEEQBEEQBEEQBEEQBEEQBEEQBEEQBEEQBEEQBEEQBEEQBEEQBEEQBEEQBEEQBEEQBEEQBEEQBEEQBEEQBEEQBEEQBEEQBEEQBEEQBEEQBEEQBEEQBEEQBEEQBEEQBEEQBEEQBEEQBEEQBEEQBEEQ8uBQbgmCIAiiLn6/Pzo8PDx//33nHp2dnZ1PJpOJbz751OMLCwvPK28hCIIgWoQEOEEQBFFFCO3x8fH5Nz70hkcPHZyfP3rkyPxbfuyRc8pbanjq6W9f+Mzvffb81574+vlsNptUniYIgiAaQAKcIAhiHyKEdjgUGnzd6x589L5z955DoX385PH5idHRQeVtbfG5xz//5Of+7POPf+GLX/pt5SmCIAhCBxLgBEEQNmdoaGhubHR0HoX23Nzs/Bte97pz3QjtViAxThAEUR8S4ARBEDZB69N+8IH7zr3p4TedM1Not8Kv/+Zvnf+Lr3z18R/+8IefV54iCILY15AAJwiCsBiyCu1WIDFOEARBApwgCMIS/O2f/+u/der0vTwh0mz7SC9YWl1NfOpT/+H89575/pMkxgmC2G+QACcIgugzjRIiv/ud715AL/X/8dH3ftLrD0JsYg7Cg6MQGRpV/rX1efmlV2/8zqc/ff4HP3j2yUuXLz+lPE0QBGFbSIATBEH0EJEQeezY0XNnz545105CZGL1LiTX7kJ86SagGB+dOcLFeDBi6WB4DSjG/9Vv/MYnf/ijC09SjXGCIOwKCXCCIAgTMNunvb54g4vx5NoiBMJRHhnHH7fHq7zDehSLRcjl85DazkCe3f7jf/qJT/zpn/7prykvEwRB2AYS4ARBEF0gQ0KkWoyHB0cgOjIFYweOKq/KhxDaxWIJttMZyGSzkMsV+HOlUkl5F8B//+///fx//I//8WPKQ4IgCNtAApwgCKIFhNDGEyJPnTxxzoiDa4ymkM/B6p0rkEqssp81HhFHMT44OqW8o/eguG4mtOtRT4BPT0/fi3558osTBGFVSIATBEFoEALPqBMi+8FOZrsqxjOppOliHKPamewO/0H7iLjfitCux5e//OXHP/enf/pJ9Mvj7sK7HnvHo9p2oLKGBEFYERLgBEHsW0RCZCgcHkQB98H3vfuf/cr/5xc/fur+N1pGaLdCeivBEzfxBxGVVDoR41qfthFC2+l0gtfjgXAoAB52G/D7+I/L5VLe0RokxgmCsAokwAmCsD2t+LSxLvVzf/XMjWNTA+fQvhEdmeQR4+HJeeUd9mBrY5X7xTE63qisoRDaaBnZTqf5/Up0u6C8o32E0PZ63RAKBqv3A36/8g5jEDXGn3ji64+TTYUgCBkhAU4QhG3QCu1DB+fnf+J97320XesI2jcwWoxCtRf2jX6BZQ1XF65BamOZi/HB6ROQd3jb8mnrIYS2y+WEcCgIfp+PC+3Kc+1FtbuFaowTBCEjJMAJgrAcvUyIVNs3ioV8tfa2FcV4LpevRrKzinUEH2dXLoOrmAFHaAyc4XHl3a2BYltYRvzKbT+EdiuIGuPf/s53H9/Y2Kj4cQiCIPoACXCCIKRGpoTIVu0b/aZdn3Zu7UpTAW6UT1sWPvf455/EE0a/9sTXz2ez2aTyNEEQRE8gAU4QhBRgVHtudvZcJydE9gN17W1xKiXaVHyBkPIO89EKbRHdbtenXYxfA8hvcwHuHpjkQltEtFG0p7bTsLV8FYYGwra04ggx/oUvfum3lacIgiBMhQQ4QRA9pZWESKth9kE4Qmh3Wk9bD7VP2+/IQSgYAF8wwhcTelFtUdYQP2cum7atL/53P3v+8f/2R398niqpEARhJiTACYIwBb2EyD//4pceX7h9+8Z/+dQ/e7IfEWOzwYNwRPImVlJBMY5CtZ1KKsKnbZTQRjyeSgIkJkTi/W592nplDbEtZbPidAMuev71b/zb85/53d/7BPnFCYIwGhLgBEF0hRDa7fi0rXZ0eic0q6TSrk+7Ffrh07aKL74ezXYXfuVXfuWj3/ve9/5AeTtBEIQhkAAnCKJljE6INCJiLDso8JLxNbhz9SUoZhJs1HWCZ+KMoUJb3O93QqQMvvhGqHcX8D4ueJrtLggBrv7uR6PRQaoxThBEN5AAJwhiD+qEyHpHgBuN1Wtvi0gqRk+zOxjNro2kljIbUN68wwW4a+we5V81Ru3T7nc97Xbp5y5HN7sL2sVNJrWV8AYDoPfdFzXGv/nkU48vLCw8rzxNEATRFBLgBLGPkTUhUvba2yiu202IbEWAl0tFGBoIQXQwZhmh3Qy9XQ6jxLgQ2iiusa65uN9KFRij7TpPPf3tC5/5vc+epxrjBEG0AglwgtgH6CVEvvH1bzh3z+mT0ns99DzGKOCCEfPXCCjwRPQUI6kYUW0mtOshBLjL4wf/5Ok9wi+5lYLN5CZsXPurnkeMe4XY5UglVrkYb3WXQwjtTqrA9GMXgcoaEgTRDBLgBGFTfuZDP/nP3vDQm/p6cI3RqG0NgXCUCzj8cXu8yjs6oxvLQj30Iqx+Jvya/a37wReP1CtrGImNV6+/+rTOVtpCXe1FFrsOiXGCIPQgAU4QFqVeQuQXv/ClJz//5194/P/5+3/9vIyJcEbRicdYCG2Mnm6n0/w+Crx2D65RI4Q2ir2A32+o8LO6L74R6kUPfsb0ylX+vDN2BByeAL9fD6PtI73i13/zt87/xVe++jjVGCcIggQ4QUiONiGyHZ/2fir3p7U1+CKxjiwLjUBx3a+ESK0v3ipivJVFT7mYg9LaJX5fT4CHfC4YGIxZRmi3AolxgtjfkAAnCEkwMyESbQ243S9EanRkkgm4eVtEUkVpORR1yfVl2Fp4mT/fSiS1HhhhFWJPxgirrLW3O0lORZyOMrhTt8Hl9kBk8hgE8EROtrjBNt3cSsHGtefYc5XPiT/dWo5k4//+J5/45Pee+f6TJMYJYv9AApwgeowQ2keOHD53+p57zvU6IbKe99YqkdRGPu1mkVQtVrUyqOlH7W1sC3H9e+XT3g+7OUurq4l//s//5Sd/8INnn6Qa4wRhb0iAE4RJCKFt5ME1RqOOpGL0UZT762ckVSu0xf1WxF09AS6ENtbnRoKOLIxOzvByf3bCaJHayqKnHmYtbuyepCp2dJ770YUbP//Rv/UolTQkCHtCApwgDGBoaGhubHR0Xlah3Qq9jqQKcWekTxsFuC+7tMfKoI6wxhNJSNy5CMnVO7aNpLYrUkVbqH3aeF8sWBohhDaKaz/7Efe9Xo/yDvPYTVJd0CSpTivvkJdWFjcf+9jHHr1y5QpFwgnChpAAJ4g2EFFtPPUO7//LT/yfj7/nJ95/bnJyxvIl/tQYHUnt1BvcCLVPG4UfF30qod2M/VTuT3xOIVIHx+cgW3S21RZCaMt6KmclSbXyva21VvVXjOstblBot1J5p54Ax7Enm80mlYcEQVgQEuAEoYMQ2o0SIj/9md97/B0PnfyAnT2p2uTNXVGj7xfvxrJQD7OsDGqELx4/p13K/em1xcbN58FV2gFHaAyc4XHlnXvpdnHTbyrWqgWVteoo66PmW6uMXmiiAF9fX78hdtfm5mbn3/C6150Tu2tUY5wgrAsJcGJfI4T2+Pj4/BsfesOjnSRE6kUYrS7e9NBL3gwOH4B8yWGo0MaoaigY5Pe58OuBlUGN3jH42J79rjBSj3YWPcX4NYD8dlWA4zUX73PkUzA6MgyjEzOWEdqtgGIcI+PYnpWKMfO8Pbs5SVXGhSaVNSQIa0ECnNgXCKFtdkKkEG8oVBHZxVsz9LbP+f1bz/LXndFZcPij/H6rCKEhq5VBTT+Pwdeibgv0ZndiH/EUkmxxEwBfaBAC4cHq4gZ98cmVO5BYuNizSir9YNdadVc5SXWet2m9soZmCm0zF5okxglCfkiAE7ZDloTISuStEkkVoga3wfsh3lqhne3z4vKL/LaZABcl51BgWNHKoEbtizfyGHw9urEydHtYkNH+f1lRi3Hsl3xhFZs2zD6CdNsW3YJlDT/1qf9wnmqME4R8kAAnLEsrPm1ZkEnUYFRPRPLareEs0Apw9fY5/r82t7bBu7MKsZExm4u37tqzmwgrXnNhU0DLAl57I8WdXpKqHcS4KPOHQhvvb60vwM76df6aa/wsv20X9fdf1nryL7/06o3f+fSnz1ONcYKQAxLghPRYSWg3QytqzDyR0szt82ApwaP6vsiwUuqvdvschc06+5wpJm5aSd60KsL/3yxJtVuh3W9xZ8U8h1aveTmbhFKyUmq7mQDXtoW4L5PQbgUU4//qN37jkz/80YUnsaKT8jRBED2EBDghDeqEyOmpyflvf+e7jw8PDc5/7r/8+yftKt60SY2dfE4hNFBcYERb3G+lzFk9hNAwYvvcqM8pO+j/X124BvHFSjR1cOooOILDLVsZxDVXe4N7bVloBW2Sar/bU3z/8Tq3W+YP0RPg6u+/EO3e3Do/vGl4/AB/j1146ulvX/jM7332/Nee+Pp5Km1IEL2DBDjRc9pJiPzG15+8cGx26BwKOFlOajSDVk6kFELD6HranR4N3gmtfE6roLYyqNuikLwD5fQ6gG8AXINzyrtr6bc32Ch63Z7deOPr4SykwVdMcl9/cPQg313QtkVqOw2Ju5dVn7M3ZQ17DZU1JIjeQQKcMBUjEyLVvluR1IjRNzOS4PoJfs6lOzcgl1rnn3PgwFnI7BggNCSwMqjRa0+MpMpWeaNd+0g+sQDOnTgX4J7YQX7NUWCjLx5L/Y1EQxAbn7FxhZHu27Pda94KRn3/E6sLVTtO5XNWxLisydWd8rufPf/4n3/xS48/9dTTf6A8RRCEgZAAJwyh1z7tlduv8QnQ6slh9YRGLrcDjvWL/D3O2BFweAL8fivIJrRbwaikxm7QtoW434roq7nmjgL4vey6h6N7Fofx1WVILF3t6+fsBa22p5lCuxc7DLufs7WyhjIj2kK7w/Crv/qrH//q175GEXGCMBgS4ERbyJYQKfzFsp9g2K64KxTyLQlwu1gZBK0mNXZDPaGBzzUTfkaJO70KIxhJtZsvXnzO+PIdyGzF+ecMjh2BPLvMVrNPNQODAvi9xTbFiLjMiyvsA2Kx06wS0q/92q99/IknnqgR4LizubGxUTHOEwTRESTACV3UCZHihMh+1dNuFa0fVYi3Xvo0uxF3arQCHA9NUYs+TDaLJzYhv/wKjE71/nP2ArG46ibZT1tyrpHQ0NIrcWe3JNV64i6/WCm24Rw6CA5vmN9vFSvt6tQuIld5W2KbDo5OK+/oHdqFv2iXVscivO7/84//+Py1a1cvaAMuosb4E098/XEqa0gQ7UMCnIDp6al7w6GwqSdE9ppe+ItNSQhThEYo4AVPMcWFt56VQbCVjEP87jU+4ePnFOLNbn5U9eJKfE51Elw3QkMmcSfDIrJV2rnm2E9g7WV+v5EAF22Bix2zTonsJZXFVSUyXrtDZ6wY73bh3+11pxrjBNE+JMD3EeqEyLm52flEIpnA6MXbHr7/o3/7b/zUR+24BY506y/uNoqkhxmiT/05xUmNdvMXY1ss3boCK7cuAZTy4A3HwDk4x9qleck57TWXXdyhGOf2jT4vrsT3HwWdKPOH9/E4/HaoHt6kCHDcVRC7Ovg71uIJcKTuwsjoWM3iyi5Uyjfe4O2JOzqiYky7Yrxe9Z1WxyP1dTdjZ0fUGMcysmRTIYj6kAC3Ie36tI3Y6rcCYmsYRaqeX9xMoa2OLOH9gN+vvMN49PzF+FmHJ+eVd8iPaIt6Eb3S1t1KqT9PCFyxQ8q/qiCuuZ288XqLK/wxOtnPrF0dvO4R2OQLiWB0FAKhiG5bJNaX+I6OeufKjhVGKjsdC6odnfk9i45uxyMzFvntIsoaUo1xgtgLCXALY0ZCpN5Wfz+ibmaCE1syvgaLN16BXCrOnwvNPth2RE+L2ZGlTrCCvxjbQ4iLVo/GFwLc5Y9AaPJkVVhgveat9bswFHTZchGJGFEByMzFplGCz04VRhqxsnCNH+CU266cLhuaOgO5Qqnl8UhvkY/XXbadHaoxThC1kAC3AP1KiLS6paFZFLWQToBj6zZ/r2v8DL9tBZzwhLjwK7f9FtqtoPUXi+hir7b6uxF9e8Sdz80XOXpiLJNOw/rCa/t+RwfRXnNx3wih3avFpt6OTieLDhmoZx8p7mxDKf4af49z5AQ4XPqLDBkX+Z2ANcb/2x/98fkf/vCHn1eeIoh9BwlwiRBCu5UTInsJToAo2kRpuOjIJI9GWT2K2ooAL5eKMDoy3LctXLNQL67EVj+KGiOSVIXoQ3HR7tHgRkfz9HZ07OgvxmRc9Man1irf58j0PVByBZr2gWbIttjcXXQsmJrU2C3tLjbLebYoUglwl8df7Qf8AKdsHEZigzA5f4K/x078+m/+1vm/+MpXHycxTuw3SID3CZEQeezY0XNnz54594bXve6cFSqP9Nsv3k0UVUs5m4RS8haPBvun7q0RfWLiSybisH3nhZ5/zl6iFuPtRBdFW3TiGe51FBUxc9HRSxotNnPLr4ILCuAYmAFnYEj5F83Zs8OgiG2ZF5vapMZ+iPFuFpuIuO5+jwP8jh3+vQwODIPXt5sjglHz+Opd2Fq5wYMgsi46jIDEOLGfIAHeAzCy/dg73v5RGQ6uMRIz/eJaod3uxKbHHtHHBJ/HWeZ/eyNfaWWir1Sj2K+WhkairxmyRVGRThcdvUTbB8T1b3TNWxHgHpcDAmyhiYnAYuFjZlJwL1AnNVbsVZXj4Y3c6ZCh+kglAFLJAajN6bCXGKca48R+gAS4QeglRB4/cmwea6O+/NJLF37rn/zi4zJaN4yiU7+4EBlGV14Qh6gYLfpwohdi3OhFhwyI9lhdXoT1Gy/yUn+O4DA4I82/s1aMorbiozYbcc3xe4+Jd930AbUA9w2MKu1REXzFUhE2t1KQuPsahLwOKRcdRpBYXai2aWWnoyLGW+2jnSx81PSqH2gXHfjdxc9pVTFe77q/973vnU8kElTOkLAdJMDbRJ0QeerkiXOt+rT3axRVvejoNoKkRz9FX6eLDhlQi756tZ2L8WsA+W1dAY4LHLzOvSqt2At60UfN7gOO3BaEIwP8+1hvV8cKOR1GsdtH91ZS0esDKPjatY9gP8BFvmiDfiw41WK8EhjYW9ZQJvC732rQ5X3vex8JcMKWkABvwPT09L1mJETiYFnZRrRnrVsxsXUSRa2HVmiLiU+GUluyC5p2Jjs1KMCx2og7NAyR0dnaKOriNe5ZRTEjBI2dqAiazpM3u42i6iH6AC52jCo3J3I68LPa4Rj8eqRSW7zU3/rCFXA5yhCcPAl58LXcHkbYR3qFetEhdgCwTfuR62BEP3jssccG1TXE1bvN+JjKGhJWhQQ4Azv03OzsuX4kRFrBi1qPVgbXRlFUPYTIsGqpLSFo+rHToW0PvG1FaCPaBQ4KO/ypd83tcNhPq6j7qFgwi0WHuOb4vUdvvLjfTa4C0g/Bp150yH4Mfj2ajUm5pRe5AHdG58Dhj/Ln1LTbD2RHLcZxAWnW/GJmP/iFX/iFD5w6dbLhbjPVGCesyL4S4Ho+bVkSImXwotZDDK6dRlGbCXBPeQemDhy0lNBuBb0oKrZptzsdzURGI8wQGPsliorf+9WF67By81UlinqirSiqHrIKvsTqXTYeoXirLDqM+u4aRaeCr7jyEtYWBXfsEPjCw/y6I/HEJhS211QHONkrqbF2wbzalRjvdEetEUb2A6qkQlgFWwpwrdDGg2t+4n3vfVQGod0K/YxEGT24ogB3lXPgi05AZGy+ZnDF37OR3ITE4lVIr9+2rXBD1FFU4RfHn0bWDSEysA3aTc4TExpFUdtHu8DR7iQUV17mIq6dUn9Wjqx28t01km7HJPVugg+ybEER4osK7d+PNhUci2q/u9OW+u62wm6wp3Et9W4W+vUQ/QDHol6c2klinJAZ2wjwdz/29r//2Dvf+agMB9cYSaPt727AwVUMqEYPrkJkiPutiAyRAIeTHyImebtNfvWsG8GhiY5Fhqj4IptlR++7ixO9LHW3OxUYrQhwPFhlYmpGqvboFr3vLranUZaGbgWfdvzB206ve7eVVKwCjrvojU+u3uaWucGpo+AIjvDr3q19RLZx6f/+J5/45Pee+f6TJMYJWbCNAP/kv/iVH507MX/OrsINWbldqf/azuRnZhTDrOiqdvvbTkmq6vZIJeOQuHmBP+8cOggOb5jfr4ddoqi9znUQ19yonR0hwN1DsxAcnOB9QFSFwd+BSaor118ED+T4WNRO8qZV6MYyJ9oDxyFhH8H+0KnQNrsf7H5391ZSsRr1qvAUNm5CObsB4BsA12B7eRxWG5defunVG1ge+Ac/ePZJqjFO9BPbCXDloZQRN6Ool+jni8T4gNpJSa169DuK0U/h1g2tLHzwmPvS6iv8vp4A97tKMDQyXp3crCC0m2F2rkMvSl36nYWGZf4EZu1eyUaj8o3YBp0ufMxe6LeLkT5qs2k38FJK3m4qwEV7YBvYpfyoEOPffPKpxxcWFp5XniaInmBbAa7GSsKtGdpo3sqNV6CQWuGvucbP8NtOkD2KYbZw65RuoqtORxncqdvcbxoZP8xE3SCf0HCixCjqxo0L4HU796Vwa0a7AqMVzBQYuHuFos1qC8lWEe2xtHALEre798jjLT6WddHZqo/abMR1xzFHnSeiruffCloBrg68YNtgUCeZ2ABfdpF91nn+We0W2Hrq6W9f+Mzvffb81574+nl12UOCMIt9IcDVyCLcWgEHVyEs6h3/XcpsQHnzDr/figCXXWi3gtYvLnY6zN7m7ya6qp7QhF2hFYHRie3IitSrGOMLRqoCww47O7IuJFullYVPI4+8HcYfLZXx6IbOQtJYMS7mAzN2d0LuPHicZR4ECA7E6raH2o4j8w5At1BZQ6IX2EaA/4v/65e/+cgDp3hh/lZQT/L99ha3MqnVo5BOgGPrNr+vFuA4sCL4/8BI64DPAaNTsz0RGb1Eb5ufC7cuojPdtIdZAkPYjvCz2rXUH4oK3ElYuPYqpNdu8Oc8E6ehVO58mJJZ8HWzA9ALRHu0K/hQgOP19cVm+SFONVHU1bsQdKRtK9wqC8na4+HbraTSzfhTD9EPjLLzWMmO0y1/8qePP/nvf+c/fvJHFy5Q8iZhKPtWgKsRpbXMHjy0Ayvex4G1m2heOZsEXzHJB/uBmdN7BlacOOPr67By+Rn+fvyc+GPHJNV2/eJ67YH32xHaKObEMdR4vxcnc1q91F8zgYEVRErxyu6Gc+Q4OFzNrTf9bA8jqLcD0IvgALaHaIN6O22NwGuP11pce7+rzD+DnmUqt5OF9bvXuGjDXR07H4PfrJKK6AedeuTroW0P3g+U+cAMZLHjdEu99kA7z9NPP/3kr/7qr75VeStBGAIJcA27g0fnE0IvBtZOfJJmRItlRESLcZKvTghjM+D2D7TdHkLYyZIIpkXmNm0mtOvRqgD3OfMwMTUnVXsYgbpNjay73Wl7CERfMGo3YT/s6ghWFq7B0o1LUMxtQyA6Cs7ovCHzgZHtYQS9suN0C/YF8f1vZdGpFuDqc0YW7i7eoLKGRKeQAG9AK97iXlRdMGNgxUkeB0m7eYu17bFx+xU2028CU9/gGm78+dQLnF5EjoymX21q9IJTCHCM7oem7oFAKFKz4MTJEpNUly89A2xdVJ3k7bir003p0U7box+LTjsc4IQ0WuTkt1bAmV5SxqJjyr9oTj/awwiMsON0SzeLTnHdcR5IZ9KJbzERrneg39LqauJTn/oP56nGONEuJMBbQEQWI6MHOo4e6SE6OA6mvTgVTA+rRqFaHVhLW3ehnF7XFeDOcgGGBqMQHRzi190qQrsZu1vCxif6qRc4eB+veavCrh6iH6gXnH7WJ1qJ+O6nXR29No3ExqvffSPsI3z8YW3Qz75Qew5AgLWpfIfgdLLIKW2vQjm12FSAo8AWfUEsOq0+NqEdB7+7+B3GfioqqRjZptgGnS46jUrKphrjRDuQAG+DVg5L0cMqEQwZo1BiohMCQ9xvxTeP191TTIGnlIZwbAJ8kTF+3bGs3Or6BiTXl2Fr4WVb7QBoUbcp0squDtJN5KgeZvcDtRi3W5uq20N8b5FWxyS9RQ7+yC7sdtu0f4fgaPsC3uLjdvuCOgLuGT1R0x54nyepbqUge+eH1bHXaj7qVui2TbsZm3rZD1CM/6vf+I1P/vBHF56kGuOEHiTA26DV0wpFp7aijUGgF1k0c+ITg2qnEQwUc50Iu/3kQ9Vr0whbmIDLw6+1XQ5wMnMHwGxa6QfNDnDq57U3i15U3ehG2DVCjE0hrwP8HgfreyFeXrNee8hg3egVajGubVPRHp2MTfUW+/06NIhqjBN6kABvg0YCPAjbMD49B5FoTHnGHtROfBUfKk4Iw5PtHVesBgdWMbm1u21uZgTDLj7Ueqi3aJevXoBiJsHUWghcsUPKO9pH9siqzKX+Ou0HQoDjdzQ4fozXbcbFPoLe+AT7rH6oLCbxp5fR4l5QWTRXDjbqtOpGN3aFepjRF7SVVMywbshAajMBS7evwNZKpfxocPIk5MHX8pwgrrUVgl5UY5wQkABvg0YCXBw+YWc7g4gWtypmuoko9VvY9XoHwEhaue5Vb3yLAly0B0aR+pWv0C3qBVZFzFS+v2aLmW76AaLXF5p55PfLAU7Nqm50e+316Fdf6Na6IQPN2qO4/AK/dUbnwOGP8vuCfs8JZvC7nz3/+J9/8UuPP/XU03+gPEXsI0iAt0ErAlxNM4FqZVDMiMiiEDO+6ARklUgSDqrdbBVWnpNjYJVVzHQjLloR4JikOhBw2/4AJ6NK/Yn26DSyakZfsLIdpx3w2sdX7rK+egly2wnwhgahPDDfldBGZLXz4JiEOwDYrjIegtNpXxACHHd23MEhft152yY2obBxE4YGB2oWWHbi13/zt87/xVe++jhVUtk/2EaA/8Nf/tifvffR131AeWgK7QpwgV3sDLqDanoLtu8qCWFNDk2xuje1X37xboWdHijAnblN8IaHYWDy6J6IUnIzBfG1ZUjcvNDTaHGv0bNYtSJmui0/imJbXO9ebZsLOw5+hxGrinG83vX6Qim1DOXt5Y5L/VktuioWWJWDjVZVbdo7gSrGJwwEdGsp9DsLfEGstxBGm0pi+Qb//uKcKqrj2NEbT2J8f0ACvA0aCvDVi0zV5JVH9bGKnQEHVRFRbTSoNjs0JejKw8TMQUtMZu1gll+81eveDtpJTtxvtT30osV2tlhpF1i+SMxQ+4gMfUFvBws/q4yl/tq59q0K8IFIiLWDv+/JeUYi7Dh7AwTGiPFO2kMg+gFeayNsO/vFG481xj/5yX93/s+/8MXzVEnFfpAAbwNndHaPL03QqgBXI8MxzF0Pqq4yBCHNB8Hg0AQEAkEuLjAytZHYhOVXv8Xf22r5OyvSiV+8m+teDzHJmWXn0doZ7HSMuGgPjKbi0dMrty5CYXOJv+YaP8NvG2H2tTcTM+w47aC+9t1W4lELcCz1hyIP20PsvmHUPJlMwvZte5f6qwQIOq+k0miXoRnYF8R170U/sIM3XlDvuv+n//SfPvmHf/iH/0B5G2ETSIC3gdECXI2Y9MwSqHqTnBAbzehWXOgJVJz47HZYSj07Ax7g1Ml1b4SY5PCnH5n/MlcXaUYr9pFCOgGOrdv8vp4A9zjLEBse4cKu19feLDq147RDt9YdPcT4xHcZHAXwez11bQyCZsmbdqJRtLjrAIy47uxWjEf97Aeye+MF7V73T3/60yTAbQgJ8DYwU4ALjBCo9VbRrQyqap+2GeLCztUZ1OIisb4E6UX2nWA4Y0fA4Qnw++0i4ySnRVY7QzfiAgW4O7PEP8/AgbPVa4//Pyz1t3HzRd4mdvr+quk2ebOba1+PbgMB9eg2WmwFRHusLlyH9duv8nwl3+gRKDiDyjsag9faSrs7Wm88fnexXXu9wBLXXTsftxuA0Qpwv98fHR4enr//vnOPzs7Ozt+6desG1Ri3HiTA26AXAlxNM4GqneTwFh9bIXpRz29rhQhqK+KiXMxBae0Sv9+KADdLXPSaftgZRHvgxNaJhaHetfewx/X+bjvbcbQ0St7s9trXA9tEjEm93OFR2xkqwRD5jsFvBraJGJP08kiKKy9xAe4YmAFnoPbcin7PC2ZQmWsqgR8zvPEC9bxgdP7Ol778pcdXV1ZuHDo4P/8T73vvoxOjo7pfSKoxbi1IgLdBrwW4Ghw0gsMHIF9yVAfXdoS2mMjEfZnqN2sTGnEHQIbsdq3QFvdbue6NBDjuLAiBEnRkYeLAwap33i6gnQHbsxKBqux24He4mwOckG4tDOodHqMWOVa247QDXvv46l1YvPI8H+vc4TFwRCYNERgyCj61GJe51F+jQIAeKMDx+vpis+AbGONJkfhvsPJReu06DA2ETBGoMiB2O+KLqr7K+mk7n1Vcd7zWKLTbmRcaIRadRo1NWGP8v/3RH5+nSiryQgK8DfopwJFGv19MZHaKoAo7jtmTnhhQO7Xt6IEC3JG4xj9DZOokv1WLC/ydWNs2sXARUus4wRsjUGVE7Ha0I1A7FReCfgk79WIS2xw/q9VKpTW79sXETdaom2wsGmRj0gH+XCvgmGTF8al2MWnOMfjNMMpWiNcdffL43dTb3elVtFgGeF9drViPeF9lY6+2r5qes9CjsYnKGsoJCfA2kFGA+8ppmD18wnJCuxli0sOJALf4UaDidnC3UUUUF0JQGL1NiIKikxJbnQhUq6K32xGMsgnPHejIwlBv4SlDWTm9xSS2rSzVGeotPJv5U1sR4Hhc/ujIMBcYKDTsMj6ZLVC7WXgaLexEtFj01cpntZc3XrBy5xo/Cr+Y2eR91T91puXr3ggZF50kxuWBBHgbyCjAi+uvMbWatbVoa+RBrUe3EdR6mD2g6kVQ8bPaob6tNoq3ce053mccoTFwhseVd9XHDPtIL+hFdZFmGLnwFALcHRoG33Clxr+wt2GbYPnRrcQqpBdfNVygyoRaoCLCOtfKZxXjEy542l141lt0mtkX7FJ3u96ik7fFdhIcyev8fa6Js/y2VfoR1e4WrDH+z//5v/zkD37w7JOXLl9+Snma6CG2EeB/92Mf+f0Pv/fHPqo8NAWZBbganAhwcLRjpCKxepdNBBhZrEQVcYLHCKrLF2oritcMGQZUvYRGmTyo9Wh18SO+u3oCXB1BtcJk1ipitwOtDGYcDd+ThaerxNsF+1+jaL5WoNpdjIuyhlqB2o2NQT0O9aPcqB5qb7zMdbe1fQFvG133cjYJJVxcMhoJcL0gjNUPcnr5pVdv/M6nP33+m08+9Tgd+NM7SIC3gVUEuAAnAiHG7VBzWzuRbVz9K1RqLUdQ9bBC5MIsO063iAkOBZ5IRsL7LVfASN4Ar9sJvugkhIenFGHh5GX+kvE1yC6rI6j2tuMg7SycG0XyuhHbZvWHRgLVLog2uXX1VUivXOXPeYaPQMndvNSfFSOoiAx1t8V172Q3QY1WgGObiHbAxQ/+/1LbadhcYOPS0FDbyZtW4amnv33hM7/32fPf/s53H9/Y2KhcEMIUSIC3QUMB3kAIG0W7AlxNP7a9O0UbuagXxROLnlYEuJjgerltawb9qriBAq8bsdeJfUQtUHc9qPvnNFUUNChQsT+IPiBL3kI3WCWCWo9mix98HtZe4u91Ruf2jNl6EVSrjUNacGcHxySRqLo7LhkrUEVfMGPR6fc4wO/YYd/JQQgOxOq2B9/FUs6zqOYB2FSMU1lDcyEB3gaVuqlDyqNaZBfganol2pohJjIhLMT9ViMX9QQ4DqhiQHbkUzAxNgaxsUlLT3B6VKKKxh6A0+ripx5iMjM6kqcnUPGz2uk0VXHtb129uBtBHT0GJaeP3+8UWb3zMnjjmyEEnxij8LaZ4BMCHBeNeNhNhC2ksC/gv+Gl/lauwNDggCkCVQaMSFTtdhyqh9F9gQcJlEoqCF84D7WWB2A1/uRPH3/ys3/wX85/5zvf+QPlKaJLSIC3Qb8FuN7v7+b3GiXaWqHbCKouG1d5xC4yNg/e8PAesRdPJCG5coeX+rOraBO06xfXW/zgZNeu0O5HBNXqp6mKa1+vP6D/vbT6Cn+vc+ggOLxhfr8ZZi1+eoHwxqNnvB/l77oRfOq+gF5gFHZY6q/emJrZ3oL1u1d1drHsJ9oqu1iNK6mYMTf0oy+oxTifW3XKGloB7dyg7gtf/OIXH/83/+bffFB5K9ElJMDbwG4CXI1RQkY7keGtUYOpeoIT91vBCpE2oxBbwfhZqyc0Th0Ct3+g4wlO1gjqrmjTRtrk8Yt30h9aFeDlfAYmpmba7g+yoxZtiLDjGCVQuxF8OBahkMO+gP0C73fTF7QCVZy8aUub1fJtWLj2KhSzSqm/iVOQ2Sl0NTcg+P2XzdLDAyKrFZsVD/6wuQbHJtmCP+0mCJMANxYS4G1gZwGuphUh003EqBFmiz0h2vZGn6yf5Kdtk/WF16CwucRUA7t+oyeUd9XHyhHUipDpLKHRCIzsD2oBjkl8gYFYjeBD8YiJqivXXwRnYbsqUO0o2ropf9dNm/SjL6i98ZUdOzlFWzPEdVcvcvC6o7WwkN3aLfU3bv9Sf4hajGM/Rb84zju9zHkwanzSCnC/3x8dHh6ev/++c4/Ozs7yU+S+98z3n6Qa461BArwN9osAF4gtw8jw1J4yf9iZuxHbMgymatFWiT5VRJvZdpxuaXUwLW2vQTm1WFeAY9LRUGyEtwNe+17YR3qB2X7xbiKo9dD2B7+zwK1EzSZpvc/a68m9V6gFqjp50+F08euP7dBJFQxpI6jKZ+WijX1/Zdyxw7FIjD+teORbFeCiHXptbzOT6k4sE+PVE1WZGDe6Xc0cn1544UcXvvnNpx6/79y95974+jecu+f0Sd2jm0VZQ6ox3hgS4G2w3wS4wBEcBmekswix6Lg4gIrDOvhgym5rvn1l5VYNvq73vAms89riFSFT9VDP9H/C44MpGzi3mdjO7LQ3mKIA9xSS4A1EYGDqpHL93ez/s8MjqHgQToBNcLJ8VjNQt2vVetTiZ60udNhE1m1UWyD6Axd87NqLNkFx4WJCshtWlMS3GpuVzdoV2yS1nYI7rz0Pua0V/pxn8lxLbdJw0V9v/BG0Ow41+rfitXr/T9W/FSVIRXURFG3YX4fZ4kOXZv/vDimWjImg8lJ/SaXUHxPg2CbYBmLxg+c38FJ/d16CaLQyDtvRG1+1Cq4u7J4HwMR4O5/VqKi2FnU/MaL2PIrxf/Ubv/HJH/7owpNUY7wW9TBhaUiAm0erArwaSVILiy46bj/Yyep4qNlkN8jEjJmoxV6r1RbUVAfNIBMXTMwFWFtUxUUdtJ+VTwLsc5r9WftBo88qrj1ec5GQiouUdusIaxHiAtvCiImsVfCzCtFm1XatWfzkKu2hFhdaIaeFR1DZ+BNiwg6vObaB1SOolXbVqS4yYqxA3RNBZf2gnbFIDzE+hfwu8JQylVJ/kQal/nr0WWUgnUpAfLFSI79qi0QxrnxW0Re0gRijDptT9xMU3XUDAY0WlQi+3mRRKWqMf+2Jr5/PZlkn3ufYRoD/7E//5G/9nQ+/6+PKQ1OQUoDHrwHkt5VH5tBIgDsLGRgZisDo5JylhHYr8IGRDYrCV2yEkGkmLJqhN2gaIS7M+KwygoIilYzD4tXnoZhLA3hC4Bk5Yoi4aGfx0yvwSHgUMaJdq974QTn84lVx0abgEwIcbTf+yTPVRf/2dhrWNhJQXHkJRqcPsc86Lc1nNZJKu9Ymqrb7Wbsdi+phdCBG/VlrKqlYql31tkH2qtXE+jKsLlyD1Ppd/ln9U2cgVyh13SYiGIBjlN/vV7WJU3lH7/nc5/9839cYJwHeBiTA91JKLUN5e6XWa+u3YZk/lZWhlc/aqbBQ068dBe1nFWI8GJbbG6+mmbgobd2FcnqdC3BX7BB/rhWsvMuTYG2Kp1H2q121bYK3rfYHvUWO3+cGt1vf655ggk3seFQ+q5K8aaHvcKs0+6z1xiKjIqjmLTyFQN2VKfhZ8XPi5937WeuFX+Wj0iaV+QCj2ngrdt2wulEJ9QTDOXoCHK7W8zkqbeLm45MHKyMZ3ibmgGL8/H/5r+efeurpfVVjnAR4G5AA34sQ4Grs6j8VoEDFCUDttQ0OTfMBtFf2kV7RjYe6FwhxgZMZRj/VE1kj8okFcO7EGwpwrEYyOjwsXZsYgbpdjc55EG2C/UBYelBstyO0jVzk7H5WzcmbdcR7f0ERqZ6W2xOVKwvXeKQ4l9mCwMAoOAfn+fVvdSzSQ4g6vP6VCCq2CesT7Laf6H2HZWxX7A/YF2rnh/rlF1sV4Ngu2AbqNhHtZGV+/d9+8vxffOWrj++HSiokwNugoQDvhRC2iABXI6JsdrAyCGEhInhbG8uQXr7MX3OOnuLVGBohxAUOklbzpsrgF99Ts1aJIHUiLoQAd/kj4B87zicy9SS2ubUNyY1V2L77sq2+w1pEu1aS/CoLSvy8dZP8NHTTJtqFJ97iY7MERKEgzgNYUD6rUl1k5ojyDusgIqh6i5zS9qqq+tFJ5V+0hhDbYvGD/cIKog4TkPE73M9AgbZNtLturaIV4C5PxTIiotoIRs0Tyzcg5MpXPqsNz7RA7C7GSYC3gSM8Cc7QiPKoFlsLcP8gOKMHlEe1NBPggpoyf5JvAwuh3cw+Us6loLRRKamlJ8Cd5QKMjo4bEsWTCa2vGAUb/hjlydQudDqdyLTU2Ec8DvC4mdjwBxtGzOzpjdeLqjqqyZv4eWtq5I9M8r7QaZsIUVdZ5OyKiX76T8Vnxe9xbZKffO1au8ipiG0cj+pd+1YFuN/nrVl44gLI6uOTdkFpVhJ9u23SKtgmLihC0JHliaq+0CB4+bi1t11qK+TY+4C5pdXVxKc+9R/OP/H1bzxup7KGJMDbgAT4XloV4GpkKvOHYg8H0NrtwdYieCjAHVt3uIgbmDlbtSrgv+dl/u68Al4HE+Fs4YGfV84t7+5QbwPjdWgnD0AIbZy4Ktdebm8qLjxwcsefiv+0ItoaLyjVYheHW7l9qiKKl1xfhpUbL0IxvwPu8BiUQ+PKOxpTPUjLQtvisiSqimufSqfZIqfQ8cJTK8C1bYLR03hyE/LLL0NsbIp/Vrvu7nS7yDKqTbSodxqM8GqLA+b2VD6ywQFzWl586eUb/+4//ufzn//8n3/S6pVUSIC3Qd8FuM7vt6IAV9PJoNgJQux1GlUVok4dMWpmH8Etb90IxT7yxovPaqR9RCDaBCeyWktPZZvWTNbZ5xQLj90FpbWsDNgn9i4+d6N4YmzRs6AZLSBkoVeJqnit8fobGUEVbRLylMDDFv7NSv1tJeOQXL3NxyixQ4m2HPtWjdk9dA3bNRwdrRGoZrYJtoF6UYp9xSzSW5VdO/yx+mnP2gUQ3oo2+djHPvbolStXLB0NJwHeBiTA91I9bdEAjIg8CaEtW/WR+tv7vRoUexOJxeuf2tqEm5d+BMVMgj/nmTgNpXJ3Q42skdXKIutqzSIL23aY/ciCdhJrdfGJY4urnANfdALcA5P82jtZv0B//Nb6XQg5s8oiy3oe6lYwIsmv02vfDG5V0Ii6bvpDNztZVmN9mS06Fq5DJrnKP6t/4hRkWNt02ybaRSne9nuM0p72LOadyJBciyzRT/BWLICwrzRKpv/oRz/66NWrV0mAywAJcPPolQAXtDoBYGfFjoodFgW2iFq0OpCKCCpOYuZXutgVvFtMqFUOmdBG2aLKO+RHb8BUR4wqdZpv8fe2kqAqsHJkVfjF40u3lEXWLG/XXm7vYzvUa5Nm4LXHa43XHEVdAH3y7L6e4MztZGHl9iW+6Khseff+s/aKVnayRH/A660tK9cN/egPajFu5V27emNUdien5O+wuZMNy86xe1oenxDRJjh3hEKVxGFsF9mT6ROrdXZ3Ir3NyRLtohfVbgcS4BLh9/uj73zrIx9/28P3f+DciflzytOGQgJ8L2YIcDViAoiMHGAd1Sj7SGVC62cSmMAKVgYcMPF643XXsyro0aoA9zNRER0YqEbxsI3swO6W91XV9v6IwYmqnUVWjRZ16s+K2FmM407W0s3L3LqBi6zI+GEo+YY6EhBqZBR1egmN2K6tVsjpJe2KulYFOLZLzaKUj1Ny5zS0wvri3t0dbFtfwLgdD9EmRi9KBR/+8IfP3b1719JH29tGgKuZmpy4922PvOGjRkfESYDvxWwBLnCOHG/pQIL69pH+i+1GVCa7W3xQ7FdEsRtRp0UtwNGCEggEWZsEwKOIbPwdaGXYvPkjCA9E+We1r5Vhd5EldnewfVuxMnQ7iRltVWhGxUNd+by1uztyVz7So1F/yK1dAVcxDY7gSN0SrfWwoqgzIqHRCIwSdVoBjotkbANsC2yTUrHE2j0DW0tXYSDo4Z91eFK+hYcRrNzWKeHYZiUVdV9pNUjTLSTAJWJoaHDukYcf/sDsgdn5Bx+879yb3vSmc+Ojo4OVLZfK5NctJMD30k8B7nE5IMrEm4ji4cDZyiQm+5deL6KIE57R0VO87cSqUI+ayKrbCX53iUdXGgnN3Yl9UZnY7W1lEIusWitDZeHRTWkzo6PaRmCEh7pX4PVupz8U1y+zBs02FOAytokR6CU04vfY6ORNbA9sCxTYRoo6bBe/qwQhdx4CoUHwRYbrLoBEdRH8vDULDxtWF8HPqt7xwPEJP6964SHmDj5OKQsgXKiYKbTrQQJcIj7w3sf+2a/83b/xiUp0aY4NDLWDfJFNfos30Xd7F/KZTeXZ9pBSgCdusp7T2edpFVkFOH529Klie2O72xERTVRHT3ErWO2N16ZTqju1GDBFFA9vu53EhLDACcvIyKrWtiHEuN2qMmCbpLaScPPShd1E1cl72xLaMlkVmqHnoeYTex+sDNr+0Okuj1aAq3caMFEVxUkyvgy+/Dr/rHaufKQen/CzYp9tZ8dDtAm2AxfaHbaJFqMXQOqERqRiK6utpGIXUIyrrVaDU0ch74l2PXcYCQlwiUAB/vGPffATykMuUrAAPw4GWjKawzVahQT4XvotwNWfXQg2vTa3AyISo46eioWHmMS2UWAzYYG1tI2cxEJsEsPJC3/UQlsr/hEjBhU924Z24SE7ok3wVi+yWspsQHnzDn+va/wMv1WD1x6vd6/sI71A7Hjg+GtmNSC9a9+JVUGL6A9BSPNyl4HIME+e1msT/N2VRNX6yZt2opUdD7MOsOl1lSQU4/gdxh+x8OAlHCWrLtIKoq9ge2gXQMX4VdZoWIqULTQH5JpXSYBLhFaAqxGTN3YQLeoIYzMcoTFwhvUPpOiJECYBrjyqUErehnK2EkFUo46e6rW51Ukm4rB041XIJJb549D0WciVHF1NYmqhjcICvfQybJfjzpWebUMsPMygk0FRTGLt7DQIAY7fV//UWR6pw1wFnPw2U9vgSl615MKjVYyyMuC1FwLbKKuC6A/4/VeLOuwTnSCLh7oX8B2Phet8bs1ltiAcm+LzhxB13SDaRSqrlSqhcTdYYGxCo1GIvtKy1YoEuKnsCwEuEJ0DxZmeRUU90etBAnwvMgpwNY3aXHaEqBNRbX6rDJblfAZK8coOjjN2BByeAL/fCmK7PGSxyGqujl8cf3qFaBMh9PJteiDV1z7ABITHVebfUa0vGn/P+uL16ni0Gz21a6JqHRGjWniIa9+tfUSLVtThrZn9oVce6l6BbYBtoxV1hc1FKG8vA7j94Bo+pry7dXqdQGwERiQ0GoFRfYUEuLnsKwGupmJRqQx8WnYtKpUkOAEJ8L3ILsDV4IAoJnaZ6ETUtSrAMVF1YCAqVVTbCCqT3F6/uJE7HurtcmybdrbLjdxRkGHhoZ4oGuUcGMHKndd4BJVHT1mf9cQOQa5Qavna10O0CQo54Z9HcdfP/mCEh7pXtCvqKqckNxfgMka1u0Wb0Ih6A9vVjEoqZtl6EJkF+M/8zIfPLS6SAJeCdgW4mtGZw7xzNLOoqAV4mX25w+EQeNwuPrkmF16F1EbFEmAW/RLg4BsA16D+yX5WEuBq+iFiEBwgRbSoXVGnRi3APaPHwBuI8CgRTlxY6g//35tbKdhevAhhJjZwYscfO6Luo53seAhh0Yl/XivqeJlFNh6YlRSpXnggjcYuK4DXHn3ZWlFXTG+w/s3GNoZztL2DUhBZT05thJ6Huh9+cdEfxDglRB0eYNMOWgEu+gq2AbYLnla8tpEA1/YCxEbG+HfYbgnXiFGVVES7GL0D1AiZBfj73//++Y2NjcogYVFIgKtoNHnvsC/79laCCx291fn1l77HB04z0YvAkwDvTIALdre7J9l94zx73Yi6RlQtDAEv+J0F/vfjTz2xmdnegvjitapg69fCoxc084trhYVYALUqLISok8W6o7fwMPp7bBTtXvtKHfnmAtzInQaj6HZSrZwJoFMOzoSqMaJdhKjDW3zc7TiF7eIpbkHI6+BzZmR4um5fwaPhsdpG7ffYnsfgt1pJxcyodjtUBTjTHfV2//sFCXCJMEKAq2lkUdGDBLi5mCXA1WgFWyuICYwPltsZbh/ByIRR1RaMFBY48FdEm3q7exICFjwkpRm48Lj12gsdJarKKOqaISJseguPXiP6BC4+UTxUxHZ74kFPgKv983yHBxNV04sQG658Xjt+j3ftR7XR01bnJQG2CY5JYpzCWyPHKbEDhLfd7ACh/WiPh9qmVWNQjK8uXGOLjzt8PB48cA9ki5Uk7F4L7XrkVpUDp0iAm4JtBPg7Hn3k7//jX/7rn1QeGop6m1dMLjgBYEcRft18/LrpQpgEuLkCXI1epLgbT3A9tBOY2RYGgTp6Kra7+yXYukEt9rQ7DeViDkprl/j79Hzy4toLUWelhNR6CMGGQlx9oqr6e2wU9cbCbsUDtovHUYCQM8uFSWBouu4CKK6KnqpL31kt4boVdu1HtcmbWvsRtgtf+Ch9oZMFkB7YLtgOPIFY6Su4KyTaRS0mus0TELsA+Hnxe1wJiM1bumoMtgW2jTaqnV9+mTVaHhwRtJjKZcEprin17kmAmwIJ8DZwD0wwETyuO5AVCgVw7iSgjGLYpHrgJMB7J8AFONFh9DTDxF23E5hsFgakl4KtW9QTWCsLILUAFz55jGqjUKxET5dgdBwndutVyGkFrV+8m7Y1c/GpXgB1uvhE+1Hle1xbc3vUptFTPOE5vnyH5x3x6OmMcdFT0S6y7ACJogj4o64db8QYVW/R0I0wEgvTVr3axdVX2X9IgLcLCXCJ6IUA1xPAeuDE78xuQCG1ojxjDFIKcNVhImbSLwGO6P3uRsg2gbWKVrD1K8FPTGDdJEVWr72zwCOjWoGNvwMrbaTictg2zEa949HIftTNtW+EiJ6KvlBZgJqz+DTKtiET9RZA2cWXwAUFJUG//X4qY1CgEa3uAvQKbAvsM7jz0+nClAR4Z5AAl4h+C3BnuQAjo2N7BjH1xNct+1qA61gIZBDgejW1UWBYHa1gQ2FqdIKfEHtcWHTgn9e79p2IByHYMIGzEmGzb6Iqom5bXHgER+YhX3Z3JB60iAUQtodacPdL0Mkm2JrR7gKIi7cSE29NBLhVgwKNwF0A9Rgl2taMXACzFqZIbumVyiKKBHhbvO9975tPJFAAWRcS4G3QSICjEPY6Clyo1NvSFlEZjLh1Aglw+QR4cfUixMYqCbuyTurdYNRJlN1YGHopHlCwoUDFz4yCDT8nfmYrt2098ZBfrJTQdQzMgDMwxO+3g9Wip1rBVllUThm6qGwHbANsm25sPcWVlwDKpRoBLham2D6bW9tQ3NmGiCsDsfEDNl5U7i3hiD+dWMv02qXdEoztQBHwziABLhEyCHC1EMZJWwzwWkTETWz1t4re7++JCCUB3lCAYwQKMStSLAutRIq7iRQJoY3iQYYdBXWkeHdSl9cvLq49X+i0sKNQXH6R3zYT4HaPnu4uKs3xi3fTJxqB7eJO3YJwNAbe8DAEIjHddkmltiC5hKVIrbEL0A3t5AKY1S7tUo2AR7EfxpRn5UBmAf7YY48NZrPZpPLQkpAAbwNHcBicEf0IQiMxiJN2vQhpOxYVEuASCvD11/gApaXTSLFVSK4vVz3UOKlHZs5AvuTgE1qrYhvFQi88wd2CCw+xC4CJqti2IsLWL1A8oFjoKnqqEeDqBZCL3cdEVUc+BUMhJtrGZ0zZ2u83lbatjMGVJOTO/eJC0OGtkdFTIxemersAOC/tlxKOvtgsa4/KItXMqHY7FJeVXQwS4G1BAlwiZBbgAjHgdWpRIQFuHQGuRi9SbCXUkSIUfRVhwYRGPrtb5m/oIDi8YX5fjd2ip6IiQ68ONjIrSsejp1s3+GLCGxmrRFF1FkDxFSbWVlCgWrtcZSvstm3lkJRGYlzbLvyWPTaiXdT9hd/qtIsR6Nk2rF41RrddMluQX1XGqZETdcfyfmEJAS6hPYYEuERYQYCrwYmvYlfY+/+rZ1EhAW5NAS7YTRSS8/CbdsVeTZ1tJsBxCxyFAv5/MLrk2F6GqQPzPHpqR3Cbu7JoblxZpFXwWuO16yaqrUUIOu7V7qLOvN4uQL3xyw7s5gLcrLTt5CEo+WJtJwrXw6h2MQLtLsDuDo/xJ28ahRir1P2lXruU8xkoxdk4zSAB3h65lUvgKu2QADcJEuBtYKQAV9OqRUUtwHEAx0hidu065LZW+XOmQQLcEAGupt/RxG7EXjVKF/CBp5jinwV/1Ls6+P+P370Gq7de5Y+tvgvQDHU/bda2Qjy0utBpFTEmmJ0UuVuX2V5VY7BdsB3UfWInsQCFzUV2cT3gGj2pvLM9RLtYwW5lZs3tTlH3F2wfsQPXan8hAd45MieIkgCXiDe+/oGf/1e/8rfPKw9NwSwBLmhmUYmvLfPDRNRb+LcuPssnQlMhAW64AFdjpoDpRuwZFaVTi1PZdwG6RRspxs8ZmzoK2aKjYZSuHaoLIAlsPepI8W7VmFHdYIIstNMnSqllKG8vs4veXICLdkGBrRbcMgrtVsC2xe8x7vL0InlTtAsufEQSsREnqxZ2tsGRuMpELmujURLg7UAC3FxIgLeB2QJcTatbvD0R4J4QuGKHlAe1kADvXoCr6fTwG73Jqx2x16voqRBrdjv8Bq8/j84pYg7F9vadF9iXlE1eOtaxVjGq1nkvMLIUnFF0e4JnPQEu+gv+/7CPeQsbMIrlSMcPKO+wF0Ynb+r1l3bapR2qEXAS4G1DAtxcSIC3QS8FuBq1RUUrtJLxFdhJLppbC1xWAb51F8rpdeWRefRSgAsa7YaIyasr+0ifo6e7FQoW2X2sUGANG4Pof61ET3Orlyv+yRYEuExR7W7px7Hw7bRLOziycfAUtyAcmwbf4IRuu6S205Bcvgmrt17hj0XgROZdgG5op4Sjdr4yql3aoRoBZ5AFpT1kFuBvfvObLa9fSYC3Qb8EuMAdHuMdod7gVdpegzIK8fy28oxBkADvuQBXg5NccPwYZJmwaHXyEoLOCtHT3a3uyiTZryPwtXQbPRXfDW3uhmgD/P+WcykYDHlh9sg9/HW7IRZauOthlKcY+wAKu07bpR5GHCy038r8Ybvi560mb04dhbzDZ2i7dAv2sdLGNX6fBHh7kAA3FxLgbdBvAa73+/UiZy4oQnzxGhscK0lSXUMCvK8CHGn0N2i/A/y2TeEgC2JCVwsYsw82Mit6Wty4DuGgHwJD0xCMjiqibrddUOBvxNcgceeVXb+4IlDtSLueYrPapVe7De1Eiq2EaBcU2dge2C6bd5iIxMAPzxeSq3qK7AI8t/giuBxlEuBtQgJcIvarAMffOzQ4wCczvYkMJ4CKqGl+0E9d9rsA1/ndgn4KcF9xi5f5wxrOdqNiY7iqY2Po3C8uhIPR0VMh6FBgo5DrRNBpdwGsYsnpFL1IMdYjx10e0S5GHJQig4deGymuLLTmLdG22FdQZDfrL8XEDW6DdPiHwBmVywdfI8BH7wGHU67ARHHpBX7rHJxj1y/K78sCCXBzIQHeBrIKcPF7G/mGkcWbr8H2xiIXNG3RQICXs0n2N5icBMogAb5XgItj8I0QpzKza2NoveydNnrKb7sU2ogRNoVmaHcBKpFie1SN0bYLfs6dtcrBN91EJ3sV1e6Wdg776SXadml3t4EEeOfILMBlPiafBLhE9ESA+wfrDi69EIO6ArzO70VRVtm+3zuwawVNU0iASy3A1dg9coqRYvzuqsVpYGAUSk4vFwxGlS6TRdChWMMfq1WNEYIOI6aNSsq1aw8Q7aKNamPbWA38Lov2Fd9l3MU0O/eh29wGPUiAdw4J8M4gAS4RJMDrg6KsnkVlfXkBNlexbnEDiwoJcMsIcMFuTeYR0yf0XqEVDhvX/op9AUtdlflDrFDqTyyaUYijjUGmhVarNgU9GglwFNvi/+HIb8H42BjERielahej0LPk4JjdTQnHbqPa7UACvHOktqBInCBKAlwizp4+9ZOf+sQvP648NAWrCnBBxxYVEuCWE+Bq+n3qZru0KhzE529VgFvFptAMPb94vQW2kZgh6FAcObZu87HJN8IWjAPRPQc+bSQ2IbF6G5ILF6tjGC48zEzM7ReY+4ARcWzf2l2PxsmbZkS124EEeOeQAG+fYrEEjz76FhLgskACvD3asqjoCHAUMyhesOzh1l0mhEzGOXQQHN6w8qgCCfDWBLga2SptoIBDYdeJcKgnwNWRU2dpByJBL0xMH6wKOjshxJo6cop9u1u/uFmCTowbuNuAOw18x8HtaDnSu3rntbbFqVUR4zB+3kqt/Eq/9YaHDV0EGQEJ8M4hAd4+6+vriQ984ANDykPLQgK8DewkwNU0iqBxz+3SAvgGp3Wjhjg5XH/pGX7fTEiAGyPA1fQqcoqYET3Fz+9yAgRH5iE8PLXHPoKR02R8GRK3XjRUnMqKEGvt+MXNsimYvdtQT5zKsrA0AvXidPX2JShsVmyCrvGz/FYmSIB3Dgnw9iEBLhkkwLunmUVFDxLg1hXggt1t/e7rbQtBx6OnHRyJX49uBV0n4tSq7IrT2lNGMXLa6W5DI3pRGaYRu5ac3coivVpYGkEri6BCOgGOrYrVjwR4exSyW+BIXuf3SYC3BwlwcyEB3gZ2F+BqUKRURFnt7xOThZjIUxvLZEGxuABX0444xe8ACgWjBZ2ZSZH1xKn2e25l1IIObWTpFeUY7gbf41YwO6ptBLKfRKmOarfTZyq5Njf5fRkFeD5+DZz5lJQCnCLgnUMC3FxIgLdB3wW4zu/vxe+NTbGJOzymTBi1k0W5VIQSHsSzs6k8Yw77XoDr/A1mCHA1QpyGh8args5KNoVmqJMZKyczKp/XYpFTraBTH2BTzmegFFfqbLchwK1QGaYZKMb3lnDsjV9cvQgyos/IHgGXWYDLHAHHZEJYZSKXQQK8dUiASwYJcBNx+8E13Hzi4qdish9+JLHBkADvvQAXOKOzXU0MQmhrBR2KbVnQS2Zsx4plNmpBh0JObzGsR6sCHJNVxyenpYxqd4vY9cAFV6WEo3F+8VYWQUYgvQUlfpWP+1JGwFW7B1IL8NihPXNcvxHH5Mu2OCABLhkkwE2kiQDXRjI9zjKk1m7z7e+WDvppARLg1hDg6u8CCrmK2LZO5FQcgY9iHMVar/3iQtChiGt0gE2rCAGOEX7f2DFw+0I1iyCEJ6suXYOdxIItLTlq9PzirX5eo6Pa7VDKxKGMO40MEuDtIbN9h+8gr7zM78sowGW1x6yuriV+6qc+SAJcFnohwME3AC72RdRjvwpwHNwi3hKMTh/U3brHCa9SX3xJeaYzpBXg8WumRPy1yCrAPVCAkfEJXrs5zISdnSKnu8eG79bbNlKcoqBDAWe0h75mQex2gt9d4rXgm0Xz1ZYcZHTmMP+sVrHktIvWLy7EuDcQ4e2gjmobkUjcDSTAO4cEeOfIKsBvMH7u537uoPLQsthmthwfGz3x44++/iPKQ3Nw+8DJRLAe5XzadCHmYEJY2wnKuS32ezPKI5NwusEZHFYeaCjsQDZeiXajWEH8wTATAZWvFlbVGJ44ABPzJ/kkhxFxTH5rF0dgaE8SYk8+O8MRiLHfXYkWauGWmx6IYL2/oZxeY/8xP/qG3zn87ulR2FqCzTuvgIc1t8vt5u1tFzxePwzEJvh3FwVsejMOSzcu8u85fo8xqozvaQYKuZ1cHpKbW5BIpmB1fQPuLq/CylqcPd7iIg9fL7D3lctl5V81B4W2z+uBYMAP0YEIDMcGYWJ0BCbHR2B4aBAi4RAEUYSzNhH9sRH4PvF5sa/i51289nK1X3u8PmksOUaAiZkDw1MwNHUEUqlt2Lh7BdbvXoeNrBPWE9hWu23Tiyh3I8oFNs4peTbdnPpqFmIcdLgDUgk1DpujyjtJ9kdKeO1Yfy9vr/K7enNcvymnlvktBv/qzQH9IMH4sz/7s99WHloW2wjwSDg88f7HHv6o8tAcGgnwHBPf+1SA88GNgaJkK74MK7cu82gaChR/MMJfQ3DCq5QIm+WPt7e2wAGtTWy6ArwHix5EWgGexd9tflSukQAX37/05kbdRZgdwO/x0FhlIYnfa/x+L1x5kUdQy0ychQYqCUp4gA1GtTeSm7AeTzCxHYdlJrTXNxKQ2kb/dpZHUtsR2ogQ21xoD0VhbHQYxkdjMDI8BIPRCIRDwWripBFgX8XPi1FwbEf8nPh58XNjPxef1yqIRVA6k4X4RpL/LK2uwfLqOsQTSbb4KbG+HK+82cfERp3+3i8sI8C9YXD4dsd8KRBzlIMEeLvIKMDR/33lypWL3/jGN/5Aecqy2MaCcuTQwbf87q//wyeVh+bQyILCvqjl7RXlkTnoWlB68HsbWlB4iadKhnk9UHDXq8vbqkVF14LSi8/OkNaC0iv/eQMLSiMbEPqnKwsu/T5jZVDQpbaScOvSBShmEvw5z8RpKJW7G1KFfQQ92uihl8naI5IZRW6HrH5xbBvh1W41YbXilWf9ieGMHa3b3/uFZSwowZE9pXL7DVlQOqffFhQcD3Ec/M1/+1uffPHFF59cW1u7EY/Hb2SzrFFtgG1CVLGhofn9GQE3//c2jIAXc2yAqwiQemAyW7cWFX0LSg8+O0PaCDhG7CSJgOuB7Yj+2qUbr3Lxhqh3RKwCiridndyeqHZiK40BrOoOEARGwOFwVu63AE4uaB8Zig5w+8jocKwa1Y5Gwuy1AI9q4/tkAO0naFEZnz3OF1fYvgtXXuCivJDL8j7dSwuSXlR7YWmFW3swqo07DliNpCVrD+tHIgLuCAxTBLxNqhFwT1DeCDiDIuDt0asIuNjhw/EwNhTlP9MTY2w8HIahwQF474+/66G19fXs0tLy0u3bt59X/pnloQh4O1AEfA+tRMD1wAlc76AfRHtYCkIRcOtFwPXYTXab5DYHmVBHTlutclGJrlXKwzlHT9UtceZxOWBgICrtATbdoHf4DU9mNFCMY9uIhFVe5q+FqHY7UAS8OygC3hn7MQIudvkwSdzpdHBbXauVssQY/av/+J998rPnz/8D5WnLQgK8HUiA76FTAa6mmUUFI+fbJT/4QoM1JdTiC6/B6u3LyjvNgwS4cQJcTa9L/AnEII636gokndRuFgLcVS5AKDoDmUQcUptJuLiWg0uZIAyGA3BibhzmgtsQ8rv78nl7RaWEY6XedqeH34i24ZVH2E+vSv1ZRoA7nOAaO608Kw8kwDvDMgK8g79NCG0U1mLeDvjY3O1tvrukN0arKxHZpQoKCfB2IAG+ByMEuEBEz1CQt1JtAa0N+GM2JMDNEeBqzPITi4G83QNs6uEq5sCfT0E+uw3ZjVW4uJqBzMYa3Ew54ErKDdtFfbtINOCCNxwMw7mZIPg9TtM+ryzs+sUrFWMqux61nxfbRkS1xSKom7bpBhLg3SGzAJf5EKMC6xuOtcocJpsAb+eQIHVUm58F4nbzxPB2otrt7Dy+du36jb/183+TBLgs+P3+6E/9xDs/8a6HH/jA3IHReeVpYyEBvgcjBbiaRhYVBDstiu+eRMB17C8CEuDGCHBBp0fCi0HcqANsEBTb4Z04HvoAsJ2Ai+s5uJPIwlqaffeyrrpiuxlzMS/cy4T4uQMh/nnxe47fd7vW206uL8HSzcuQ2axURgpN3wsZNtH2Q2jXgwR4d5AA74wyG2NKeJ4Dw8nmWJm+dxid96Xv8BwutQAX1ZbUu9FOhwN87PlmoLDGsbrbRTcJcInBaPhDD5z9wN/58Ls+rjxlDH0W4Hq/364CXA0KsjBbU2XzZS6s1FtR+PsxAahZImg3kADvnQBXU29HxOjIqYhqu7aWIZHKwJWVFGwlk3BzqwRXUh4mtNXDpPq+NrGv/eEUhfjxcT+cmAi0vQMkI1iGkS+CNG1T3NmWWuCSAO+O3NoV1o/SJMDbRGYB7vG44cSRg5DZSkAqm4NAMNxy7konUe12eP755y/88i//8n3KQ8tiqwj48PDw/P33nXt09sCB+QcfvP/cm970xnOeYnoQt0HRk9g1JMD30AsBjjQSgQLHThJKTIiXspVqAUZBArw/AlxNdGwOyqHxrgdxHxPahcw2ZDZWlaj2DtxJ7MBaugBXt82ufFFfvEcDbm5PQTE+EfXyiLjMJRzbnWBlF7gkwLtD5gh49doxSIDrg2I7x8ZDrCwWCoVhYvYwBAKtWUjqLbqNEtt6kACXDIx6/7ff+RdP4oSFUSQt2hq2HeEJgSt2SHlQCwlwc9ETgThpTs0c2FMrWa+KSjeQAO+/AG/0HdSjXlT75Y1yV/aRXjA+4OGR8YcOVsq59dsvbsQESwK8OygC3jkyX7teC3CtV1tdkamYz/GcDaxoVJNEfaAy7pod1W4HEuCSMTU5ce9//3f/9ILysOGktbJwA7Y3FrlAa4tGAnx7DcqpNv9/7UICXHlUQXx2bOtGVVRwQFm9c1V5pn1IgMstwEPZOGSZSMSodoqJ7ItrO1x039gsw/JO8whOy/RhtKxYVAJVi0olmdGcEo5mTrAkwLtD+gj4+mU+FpEAbw8zBTiKbRTXaq92q+X+MttbcOvKy5CJL/DHwenTkC+7+yK29bCLADdwduovkUh44kPvecsvKg954kBi5Q5f0SEeL1vlKb7K0EDlmGVxrHQ2wwbfwg5/rSEuLzgDQ8qDWvix6EyMmorOQUC9OYzGAc7QiHJfAxtAzPRfC1AAag8CEJ9de9CPuq2xFjEeHiIO+kF20u21U6MDEuggnvoH8RhKncOgRm48Byef/5/wu0+9Ap95MQk/XHfD1UQRFtIO+aLcHQj45c08vLyYgade24T1rQwUtuNQTNzmi0r1EfjtgsJa73Chbo/Mr4vkB93U/H2hMabV5Joai7k0OLCvOXAsHlOelYdyhi3C2TWU8SCe6iFGMl67chHK6Yo91sHGt076BQptPMQGI9p4iNco+5kaH60eYoPVSDBxEiuT4HvV4KJb7zCr9cQWFBw+EIcEFT1h9ovk6bPLy8tLX/7yl/+z8tCy2FaAC9BushVf5hFQjIbiY/WkhffHZg5BaGgC3G4XpDeZoKrHfhXgDpfUAlygbWtEHSnE+7jwwog5UsjttGRHIgEurwAPJhZh8PqP4C2hNLwrEAfn1hIkdvKwVnCA22PeyW39YHkrD8/fScOFO9uQ38myyXENEguXuOUK0TtlVEywyc0tSCRTTGhvwN3lVS60E8ktbivB11s6LbIbrCTAgyPSCXAoZuUVkQwS4B3SpgAXYhsPrxkeisIYE9ni9NzYYJSfnot1trVCG1GPBetMaK+srlcX3cnNFF904+vVcUDiUzpJgEtGPQGuBv3AKNDE0dgY/Rantfn8geaRUhLge5FIgKvRHoOubmuMjmNbi/Jv+FqjhRcJcLkF+NDiK/x+xFWGB8MF+MBAEt7oi0NhcwVe2HZxMeWSTfB1wU6+DFdXd+D711NwY30HNjY2IJxf5d91PAwnU/T0JqrdDiTAu8IyEXBvpK5dr1/ILMBdLieUUhULqVqAC6GNrw9GwjA6wkR2bJAfzz48NAiRcIjbSxpFtdU7XEura7DMBHc8keRjAR461mzRXWKvQ3VxwPqERH12YWFp6Stf+QsS4LLQigBXo7Ut+INh9kWuXA4RKR0YPQAer5dHSTFaqhXghUKBrTj9vP6lx5GH3HaD6LkR6AnwfNZ84W9BAa6mW4sKCXBrCHA1I64SvCmSh781uA6DO2usTZNwPesAr8+449H7BfowcezZ2cnC8kYKXrwZh7WtLJydHeQLyYxzoDdR7XaQXIDjwsWRrYzfMgrwEutj1hDgYRLgbeD2eOD0A2+CMhvfguEoDA5GYWJspBrVHmaim2mbioWEvVeL3g7X0sr6nh2uTrzbaHHbFeBy9dkrVy5f/MY3vvEHykPLsm8FuEDYFlZuXWZCLcFFuNjKRfGNiX0jU4cqkVKvH4KRIQiH/DDFVqJTE+w11knQZ1XcSfH/j6noCvAeRN4tLsAFnVpU1AJcvQU4GA1DNrkMxXwL+QNdQgK8PQGu5nigCI8NZOBjQ3FwbC5CJp+HuzmnJSwqWPceJ9lsNgPp9Db/SaW2+ONcLsdP0iuVijA9FIB75yrBAWd4nN9KheQC3IFWAIkj4Hycw3GeBHjbyCLAcdHsKLK5gv34XSWYnjnAo9tepjMig8MQGRjgFhK9qDbS67wN3ickFeA3b968QQJcIjoV4Gow8omJm2IrF8W4sC3wSCl2knCICfDQnk6S3oyTADcRIwS4mnYsKv5QBGKxGAxFB2Bmary6BYiDZXL1Dv9/mQ0J8M4FeBU2MZ0NFeHHw5vwTt8qbCeW4Rr70/PgrO6I9At1VDvLJtKK0N6ETCbNxXY+n+NCvF4kayYWJAHeBbJHwKvjPAnwtumHANcGajAxcmZyHCJ+N7tWG7C5dA3S8UVwKRLCG9jdmdOLavclb4MEuOnsXWYRHIySXrnwLbj07NfZ/SvKs7tgJ8EV6VqcdY6lVdhIsA6+H2Hi3OqgPQXb+pVnvsLbWiS1IbgDMjo6BtFImItuwh5MeUvw/53OwFfmrsK/Cb8A7yy/DNubqzyabCYooDGqjdHr7W224E9sQDy+BmtrK7Cxsc6j2yi6UXBLYx8hCAtTKrF+hF3JpO6Ex7Bjqb+xkRjMzkzCkYOzcOLIPBw9NFfZJY/hrnnlUJvw0CjMnnwQzr31Q9z2mFxfZnPP03DpB0/AjVu34bVrN+HilRtw5fotWFxe46IbBXcnFhJCfkiANwH9wwtXXoALT34Orl+8ADdv32Ud5Dq8cvlaTSfJgo/X6SasC0aysa1feeYv+aAoPOMCPJAEt/owmQW/BzhY4iKMsDaYuPkPhtbh6dlX4ZfgB3Bv5iIX490ixDZGs7e2NrnQXl9ni3UmtBOJOBfgudwOj3wTBGEOTqcxBfwxqo1ebNwBnRwfgYOz03Dq2CG458QRODQ3w8v+YaBG77h2bcDu2s07sLhZhB1vZVcPdcbm5iZPjiSxvX8gAd4GuFrdTG1zn5UW9AjjITmu8TPgGJjhh/YYjsnROcthYvQdTwK7dfE5vvC6fPkSvHzpKly6egOu31qAlbU4/x7gYFkOjvPtOcIevD+Wg389uQL/Y+ISfCD/LExkb0E2nVRe1Ucvqr22tronqo1Cm6LaBNFbeAS8TcrlUstRbS0otrWBGopqE3rYRoBnMj0wIpcbC2BcHWOnnThwGA6efRiO3P92GJ05rLxKWJUsE0/1Bks8uQxPfqsuvGgXxBagReUXRtPw+xM34DcGXoZ37lxgi7Jlbk8SUe3NzWTdqLbZVhbCWFwOWhjZFSewsRuD4Dq+fhHVHoxGaqLaZ08dbzmqndxKVaPaGKjB3XFtoIbEtrEUbRLIoAi4QZQyG+DLrcJwyFnttOGBKEwfuRfOPfpTMHviAX6ENGEvPB53NVIyf/QUHL/vzXD8dY/B0OShallDwtpwi8r4JkznFmFjbaEa1cbkSIpqEz3FBjk3vWZ05mhl/h0erxvVPjA10TSqLSwkt+8u1US1b91ZpKg20REkwA0Ek/muv/SMbjJfbGIODp5+I5x55Cd48kUgHFVeIaxMdvUquDNLEPKUqpGSQCgCc8fPwamH3g1Hzr2ZdkEIgiB6RLlUhHI+AwPhEI9qY5ng2MQ8HLznDS1HtdUWEm3OF1Yi2XdRbcmqAm1vbZnveOgBJMBNQJvMl1y7q7xSKXGHAvz4g29nP28jcWYDmlVRoV0QYr9TpMigrSl24LM2AnViJJb5O3hgAob9BSjFX4ONq9+D9MpVyKXWlXfXopcYKaLaaguJXs7XfqBYpD5rNiTATQaT+TAqjsl8C1eerx4Ag+DBLyTO7EOzKipiF+TUQ+/iFhWnJ6C80gJN8g8IwjLIdsgNIT1CaKstJMcPz8M9xw9XEyMx0h0OR2D68Gk2p36Ij7VY3/36S99jY/JfwNLNSzWJkdpKZmQhqYXyIsyHBHgPEbXFRaRUjVqcYVS8LXFmNhKIP8xKtxLqKiq3Lj5bs/DCA3/QonL24R8niwqxL3AxAUXYFxcmOhqEXrk/4dVWW0i83r0Hw6ij2tsFD5Qjs+COzvDgCApwdWKkDNDO0P6GRsU+ICKlQpypLSoozjAqTuLMPtjaokJJYUQLkNAg9NBGtTEx8sj8gZbK/emdy6BX7g9FOUHICAnwPiMSN1/89hf4seiZ1G5ugVachaNDfLAaHAjDxOgwH6ymJiU8dtpuGFRSTmtRabQLQom6BEEI+uWxbhuHvqSod4iNNqqNiZE+9j41el7teucyWM1CUmPzoGDGvoMEuCQUC3kuwC89+w3d4+9RnB05/Xo+WB2YnoTRkZhuFjdhDdCi0mgXRCTqil0Qv89XzerHSNHh+Rne/gRB2B+XQac5mgUGisTuHf6p9cr99eMQG8ssXoh9BwlwCVEff68VZ2pwsCoCCXCr06h8pdgFOXbiFMwdmOKTF0aKgoEAuNx7PZAEISOU0NUdMopIdVQ7Nj4DB0+/Ce598E1wz4mjUh1iI/vihWgfuyTL2kaAZ7I9OAmzD9SIs4VrfLBS1yZd2shUTmEMT5pz/D3RM5pZVNSg/xGctVu1ZmG1BFiCIIwFxbaIasfCbiiuX4bS2kUIlhIw4Gcit8FOrNpC0o9DbCgCbj9SKZVX18JQBLwd+ni8NBdn1y/ywUqvNqkzNAKekSMQmj4LscmDyrOEVdFaVNbW1vf4HzOeYXAOHQRHcFj5VwRBEJ0jotrBgK/Gq43l/kRUe/rAQTj3yHth+vA9fLcOgwVY5m/1zmv8hFg6xMYe1CROkz/dFEiAG4SjTvKJ2ThLOzwiIQbJo0ePwOzx+3pXVYNq+poO7oLcXbilGylyeMPgjEyBZ/JeCI4dplryBGFDzLDwqC0keIiN2qt9eH62qVc7MDgJkamTMHzkjZDbyfKAwdWLL0p3iE312tFcRUgGCXCLU9hJw+rVH8GlH3yNWxbw4AEBHX9vb9zFdM2BFMdO3UtVVAiCqEEIbZ/XU5PErT3Epl5SP9pHtImRNVHtrW2KkNoQytswHxLgNkH4h1/89hf3JG6qj7+n2uL2YSe5BNef+yosXXu+aRUVgiDsjzqqPTo8VBPVPsYW6uokbi1qr7ba7oZCW5sYSRBE95AAtyEicRP9w3j8faPa4mRZsD6tVFGh9iaIFpEwmou7WeodrUKhwIW2ttyfOqo9MTZSN6rd6iE2tvFqYzBXwoBusUhR5v0MCXCbg8ffN6otrj7+3usPKq8QVoQO+iEI+4FRbSzzd/zBd8CRs2/kiZFnTx3jQltb7k9Lvai20YfYSF9pRNJKhC6HKp+HPOr7DhLg+4RGtcXF8fenHno3tyzEJmaVVySHBqy6tHvQD0EQ/UdEtUupZSgmbkDUswMHZ8a5dQTBHa1eHmLTKlRrm+glZZtsHJAA34eoLQt6x9/Pnnhw9/j7wRHllQraU87m2A8hN2RRIQi5UHu19Y5mP3nmPpiYnIZMYgku/wB3tJ5i/fgG/7ciqr2R2DT9EJtWsUStbVoj2IbtbaoDTlgctCyI4+/rWRaOnPsxOPWGx3brweqcckZYAyMsKlrhMMC+AwRhdcwUkB6Pu+2j2Su7VKfgyH1vhdnTj3DBfevic3Dh21+qRrXvLC5L49VWWylko6aeNdEyan862WPMwTYCPJvNJpW7+wqj6o83syzU2/YkrEmrFpX5M4/A1PSBusKBFmCEHTDCQiEWpxE2Vqqj2ieOHGz5aHa9Q2wWVjeh5NrNz7FNYmSPcLF2IdrH5aItA7Ohb2Y7lPt3EmYv0VoWsLZ4vWQejMYQ1qaRRWVweAxGxyfrCgeCsAPtRsBRbNeLas8z4d3sEBv1WKr2ast2iI0doAh4h/Tx5O/9Aglwoi7q2uL1knkcLi84Y0fMPw6dBgPTaWZR0RMOeJ/oP5QD1x0ut0e5V4uIag+EQzyqPT0xuudo9kaLU21UW3uIDY6ltjqanawKBNEyJMCNwuYDT6MJwuEJ8OPQXeNnwDEwA95wTHnF/hhlAZINtUXl6muXqtvhe4SDN2r+4otoihVy4GQG8x3OPPI+mD5yFkaGh/cczT53YIpHtWNDgy1FtekQG3mgEx0JWSEBbiUkjAKX2d+kzuQ/fe8DcOrBR6nWtI1IbSXrbofzHRDV4gt8A8orBCEnOGaV8xnIpxPgg2ylmtP0JD8xeHTmaNOj2ffdITZ2gY7Ltw0lm0QcSIAT3VEuwsrFb0F65SoUM4nqhEW1pvcHYot+MBqB6fmjcOTsm+DwA++gxVePIQuKPtqqPbPTE7yS08zYAAz58pBevgwLL38Lkis3anIfkHpRbaMPsWkF8jEThP0gAU50hxJVEIl8L377C7q1xdW1pv0RsizYhcLmIvhyqzDgLVUTzyKRgeri6/iDb6PFVw8gC8ruITb1jmbH72d0IMKDBLGJeTh4+k1sTPoQ+34eYePXTZ6EjPW2b9y6LV1Umyp52JNq8q9NrYxmQXXACUKHYiHftLb4iQfeUj3+vuxwK68QVqVRFZVAeJAO+iEMRRvV1h5i08rR7OpDbFa2nbDjGuSvY+7D5lZvD7FpBYqA2xOnxPXTZWN9fT3x/PPPX/j0pz/9yZdeeulJ5WlLY6uNyyf/5HfMjQOxVapr7B7lQS3lXApKG9eVRybh9IBr9ITyoEI5m4RS8pbyyDzQ46sH+ilLq68oj+qDx9tHR6b4j5ZUYpULt+TaovLMXhzhSXCGak/lLGU2oLx5R3lkHs7oLDj8+naKUvI2awPzF+POoYPg8NYeelOMXwPI126bmwF6u52BylHYWvDI7PL2ivJoFzxBFdsao4tasKzl6p2rvPZ4JtVi+X63H1zDR5UHu4zceA4OPfcnyiNz+cjlAbicC7J2kM/n/sajw/A33nyQ36/XV/tJZXxk31eGc+QEzx1oBbTWBAIBHtn2M0Ht9XjYj1vXm60FxXYuX4DtdJqL7iz7wcd6wroyjt7k952j90h38Eh+cxGcmVWlHxxTnpWH4spLOBkoY4VcSfilrbtQTq8BeELgism1G1fKxKGcZHMYaovx08qzcsD7RIL1iT78bbjIxtr8A5EI3L5948Znz//h+c9//s8/abfzXmyVlfD+dz368YDf61ceGo/DwUTgmPJAQzFnvhBzuPaIUCjsQHnH/O+kMzyu3NNQLrPBjU0MTUChlVi5w7d6EY/Xx5OeEPSLD40d4LYFjIg7oMRL4qlxeCPsZ/cwCqRcyALsbCqPTMTHfrcnoDyopYy/H/8Ok3EwAawVLWW2AIFSXnlkHg7fQP3Pn2MLAJ1FALbfVnyZ74aIiLg/GOG3TiZu0JY0MnWIR8RxsE1vNiln6HSDU6faSjCxCEOLzReARvAn6z5YL3pYO8h3+NB0LAj3zlUWSXX7aj/h42OljR3BkT0CF78DPq+HW0QGo2EYHR6CqfFRGB8b4QmRaG3CqLfHzb4HGjsGCu2dXB7SmSzEN5L8Z2FphXu044kkT5jEiHaBva/MxitdVOOog43xslU3Ku2kwFFgY2KdftBvClvLfLHUaKzoF+XcFhuj2LXDhHHJFgflQqYyh6G2CNfRFn2imMuCA/uEiX9boVCAYMAPPta3h6IDMBwbhInREb6zNcLGgEg4BDPT04Pve++PP/qed777Izv53OB6PJ7Y2mJfOBtgKwH+4Z985z8iAW4O3QpwAVpUUJhhBBQj31h/VwgzJDI4zG0qGDFHhDDTCnCchB3FHSj1YEHcUICSAG8ahW+0+PKw7joQm+CLL6+/0r476RS/rYEEeENmh4NwVmIBHo5EYXxigt8vOoMQDLFFtzLhjg7HYHw0Vp1wg4EAeJkY1wptRIjt5OYWJJIpWFpZg2UmtNGjndxMQSab5a/XFdr1kFyAO4SIlFSAA58DyiTA20RmAQ644DPwb9NbZGO5T+z36kV2vTKfA4PRwYcfftOjH/nIh3/x6pWriavXrn1fedmykABvBxLge2lTgKvBKCkKMxElRTGO0XAEBZpamDnYxDMYG6lZIbuBTcQNbCtGQQK8OwEu0C6+8HFoYHdCRL847oRgbgBGyfH1Qm6n8iIJ8IYckFCAoz0t4PdDOBzknuzYyDhv37HRSpm/RlFtBG0jOzs52Ehuwno8AavrcVhkgltEtVFsN4xqt4PkArwqIikC3jYkwDujm78N+zNGtjtZZGv7/dIqW2SvrtfsZj377LPPXLx48Snln1gWWwnw9c1MdmAgMjExMlgJtRhOuf7k1i8BXiqY/3sZZghwNRglxWQ+ESXVCjMU39oVMv6bfSPA8W9w164trSbA1bRtUUltgTs8uieCMpyNg+e1Z/m/MxuyoNRHHd2KRkLgyicgvXwJStsrEAkFeEKkWFxr0Ua1V9c34O7yKo9qJ5JbvPoIvo5i2zRIgHfHdsURQAK8PawuwEW/RzE9MoxCW7GOjQ63bB1r1u/1cja++93vPXnpEglwqbh249b3v/KN7/znr37rucc3trLZ+08feUh5yTCkE+C9+L0M7tvUm5QMEuACESXVE2YCsULe3NyETMJ8K5gUAtwftZUAV9OSRWX2KC8vh5Uv1BEU18pNcF3+AX+v2ZAFZXfCxehWbCjKf6YnxviEK9oGEyajsTG+e4Vtibsdi9derrZv2RWoiWoLC4mIauOhT4ZEtduBBHhXlCUW4IVMEhwoJkmAtwUmPQd9LtjJbPO/Tb3IxgDIxNhINaodG4w2tY5hjoZR/Z4EuIT4/f7o4UOHHnrkkYfffd8DrzsRHpnOHj1+kkfDdX2lHbBvBXhotCcCXI0QZlghpegMwOrGVs0KOVtQdiSENaOo2BUMhgS4uQJc0MyiogUHdVi8ThFwRtWCwvpoXZtcm6gn3HAoAFNcaFcmXDx4CSdcjG7Vm3AxepUrudj3Z4iJbh9kk0u8fRM5N6SzuWpUu+diWw8S4F0hswAvZTdJgLeJk/09sdgwzBw8DgOjB2A4hsGPKIyxhbYIgLSbEK3dzeqm33/ta197/JoNPOC2KkP45f/+qY2jp+4f1Ct9htFUFHIrCzfBUdY/VrsV6pbjy2egFK+teW04emUIe1H+kOEcPbWncgHSahnCbtErQ6jG43GDx1kGTz4JqY1lbnEwioZl+HpVhlCnFKLMZQiNhJewZJOANzTIBvDaknKh5Stw8unPKO80F5nLEL7hyDD83I8dZI1Vv1RqI4S1S5T7c7EJOMwm2lbASRfbBCfXSrsw4a0p91fIboEjWRmn2ilD2CtkL0Mocyk9pLj8Ar+VsgwhjtEYrGCLA9fQvPKsHBRS6+BILTBhgXP7SeXZ3oECGst6+tlCO77wGl8QxIbHITY+A+GhUeVd+mC/F2U+cznlVtPvzeLXfu3XPv7EE0/8tvLQstgqAv6h97ztHxXSG349+4JI6pucP850bIB98TqLiteNgKMXOxNXHpjHnuiWjSPgavTKEDpLOzAU8sLBgwe5PSE2NMQ9w7gAwzrUmNTZtLxdC1AEvDcR8HrwnZD4KiR23HtKyuVCQ7B05GHIscWpI5cF/86W8q+MxxIWFIykNYiAq6Pa6nJ/2koEXu9egSyiW6lUmh9kIzybrUS3HOx72qgMYd+xSgRcwiguIiLgTv/QnnGq31THaLePXbvKgUuyUMplKhVuWH9wsjnWTNR9PzoQgokx9GpXdrTwuYmZeS7GM6mNGssY5uSUHS6+yG5kIenlbtZTTz31FTtEwG0lwNVVUNT2hTJbkaEYQz8pEhqoVFsYmjzERlsne72wW22hCX0V4HqT6z4W4KWdbdheusza+TZ/rK0trq6ignaGTqPiJMD7K8A5Dbbeyy4PZIdnIDd1CLxhLxQzKfDsZJRXjUNmAX5sbgped/IA5NjnFmMECml1fV2sRDA8NFCzjdzMs7mZSrFJNgkrq+vVCXcztd22Z7MyTpEA7xSrCHCHf5AEeDvg2JlLGSrAG9XWVudp6FlIvMEIBAYnIDw6B6ktpqEWr8L68h2I73gMtZB0CwlwCdErQ4jiG48XXr97fY+v1M2+gAOxMV5todWIKQlwDX0U4GLSbOYdxioq6triuPOB34tWkVaA4+82yfeuRmYBPnfpa3D81hPwvRdehqcur8HnbwH8YXwcfj8zD8ulilA+4DJGjMsqwMNBP9x36hi8+52Pse/4ARgYGNCNauOEi2OemmaeTe2OQ6cU8zvg2KmMU47QuHQCVy3AnZFJfisTJMA7R2YBXsY27UKA6+1otVNbG/s+ViHRW2QXWZ/g/vQeROfbhQS4hDSrA64tfaauO62NmCJ6FhUS4Bp6JcA96L2tPYpdPWkKGrWxsCGNzx5v2MZapBXgeAjRPhfgY5e/C4Hbr8Ep2IRUOg0bZS9cSWNkxwXXimF4Oj8G/ys7A5tl9j1wlGDc2fn1kkGA4+dys+/0u+8dh0fvGYOfftv98P/66R+Ht77xfv46fscbRbXFhGvoITYtUGNBkTDCXCPA643xfYQEeOfYRYBjnzaqtra2pr7eIru4k+6ZPaZdSIBLyHve+sgvDkZDLfUwtKg0qjuNFhW9iKne4MwTAF0OyG+ZLET3dQQ81JIAV6NtY38wzAUMItoYF1wo0rOZDFtD6YszEuDyCvDh2y9AIMW+f6x/HnVl4FH3CnwwugYO1i6bTg8T3n4oghMuFgfgidwEfC8/DDn2+KSbTSxt0ksB7mB9HaPVfq8XfP4ABNl3NxyOQCgUhgCbaO9ulWEw5IOgMweu7cU9Oz/NJtxeezZrLCgkwNuGBHjnyCzAUTcU0/EakSui2qLUpxm1tbHvN8UEe4xRkACXkA+++60fb1WAC4R9oVHipjpiih1Ym8CECYBBn5vbXExFQgGOz5ldBQPpRIALRBuv3LrMRHmCi3B1bXEULWMzqkNfNDYkEuAWEOAqvKUC3OdLw/t8y/B63yq4y3l4YYsJWo+fR8ifK8Tgv2Xn2raomCXAUWx7PF4urIPBIPsJcaGNt16fn7+GW8j4PjULiRz86FYKnruxCb5SGgLFJCzdvATrO57OJlwTqbWgkABvFxLgncPH6CIbo1m/lU2ADw2PwtEzD3J9ER4YrKmtLUp99qq2tpZu7TFm8uSTT37l+vXrJMBlohMBrqZR4qaImGoPAhEdo5DL7ksBjsguwNXgboY4/r5YyHExLiwq1UNfNDYktQDVJrbltzcgl2k/mtouJMBbF+Bqhh15eL0nCR+NrUMMNtk1dMOtLJtQWLsLi8rjO9NMmDe3qHQrwEVUm5f9CgQhxH7CkQEe2UbxjZVH8HU9sY3k83k+6WazGUint/nP9nYKNjZTEPG74dRMFH8JOIJyTZYIWVC6gwR451SDJH0W4OVinv0dGXDmUxAN+eHA7BwbA/ysz7uYvqgcZNMoqq3e0TKjtrYWmQX4l7/85f9x586d55WHloUEuA6NEjfVqLd7NpNJyGyYfCw6CXDlkUIHAlwNRrrRopJcu8vbvJ4NycuE+ejoqG5iW2pjiS/czIYEeGcCvEoDi0peZVF5OjcChToWlXYEuBDbPp+fiWsmtkPhalQbLSU8qs1e1xPaWEcXKxns7GSZ2M5yoZ1KbUImk+biO5/P8bFHXW93fjRUFeB7xggJkD0CXsxlwZEjAd4plrGgsL/PbFBAo4Uk4PfBcGzXQjI5MQ4hH+vzTISv374IiaXrXJTzIFCgEgRSawphIVlaWd+zo9UL65jMAhwP4iEBLhlGCXA12qS+bMnNVqBJ3e2eApYAK5tYFo4EuPJIoUsBLsASlI1sSKFwpO42IIp3EuAWEOAqGllUNhtYVPQEuBDaLpe7aiHBiHYlqh1kAtzHxLanblQbRTRGtrVRbRTbuVyOCfE8e09z+4jsArxUyEktwB2sH8kcAefHqRfZ95AEeNuYKcCF2EZbqjgpctdCMrBnpxyF9sDwBEwcPMWGNA+s3r0B6wtXIL66CIkdl6EWkm4hAW4+co2CkoPR0uXVOC/Rg1nD6ggUnuzmHTkMzpHj4GBCoVA0/zQojsNWa6i+g218/aVn4JVnvsIFOXrGEYxMYGLbWnwD7i6twrWbd+DlS1dhY7MH4pMwjWOONPxS8CZ8c+5l+N+DL8MbAnFuTUIwIv7Pt++Bn0w8DP85cwgmhkfB5w9xYY0COzY4BMPsuVhsBIaGYjzCjRFvvZJfQmhnMhnY2tqEjY04rK4uw9raCiQScS66c2whiJHvfk24ZuKCHo2HHVIsyX3NXS55p+pir+a6Dimq5uluwB1PrJ+NOV+zM5Nw/PA83HP8MBw9NAdTE6N8ZxSj3tr+L+aO5FaqZu5Y2ixCyVs53ZgH9zSaot/I3ifsAAlwg3F5/BAcmYepe94CE4fO8sQ+wnrgzgcK8EvPfgMuX3wFLl65AVeu34LF5TUeocCtQBws+aEiGJl1epR/SViSfAHe412HT/hegs9NXoCfcb0KB1yVxVeOycfHd2bgkmsaBkemIRIZ4FYSt9enuyuC3wuMXqOoTiQ2IB5n35n1VSa615n4TvLoNtpI7Ci0CXOQXeTaCezTKLYx3wsPrzk4Ow2njh3iQvvQ3AyvRhKNhHlkW4s2UPPatZvVuePWncWauYO/X4hcCQNpLqeyY0dBPtMgAW4Q5WIOoq4MHJ2bqK6IJ2aPwMHTb4Qzj/wET+zDRAvCemTSqbqRCdz5cEamwDV6ApxDBwF8A8orhFUJ57PwscgqfDryAvx29Fn4Ce9NyKb32ozwO4FRbfRqY1QbxfZ+imoTBOJ0yP3dFn+fQ0dIothWR7WPHJyFE0fmq3P4SGyI5/vo7Wqh0EaryPLqOty8fZeL7VcuX6sJ1DSLarskvnYUATcfEuAGEr97BV555i/hyoWneSUVAfqIUYAff/DtcOTcm2F05rDyioUo97eMmaxgHVccwDFSMnfoKJx64C1w7tGfgtkTD/DTVQlrIywqTx68CN61VyG1iVHszZqodjKZUDzbOyS0LYrTIXeEWWahJjsYBMPxeGBoBAbCIT5WTzNxjVFttJCoo9qNLCRa+yEK7eu3Fng1EmFLtRP0nTMfWwnwje1t87MRWwArqCxceQEuPPk5uHXxWV5JRRAeHIXpI/d2JtLKtA0pGzuJBShtXANPKVOzLYlH3x8592Nw6qF3WXPBRdRQxhKAhTxsMwGOYpui2gQhJ+VSkfXXTNVCEg4G2Hg8DwePn4W5A1M8qh1jr+lFtdViW0S169kPif5hl7GXIuAmg0l9Vy58iyf1qaPiCIk0i9CkCgUuuDBxExdcC1eer1lwYY1x9YKLcgIIgrAtzt76hfEUarWF5OCBCYi6s1CKvwbrV74HO/FbkNmKK++uRWshuXjleo2FRK/YAiEH6XRaimBrt5AA7xGY1KeOimP5OgGJtA7p8WDfCqt3rjZccFFOgHWJuJU7BEH0FJEYGQkFaxIjTxw5WGMhwepEc8fPsbn0Q2xOPcuri1z50dPwyvf+ApbuXG9oIcGSfwTRS0iA9wF1qTsUaaL2NEIizR40WnCpcwKOP/g2+Xc/WqhDvR/YovmZ6DcSBh2MRl2FZGZyvCYxcp4J70aJkWghEVHtrbwXCsFpcAUH+Xi8zAQ4WUgImSAB3keESBOJm/VEmjZxUz1AYeF/Qm7EguvFb3+hprY4gidu0u4HQRD7EaNra6OFRJsYaVQdcIIwGhLgktDIR6xO3Dw8P1MzQEUjlSNsCfnBJD5RW1xbKQcRux8iJ8BZ5/RJqdhHNWLJgkIQndHL2tqEweyDXZd+QQK8XXpQjk/4iC89+/U9Ig2PtpUOyY6VtgLaSjl6OQFnH/7x6u6H0+XaU68Ws/uJ3kEWFILYi8vtYWPUETZuBfnjbmpr53L5PbW1tVVI2k2MJGHeGTIf/mSXAlSknIzChEhgJpXcI9JE5jZGAnCAurm0AY6BGToAxsI0ygkQux+nz96nU692H3Vf8qEThFSIqPZApBIwOPXQj8M999zTVm3tjcRmjYXk0tUbeywk3Qpo/DtlpSpyKcrcFg7lkE6rQwLcIgiRJjK3MRIgMredgSFwDc5BeegYOEJjAG6/8q9sxD44CEibExBfuqm8shecwOiI4N5CFhRiv6K2kER8bKxavQSOxFUY9OZgaiymvKuSu6RFbSG5fXepJqp9Z3HZdAsJ//9KKthkPuxG5r+NyhASUoCHDojtvkOH5uHYmdfBuUfeY90TNwkOWlRuXXxud/cjEd9z5HHKOQTO6Oy+3v0oeG242CSIPqKtrY0WkiPzB6oWkvlDR+HM698KsfEZHiTA5PIrF56q2aGtV1s7kdzqeW1tJ9CBWYSc2EqAs45vi1VRW5SLsHn9r6CQvANeR4Fv9yFdnbhJSAXufty8fk33yGOHP8p3PzyT90JwZB4Ckd1oFGEs5AEn7ISIag9GIw1ra+Oc4mPvU+Py+CE6cRiGDz0AwclTShGB78Frl16Rt7Y22TwIyaAIuE3AxE2srqGXuEknbtoTDxT4xCmSnI6dvh+OP/CoNWqLWxCyoBBWRW0h0dbWPjA10XJtbb3EyGy+d9HsjsEgOAXCCckgAW4x0HLSCL3ETQGduGldyuW9k1w2sQCLr3wb4ncuQi6zpTxLtcUJomNsUNEJhXY3tbXVSf71amtTZRGC6B4S4DZGW12jWNi1LqhrTg9NHqqWkKoLVaGQEqwt3mz3g05WNQayoBD9Qq/fqqPa3dbWxiokIqqtTvInoU0Q5kECfB8gqmu8+O0v6kbF546fY0L83Txxc2D0gPIKYTUa7X40OlmVaA2yoBD9IjZ1mC2i3wfjM4dMqa1tWBUSqsxkP6hNTYME+D6j0bHomLh56J7XcevC+MEzDRM3RfQFtzr1Bn2iv6h3P/TamSwqBCEfOK6W8xkoZ5PgyKxC1F/mUe2R2CBfRE8eOCxFbW3C/sh8hH/ZJifxkABvF5tYMZodiz45d7QmcdPPBnyx1Tk7NV6NvuBWJyEvuPvRzvH3Ta1I+xiyoBBGorWQzE5P8HH17NmzMDM5AiEvW0jffBEu/eCrrA+/UrOI1lpIel1b23LIfnCLhFFmF/t+EuZCV5jYcyx6KrGqvLKbuHns2PHqVmc0OkBRbwvSSjsLK1JoaEJ5ZS9COGD5MjwFb79AFhSiU/Rqa2stJNGBSHVcjU3Ms4Xxm+Dcox+C8MgBWF24znM8rrz8XPUcALWFhKLa1kTmKLPMh99lMhk6iIewH2hduHLhW7qJmwJt9AUf71ss6o9r1M5oUTl6L07+ikVlcAgGB8IwMTq8p3wZ+k4JwuqUSsZsaasXp81qa9ezkKgTI9FCksz7oOis1OFObcZrzgEg2kDCKLjMp00S5kMC3CAcNivyr03cXF5ZqZvAU3TtnyioTDgMKJmmbme0qCRX71bq5So/sfE5mD98gontSRgdjkHAx4QDftdV79kvkAXFvjid7asztYWE19aeZ4vTw2xxepAtTicnYGRoCMLB4N7+wn6E2O5JYiRBEFJiKwGe3Nrefydh9iACi9HS5aWlugk83uF5cI2fAUd4EsDTQzFO2dmGwk+ze/kZuPDU55gof77GoiKoidItr8JGclN5xf6QBcW+NIuAi4RzbiGZnoSDM1Nwz7HDXGxPjY/CUFS/tjaC/SWVTsPyGhPbd+7Cxau7x7NTYqT5FLFtxeKHICSCIuCEIWA0KBibgrHD98P0yTfC6LSNytxJ7IUzi9WFq3Dl+YpF5e7CLS4cXrt+k4mHG3Dlxi1YXFG8p0UHgNuv/Cuiv5DC6BTc6Zk9jhWBpnYTI8cUC8nRQ1xoH5qdgfGRioUkHN4baNAuTq/dugMvX2b9iPUXaY9n3we4QFnY0FH0hGSQACe6xptbh5nhcDUaNDo2WSlz95afqkxqw1TmzqrkdtKwurRQN0rn8IbBNXwUnLEj4AgOK8/aE2tYUEiEtwqeKiyi2oPRgUri46k3VMcxXlsbLSQ6UW0U2+qott7i1AwLiYN2/QjCNpAAJ7omk1yF6y99p5rQp6Za5u4N7+JRca+PkvbsiDcYgcj4YZi85y1s8XXOlosusqAYQ6/zZYRX2+f18Kg2Wkhi3h0orb4Mm9e/Dztr18FVTCvvrkVEtZNbqZqo9iuv0fHsgmKRrDN2xm75bTJBApwwDIyWLlx9gXuI9U7crJa5u/fNFBW3CY58CkYDJThx+GB1i350+lB10TUxdxICITr+fr/Dfbg9QJ0YKSwkIjHy2KH5Srm/SBimD52Gc2/5EN+hwwpAV55/Gl555i9g9c5rVQuJOqp9a2GREiMJQhJscg4PCXDLYRE/cnz5Fk/oq3fiJgo0tKhMHz4LnsCA8koDbHIAkt0o5rKsfV+uu+iqHn/PFl1WzwugKiid4+qgykgzamprT0/WVCFpZiHJ5fPcQpJ3R8A5OA++odlKAOHaS7v5DZQYSexjZNnZWFlZSTz99NNP/uZv/uYnfumXfukDH/7wh89tbMRvKC9bGhLghKkUi3lYuvkqXHpO/yTG0ZkjcM/r3wHHH3ibvRI39yFi0SWsSLnstvKK6vh7JS/AH7GeX5wsKJ3TTQS8pra2KjFSvevS9Hj25GaNhUR7PDsKcqIzqJa1PXH2uF1FP8dFNfbz6YlR3s9PnzwGr7788pM/+MEPHn/hhRc+f/fu3eez2WxS+WeWxlbmnodff99Hjs1Pn1AemoLDHwWHq3Iogpby9opyzzwcwZFaT1a5DOX03nJxRtPwc6fX2H+ar5YxwrS1scwFOYozl9vDo6SIx+uHgdgEj5iK49B3Mil+izjcfv431FAqQDkTVx6Yh8Mb4smGepRzTGTmd4WmWTh8A+DwBJRHFco7mwCFrPLIPBzeCPvR9+6X82nWsLvthOCiC9sZK6lgKUNsZ38worwKEAgPwsjkPMQmZvnj7dQWOESlgno4XOAMjSgPdhm6+wqEkovKIxNxOOBP132wXnCzP8WnPCkP86MhODXD+gf7O52hMeVZeSjls+DIVeZMZ3ic3+qBkzB6tfFUyOGhKIwxcT0+EqtaR4KBAHg9Hv4+LSi2d3J5SG5uwXoiycT1OiwzgY3RbBTZmWyWVyAp6+xfV7/Hkl6/cjbBPuAOGwcDe8fBfqMahx2BYdY/PPy+LJQz6/xvxDG83jjeLwrpBDiwXdn4Klu7Vr9zbN4x+m9T93M85G10eAgmR0d4P8eSntjPA34/f184FPK/58ff9egv/eIv/OKb3vj6DyS3Uv7XXrvyfeV/ZWlIgLeJIzC0PwV4o8/dogBXk9lO8ohpfOkmfxwaiPFbBAXa0NiBqkAr5HagxAQYDgLqjhv0uWE7vmt5MAsS4O0JcDW46Eqs3tFddLncXr7ompw7DuHBESgW8jWLrhokEODnl32wVSIB3gk4obqgwPpypirAeWIk+8EJFz3beNATWkfwfiQc4hFtj9utK7Yxqr2Ty/HI9no8AUura/xQmzgT3qntNLePFJgg1xPbepAA7wIS4B1TyiQrAtwEkdstRglw7L/BgL+mn4tFNfbzeotqsaBOZ7K8X6/GN8DjD0488sgj73788cfP2yEKbisBvrW9ky07nH4zRTgJ8L10IsAFIloqBBoioqVCoKFNJRyJwsjIaE3HdTvLsL54nb/XTEiAdy7A1TRadKEox0UX7oCgSMcScSjeq0ggwL+wQRHwTsCJNRAIwZHjZ3hVpIGBAZgaq3i0cVJGnzaKcRTbWtRR7cRmik/CaCXBqHYiucWTIvH1br3aJMC7QC3A2bWTrWqGzAIcTIwyd0snAnzPojo2CFMTY3v6eT2xLfo5X1Aru1dYgUi7e/VHf/RHnyQBLhkrq2uXvvtXF/74f/z51z+5lkxn/YHA4MTI4ITysiE0FaIm1+G1mwBXgwINo6Uo0DAailYUFOGI1x/Y03ELuSwJcAsJcEGjRReCwhyFmtgBSW9tsD9iV4Djd6C6fbnwMnjX7/DnTYUJM7KgNAfbBqNdOxsLUGLjQshThkkmtscnKlWPsD83spCk2UQrotqr6/HqJIxR7UYWkm4hAd4FagGunZ8kQGYBblSU2Qwa/W01Y7BiIdFdVLO+rqWVft5s98ouAtz41PQ+4vf7o3Ozs+de9+CDj9537t5zR48cnL//zMlzWJkB/ahG4Bw6WLcTF1deZt/a7oVoI5wjx2uEMEYKS6uvKI/Mo+HnXr3IBjhzkpjC0RF+Oh1GwbHjZnZ2eNQrm92BXG4H0uu32AKADbAmglGder7VUmq5NzsfAzPgZIsgNaXk7cogaTKO8GRV/Gopba9BOdV9BNrl8vA2jo5McguSFl5dhS1CULx5Pe5qsp3nC/8e3C88ye+bCptw/rfLA3Ap62f9oIWqPT3m0VNj8NceOsAaywmusdPKs+aBE7Boh4FwiE+04WCgJgkyvnSDt1tyfZHX/8f2HZ05yvtxjglpTHzEvpznFUn6W96vtL1a+R736Pq1Sz5+DZz5FBNCQ+CMsnaWiHKetV38NX7fOXKibqCmX+RWL4ELhSQbwxvlH/SD4sYNgJ1NHuCSrV0nhqOQSy5CPJkCf2wGQkxUoy3M7/PVjMGNQKtYkWkUMWcb1c/f//73z29sbFS2Ui2MrQT43/3YR37/7/6tn/0oRs+w6oIWjKziTyqJkerOIAG+FzMFuMDhH2w4QJUyG5WIMP4YDAlw8wW4Gqwbjn0YBVszSIBXMFOAC7GNEzDe+tkkHGCTcCsTMIrt1FYSbl3+ERQzle+qZ/KcdOX9SIB3juwCvLh+me8UOkIkwJtRLuYhHBnglUgwko0Bj1YQi+rtdJrfZnd2uPg2q5+/733vm08kEpYX4Hv3AS0OekyvPP+tuqcyHjn3Y1TyzkagOMCtrtGpgzBz7AE4eO+jvG3LDqoZZ1XQilTvQCe+C8IGdnFYCkZWCOMwora29nj2W0vrUPLsLt5lE9+EzRFnSLDFFVFBzJuitOdELAzhYhxKq69CfuUiOLPxuuJbPQar+zkeWCVq6OO4bGY/z2Z7EHnqAbaLgH/4vT/2UeVhldj4LLcx4I8WjIiLbdJWkC0CjhSXX1TumYeMEXCMvAx6cnXbFtuVt2+LbVsPioD3NgKuhzcYBc/IEV7dQsvIjed4MubQook7QTaLgIuotohmtxvVVke5Wol2lTJxKG9WvPqu8bP8ViaqEXCnB1yjJ5Vn5aEYv8pzTSgC3j5FJipxfqqMY3t3xvtJLyLg2h0scety7V2Q5LLpqibKpJLcEhibPgrZorNi+2SLbL0xuNc89thjg5SEKRmvu+/0B04fmzunPKyiTu5DW7/byyYaJbkP/aaDqpJ3POGrAQ2TEdkgzv5beWASekkuPRGAjT63QUmYjahXBzy9dr3atohH1baY2KeurIFJm4X8Dn+tHSgJ09gkzE7AU9lKvtoFiCA9OAXxA/fCxoEzEMglwZ1Lg7Ng8ILQwkmYOAH3o7a2mnIhU7WHyWYDQHaTMDHZVy6RhpQzbF5CEUlJmG0j5qfKOFYpgSoLRidhYh/eLfkX5cmRu5XDgvw1j5t9xzUn04p+ntnJQ97hgzJb6O1srcNOCquQbEO66OavY3KkDPzhH/7hvy4UCu1P5pKxLwS4QFRfWFu4WrfkXb2DYAQkwPdSzuLkYO453c0O4ml2+AtW1hiZOsRX9DhINVtoqSEB3n8BXhFGe6PwkfgNmEu+BLHl56G4dAX+atMN3y6OwR9vjEKq7IaT7i3lnV0iuQB/3X33wjve/DAUSg7whgarZcBi7HZmcpzfb7e2NlYnwC3lTmtrqyEB3h0kwDtHZgFeTMfBUcq1LcDFohqj2GPDMYgNDvCTI8dHh5UqJIEWSv6lIMEW1kuruKjeYIvqpLKo3qksqvnigH3nPEE2/+zOpTJgFwG+LywojXA2qL6AIn3p1muQii9BXqlJ7IzO7uko+AXHLZ3t2z/iHd1MnLEje4RY3y0o66+ZLgTrWVBK8Vqfvxb0g6M9pV5Sbiv2I7Kg9N+CUrEG7C3vP/3KEzD96tfhqmsQntgZhz/dHGH9sVYAPOZdYj/LcNbdxY4l6+MyWVACXhfEwl5404P3weTIENx34iAcndtrw9JDWEh6lTCFkAWlO2S2oBR22N+VqFQZIwtKe+TXleRatnBxDuj3X6EvMDcDd6oqdjFvy3axDFs4VyuH5fO8z7fS1/l3LsfatsHf1i/IgiIhzSLgepSZYN5OrvF60hg5xfrT4oAQjIpHh5WDYJST+goOL/iDYb6dG9Ns567efo3//8zEEYixAa42OaLvEXCMfvQ5Al4PjHRjYm6CCW0cdIKaEzfV9qNsOqXbfhQBlzcCPrB6DQbWrkOsnIUHnevwc6EFGPcW2NudcDvv5++5VgzD13IT7KeyiDrgSoPX0WYUt48RcAf73R4PG3fweOZgEGLRCLzt9AS87/4pODFchqPTwzA8GKnZ8RHgBNyv2tpqKALeHTJHwEsYJcVdUIa0EXA29mMUV7YIeDTsh0JmC8ouNr+xvw/Ftpv9jAwP6VhI8NRIv65dTES1d0+NTMDd5TVYWd+oObCqrdNh8TtHEXBTsVUE/Gd/+id/6+98+F0fVx52xdD4LK+aohc5rceL3/4CH4zMhCLgu5SLOSitXVIetQ62bbOk3E1VVJwi4PJHwPVYLHvhc6lx+L5zGlbytYtHjIq/0bMOb2I/LdGDCDgKbafLBW4U3F4vON0eLry1k62auWEfnBj3w0OHKn1zdPoIuAdnDK25awQUAe+OagQco5ERuaKRZbZwKW1c4/eljYCjkIzIFQFHi8jk+Ci3i2CpTqfby/MxmrG7g5XhEW20hpmxg0URcPOxVQT87D0n3n3/6SMPKQ+7IrudhI3lW1yMldkXW31sthq+xZPNslXmJmyt3GDPmOwBpwj4LmW2mu/gEB5s23qJmxgVx8TNoclD7Jc62YKqAEVw88UHDpjqY3bx1gN5voNiNg4PRuFro9AUAd+NgOsRcRTh9b5N+KD3Dpxht1Au82g4grdP5cfgv2bnIFV2wZAzBzFng8WzwRFwFNsut5t9p/zg8/shGAxDKBxhtyHwBYL8O+lmr+P7tOBEWyygdSQLKxspePFmHNI7eTg5PQDpVAIyjgiPdpkd1W4H2SPg3EaRt0AEXMJoJBRzlTwghrQRcPSA9ykCjgto9GsHvE7Ixu+AY2cDRgfDMDd/mEezES8bB+qfGrkDG8ktZQdro+rXruxgKX5tE/p6NQLOr5t+8K1ffOYzn/m/lLuWhgR4E7BqBib3LSvHZpecXkhsbvMamIvLq3xLV2zxoCcZM5rNpG8CHC0QTATrYTUBLsDdCpGUq03cRPEzMDTGEzeDkUGYmhjn24AourGMEwpxr9fLSzXh/8Ns9EQwCfDGAlzNhCPLo90/G1mACX8RtkpOWClWhPTF4gB8OTcF380PQw6c+ombXQhwF/u3bpWFBEV2MBTmt16fj0e50c9ZT2zjSZHZbAYy6W1I4892CjKZNORzOSgU8uw9RTg0GoKTEhxFXw/ZBbijYBELCgnwtumlABdiOzoQhmgkBBNjI1ULyeDgIMSGR8DJ/pbk2gLcuXyBzR8J9m9cfN6pJEHnq2KbJ0eu7uqLdi0k3VIV4Ex8yybAf//3f//XlLuWhgR4G2DkdGunDBmmNfVWnU7/II8Uc1CMm0DfBDgTv/0U4ODy8utbQ5cCXA0m2WJUHBdaxUIOPF4//0F8TCTp2QBw+28rsQbpXkTASYB3JcCrMEF7qJyEd3qW4LHQOpQdZXhpG2viemCj7IXnCjEeFV8uVUT2AZfSj1sQ4CKq7fViXe0Aj2qHMarNflB844INF3ZoM9GKbRHVzjNBnWXiGoV2KrXJb3eY+M7nczwahrtxesw1KEMoAxQB7w4S4J1jlgDHQ6uwqlBlR7Ti18bDqvA++rUxaVJbhQR3WgORGIRHZgDYuLqxdAMSy7dgeWUVNjLlGrHdb/tYIRVniwUS4GZS31xIdATaNNzRGRg4+HoYnTsNA8OTyiuEVcCI+OXnvgGXnv06P021YjOqnPyFux7Xb92BVy6z91y9wSMVtoctdOzIeDEFf9d7Bb4+9gP4uPdFeINrdycDkzb/n+174Oc3X88F+bViCAa8u8JCiO1AIMgm2zAMDQ1DbHgUYrERGBiIVqLb6OPWWbjhxFpgizcusrc2IR5fg/g6m4A31mEzmahEt5nglslCQhAtwRYwslEsddePsA+j/TDIxDaeGnlwdhpOHT3IT4g9xO5jhBvr6aMY17I7dyTg9uIyvHb9Fly8ehOu3LgNiXSBB5ZkxeWQI3/EzpAAN5CwKweHD0zAqWOHWSedgan5Y3Dw9Bvh5BveBSPTh3nJQ8I64I7H3asvwMs//DZcvXELlnSO2cWoLCZIgk++0xGJ1nl3cAN+LXIJ/lf0O/D/Dl+HeV+lss1yyc8F+N9L3gc3B+6BwZFpLrZHRse52A5HBnhVJHedg2xQaOdyOdjeTkEyscHF9vraChfb26ktLrYx8t2t2HbZKp2eIPqDENsYxUaxfWT+ABPac3D04CwcZvdHYoM8aVKvBCDuiGLiM1YZunlnkYvtV167zsU21tPH6DYmTPY7sk3IAwlwA0kuXYPLz34Nrlx4midvCrz+EEwfuRfOPPI+OHD8AYqK2wysTuIanAPn6ClwD0yAq45dg5AfTNz8Kfdt+E+B5+A/DL8AHwwvc0uSAPsyim0t2qh2YiMOa6vLXGgnE3Hu287ldrjYNoMiBcsJQpdqJFdjjUGxjTaRsZEYzE5P1IhttJKg2MaotlZsi6g2lva8u7wK124twMuXr8GlqzfhOru/wgQ4Hmgjw5HthNyQADcBrIpx4+VneFnCpRuv8kQLAZY2PHj6ITj98E/A+NwJ8IcMqOnqoGbsF+VibncAPzQPJ86+Hk6/8V1w+N5H+K4HYV0OFxPwC+5L8LWxv4J/ELoI3lyl6pVabIuotrCQiKg2WUishavduvCEZTjz8Ptg9sQDEI0OwTCeGMnENVpI7jl2aI+FpJ7YRgsJim21heTO4gqvRqLeESWIdiDlZiJYZQOT+tBPjFHx1TuvsWcrAz1W3MBj748/+DYu1kJDE/x5wlqUs5uwfPG7kF6/DVDIVAdwrB8/feQs3PuWD8KB4/dDKKpfR5uwAGxyfZdnBUKbN2HlzuUaC4mIavdbbJMFhSAw17LIq5E5dpK8Agn6tTHpeWhiDuYOHYXJiTEYGory57DHqn9QbGstJEJso4UExbbRFpKi2LqSLHFVZopF+yx2SID3CIyK3736Ijz/1J/BrYvP8bJ3AhRrR86+kYu1qcNnwBMgP7GVqCy0LrKF1jfh0rPf4ImbanDX48i5N8PJN7yTouKEKZAFxd50m0hoR4RfW+xAokf7yNwUxAIlKCRuwsKL34D1Wy/X2EEREdXGyDXaRVBsv3L5Gvdray0kFNmWj0RiwzaVD2wlwFPptOkNY8RR83jAz9Xnvw2vPPOXe8QaHnt/6vVvh2MPvFVfrNm0IoVdqCRu7i609uYC7EbFu84FoKgJQewLXE55tzh6sThAoa32ax87PAenjh2CIwdn+XMDioUkEIrwfKt73/JTPN8Kd6huvPQMm2u/AncXbnOBjV7tqzcq91FsbzGx3S+hbYlKI2RxNQ26sn0Ea0/XE2t4ImMjC4NY/WO9USzkT8gHLrRuvPz96kJLncy3mwvwXuNyAYh9C1lQ7I3MEXAjFwfVeS0UqFpITh49yIU23hdiW5wgqUZEtkVUO55xQM4/if9TyGfTsLaySH5tQipIgEuCVqypUVsYRkfH+Fbb8cPsOTYozc1IUFFFwtqvMiEWWi9950t7Flp4MIM6F8ByFhVa/EkBWVCIftHp4kBd8m96UjOvHZjmVUgw6q1X8k9rIbl09Qa8+tp1HtkWUW2ykHQH2Z7MhwS4kRggRhpFxdHCMDE5pZutTVgDsdB68dtf3FMhhxI3iU6pRsBpMWxLrH4oCp4aqbaQoNgWFpLJ8VF+mmSzkn+VQ9AWuF9bayHBk6kJwmqQAJcYdVQcxVouWzkcRF0a6c7iMpTxEBgnHfJjJdSJm1cufKtp4qZXZwIbZJMWQRBEPxkYHOZjFB4053JVotp4aqTaQnL88HyNhQTFthb1vIZi+8r1W1W/9gKV/Os5dBKm+ZAAtwAYFUex9ur3vwoXL7JbZasNT2bE07WckSlwjZ4A59BBOpHRgjSqkCMSN0+cfXDPBOZyUvclKpAFheg1wkIyMDDAEx/xoLnjRypR7UPzlVMj61lIUGyrLSRqsV05cdi4kn9kpbAXJRu1J83gFiOfyyr3dhED4cj4NEwfewAOP/AYJfZZlEYVctTgBFYqU+YdUYGSMAkzwTkGxfTwYBjCrhwU1y+DI3EVop4cF9qCehaSza1UjYUEg0hqCwn5tYlW2d5W+TYtDglwG+DeXuADIXrpcDAMh8OGJ/YZUX7RcGzsd92TC5DY4BOYqFmLE1iyGOC7Ho7gsPKvCIKwNSaPeYVCgQdzUGzHBge43Q0tJOjXxh24yYkJmD96Ck4+8BYYiI3xIMHzT32OjVHP8nwltYUEBbaIat9aWOqbhaRy5A5ByAcJcBuQ2YrXtTBQYp/1waj4zauX+ASmrVnr8Ia5BckzeS8ERw9BIBJTXiH2E2RBIdpFXYVE+LXPnDxaLfk3NTHG7W56FhKXxw+DU8dg5MjrwT0wqeQrPVNjIZHNr+2QMGBTtcdQre19CbW6zWhkYbD0iYwlOoBIi7OQ4ROnKN919NS9cOz+t9CJm/sQy1hQZBcaNi2riWLbzYS0OolblPwTO6f1/NoY1Vb7tbUWkpLDq7yTsCVUatY0SIC3i4xCUGdl36ycoaEnMhJ9oZDZgIUXvwmrN17iuyACal+C2L8IC4kQ2+LUyBNHD9Ymcdfxa6stJHol/8irbRxUaWR/YysBntrO2MacbyTqcoYYFdc7kVFETQtFGhCsRrNdD9G+mJjr9ASUVwg7QRYUe+PyBpV7u+hZSNo9NVKUstWrQiKbhYToLUUaVEyHIuBWo4sIfKMTGUXU9IG3fYiiphal6SFO8yfhzJvebc0TN4mGUBUUe3P4zBvh2ANvg/GpA3tOjWxmIcnl83tK/mlL2VIVEoLoPSTA9ykiKq53IqM6ajo0eQg8vkr0RURcBqORmogLDvyEXKh3PejETfvj88rt07RT7V6zKRdzUM6lwJGNw2g0wMU2WkYC4UEmwGfbPjXy8tWbNRYSFNsE0Qyyx5gPCXAjsWBZPO2JjNqo6eyxe+HUQ++Co8dOVCMuM5PjDSMuhDyIQ5xaPXGTIMzA6ZQ7RF/sQ/RXBDQi4VBNQOPMPadgemwIfJCFpcvfh4WL39/Tb7V+bTo1ktgv5OkgHsKO4ImMGDVFC8PClRdqoqaBUKRuxGVfD/IWyhBv5cTNVhM3hXig3Q+iFWSPgJt9qqzWr622kMzNTO4JaFQWxj/GFsbvAm8wwvrtC6zffg6uXnrR1FMjCUJ20lubdBAPYW/WFq7yqOmlZ79RSdxkYlvrIxSTAIpwW2PDEoitJm6iBSkUiXJxIKoqzDPBgFUVUDwMRSPKvyII62JkBBzFtrq/6Pm1G1lIcJwVh25dubUMmyXWx9x+/p7trU3pxDYd9U4QnUECnGhIdjvJo6Yvv/DDPT5CMQm4YofAMTAD4Anxx4R1aJa4iRakw8dP11RVCIepnYn2kN2C0gnNTo1st+SfCGjgfe2hWzKLXJfEbVuUvKoXVRrZ35AAJwzBGRjiQtw5chwCQ1PKs4RhlM2PwmvLVeay28ortah3QzaSW8qzBFEfq1tQtBYSFNitnhopxLbe7mGrJf+kFrkyLw5ccksclyhfJLGVUcYTRO0CCXCia9xQqE5Kp04ch2Nn30CHwFgYERV/9ftf5Ymb8bWVmqoK6lPw0jsF5V8RhHWJjh6oJiGj2Dbq1MhLV29US/7p7R62iswi1ylxtYwy2gfF2kVCkStzBJysReZDApzomp0EE2OXvw/p+AIU81nl2VovMU5uZYdbeYWwCpi4eefGa3WjdA5vGFzjZyoWJN+A8ixB1OIEOUWasJAMxWIwfeReuPfh97R1aqS25J+wkAixnc8bs0B1SXr9iO6gUn/7G1sJcCYQzM+O7YEVQEqaJCKqo6b1Dvk592Pvo6i4TXGHhiE0fhQis+dgaPJgtXY8QciAsJBEQgEYjUUhUNqE4spLUFx/DcLODBfa9VD7tbWnRlLJPxUOiufZCZdDzgh4oWCfyDz1GDsg2dZaK4f8nH74vfxodH8oqrxCWBFnaQdiQUd1i/7QwYMwe+wcrx2PJ27SYovoNWq/tvbUyLkD0zA+NgqHT90PJ1//GIQHR6ol/m5dfBaS68s1FhIU23RqJEH0n/X19cTzzz9/4Ytf/Px55SnLQwKcMA3tIT/qcncut5cfjX78wbfR0egWprCThtXrL8ClHzyxJ3ETT9zExRbmA0wdPkMnbhKG4/G495T8EyUy0a/d6NTIIrghMn4Yxk68GVyBwUrg4OJzNRYSFNuEDbBfER5bI0p5OqGQ+NznPnf+wx/+8LmPfOQj87/8y7983xNPPPHbytssj3xZCV1wYHrq3Dsevv8DykNTcHhD3PeqRzmzwVRnXnlkDg5/FBxKTVhBORNnv9fcZDiHN8J+9G0F5WySzWiNa4GjRWVrY4UL8lw2DV5/EDzeyudAi8pAbJwLcpfbA9lsln0czf/P5eWVVmool6Gc3j1MxizweuN116NcyALsbCqPzEPve1fObbELm1EemUfD77zy+XGxhe2L9eNTiTXejv7gbo3w0ECM736Ehia4GEpvsb7SDg4XOEN7BfzA6jUYWLuuPDKXP437Yb3gZn+KT3lGHo5ORvhP5TqNKs/KQzmfBsil2N/nYH/fmPJs6+CE7PN6IBDwQ2wwCqPDQzA5NsJuY1xk42Tt83nB496bZ4JieyeXh+Rmiv1scSvJ0uo6xDeSkNxKcXtJKccWjvg3Ot3gDA4r/1Ieyuk19p8S74f1+mK/KBfYGIRjYIdtayqqOcLB5g8Hm0dkory9gv9l88sAODxyHWpWTi3zW4d/cI/mMBLcrcK+i/0Yd62mJkZhfHSYPx4dGfG/5c0Pn/vpv/ZTH8nn8oPJzc3s+vr6TeWfWh4S4G3SUIzgINREiHaNjwlhTUe1ggBXg7XF1xdvQHJtkWepozgT4P3R6UMQHZkEh1Ml1HQEuMvlhpIySJgJCfDmAlwNLrYSqwt8sVUs5NlCy1ddbPn8gepiCxdhyE6GCbNmkABviJ0EuBDb0YEw+4nww56mePWRIRhkj4NMhHs9Hv4+LcKvjVYRFNpr6xuwsrbBxXZqO81fw8TIMhNmaip9yQIC3MeEGuuPMiG9AN8mAd4JRgtw0a/D4SAMorhWFtHYr9WLaL1+7XS5/Y88/KaH/tpf+9BHh4Zi555++uk/Vl6yNLYS4HcWFp+/s5JMDAxEJiZGBieUpw2loRhpU4h2Ah+ALS7ABYX8Tk1UHKOmGA1HULCphVouX4RApBLtwlXyCOu84yMxWLl1ib/fTEiAtyfA1eACqt5iKxAehKGxGYhNzPLH+dwOj6TrQgK8IbILcI/LAcU0G6c0Ig0nWxTU2n6Nk3IkHOKv+X0+3UkZxXQul6+K7btLq7DKBDc+Rh83vlZgglwrtvWwjADn4zAJ8JYhAd4xVQHO+kO7102IbbGIxoi26NeY8FxvES12qzKZLMQTSeWgqjW+gBb9euHu3aVvfOMbf6D8E0tjKwGOXLtx6/tf+cZ3/vO3nn3lydV4KnH/6SMPKS8ZAgnwvRjxuTEqjh7M+NIt/lgr1EbGp2tWybjVjJ0XxbvZkADvXIALtIstRFhUMB8AF1ujM0d4UhxGzfdExUmAN0R2AT40PAJH7nmQtbUPfKzdMfql3mrW9ms1ehYS7aSMYrsVoV0PEuCdI7MAx++OA68dgwR4e1QFeJPrhv0VDzxCcV1vEd1qv9Zaw/R2q27evHmDBLiEDA0Ozj32jrd/9LG3v/0jP/Phn/nIz/3Nv/nuw6ce8GMENZPe3usr7gAS4Hsx8nMLL7GeUFMjtprjd3cTO82CBHj3AlwNLrbQoiIWW2hRQRGO4A4IRsVFPgBGxVG86wlw9A5G129AaNn87wBCArw1+OEnbKwtZxMQ8ntg5sAsj4ThBBwaqEzK9baa1ZMyRsAwGbIVC0m3kADvHJkFOOZeyhwBL2wtAx5yKpsAxyP8/U429rLxV33dMOkZk5rVO1bCHtbqIrrbfm0nAW6r3OA3vv6Bn////ZP//fzozGEeTdOC5fBw0sdEsU5xsAHGGR5XHtVSTNw0XYzhgSdaLzTWsgUUQibiCE/uEUACsz831pQePXAMCu4w5FgnxYiXKANWLub45FTOst9vUgIseuCc0QPKo1pKmQ0ob95RHpmH3vcO/e+VCIq5NPrOG/X5sVwhWlGiI1PKM7vwfruywCd3j8fDJwAU35jM6Xn6f4LnW/9Leae5/G9XBuFSli3GvPIdOPSe+ybZD7t2Tg+4Rk8qz5oPTrReNinjtjK2CbYPPs5sxXlVnM31RXC6PHw8xrwO3M0S5PJ5Pulif65MwPm+VR0pbd2tiFy22HYNH1OelYfi6qt8fKuMw3LtcJQy8coY4HCCa+y08qwcFArsmq2xa8dwxg7VDST0i9zii7zetnNwrm6Qpx+g0D5+eB5SiVXI5ssQCEWqY24zUGxjPzarX3/zqaee/Kf/+B+/VXloaWwVAY8NDc2/6833faReBFXrK8atbkwYaweKgO/F7M/No+KbCcg6Qnu2mjFR0+GL8MWB2z8APo+Tl8YzEnkj4Fi5Ybfsn1kYHQHXAy0n9RI3eb8dGqtuZ6q9g66bL4Pr1iv8vtns9wi4tlrB+NgwTIyNsHE3uif6VdnJOMDHWqfLC/GlGzxfYzO+DJt5D7eQ4Jaz1q/dLygC3jlSR8DLxcq1w/sSRsBhuzeVRhqB/bWUS/MdKw/kYXJyAiYnxqv9OBgK1U16RoHdSh6Gkbz80ksXvvOd71ASpmyMj42e+PFHX/8R5WHDrW6MxGBZNJEA1mpZNBLge+nF5643MUb8TpgYH6/4ztjt6NQ8DE0e4it1FHLcvtAlJMDNF+BqGiVuImI7ExN1ytdeAP/iZeUVc9kvAhwnWl7yz+9l4nqwbrUCvWiYeqsZfZ3Lq+uwlS2xfpjnVVCwPxa8McMtJN1CArxziky8OfD6SZmEqRLgwRHWPTz8viz0qtSfQPRtnhwZCTHNNML92hMTE/xQtfx2HNZuvgrbm+t8/hRjr+jXaBdJJDdNycNolcuXL18kAS4hWgEuUNcorpcA1mpU3OFhYsxX+bda9qsAhx02+Jpsgak3MWYWXmDz5iawNTxP4EPcbjc/BGZk6iB/Dr3EbdedVkECvLcCXFCTuJnbgXTBtSdRJxEchbLLDa58Frw7LZQz7AI7CnD1hIyRbDzQRiRQYamwetUKEJyUMQImol96Jf9EFZJu64CbTVWAs7Z1BmoXfDIgswAv5TMWEeBYzWP/CHDss9h/1X7t4cFKH+e7iWwhrfZro9jGoGR0dAZSm0lYv/MaLN94FbbyLliJb/F+jYdTVWwlxudhtAoJcEmpJ8DVdBsVd3iCJMA18PrnfRLg6IHWHvKjLmeIt13bjkiA7/ndgl59/mx6G7LOyJ6Bv8wm1K3RQ7B66A2wyW6LrG+E47eVV43F6gJcL4FKPSHja40SqDDCtc6Edjyx2XbJP+sIcDxvgAR4W+AYJGvb7hMBrrWH1asw5HbXSj69RfR6IgW5sqeavFr0sLHfKc91IwEuKa0IcEGjk/u0UXFElEXTE+AiilTKJCqCxERIgNeiTUJsVs6wI9sRCfA9v1vQq89fEZb6ScCCXGgIssNTkDx0P4RLW+BBUcAEu1HILMBff+403HfiIKRTSXBHxisWkkDzUyP1JmS1hUS944CTtPB8thv9IgHeHTILcKnb1mYCXGiNTg6zEX1XiG20hy2vxvUX0exH1uoxJMAlpR0Brkac3Ld65yr3nKIYFwlgKNrUh4XkcjnwR2LVAvPYASbYShM7wPbGcmun+nWBrgDHyLvZR+DjwqOeCJNIgAsalTNstMDSgwS4/AL82PN/AkdWn4EDm6/C+OYV8HnK4BqKgpMJUCSX3gFXlzWfZBTg4aAfZidH4F0PPwCnT5+BibnjTHQPVCwkJp0a2QkkwLvDEgIcx2jJKrRYWYALsW3GYTYotkUlMV1IgPcEEuAqymyA206u8QSwelHxsalZ7pXUq8iQWLnTHwGe2TBfgDcSYRIKcDVa25E2Kq5eYGXTKf49UEMCXH4BPvHSE+C5exNKTDiyGYh9Vyp9xOFi/y4SAu84++6wvsphi+hO6LcAj7A//yz76r533gVvuWcCHr33AHzw4ePwM+96GE4cO6q8qzJxa2kr+mUCJMC7o5Ba5XkuckfA69uf+obkAnxmZobfFhweCEXYXKRYSMw+zKYZJfb/hep1kyt5lQS4pHQrwNWIqDhGUBF1VFyNugNsJ1aYDjVXEDk8KIZqrSAkwFujlaj4+OyxvVFxnJT9u/WLERGdcJfzbN7uPMGzVfoqwBslHksiwMeufb+ShImTTSoNxZV1dn1Yn2AC3MHaCXGyScw1OABONrk58PSLIltoFVovkdVLAX6crfcOskv+wTmAnz0C8E/OAfy9Uw74wJwD3jBShvsCKZj1ZsFdzMCdxCb7Tr/KvtPb4GJtxZYfNRNy29EvEyAB3h3FbRLgHSGhAFf7tUfGJnm5zrFxdquxhzUS25h/YeqOFY4Pki5cLjK++93vkgCXDSMFuBp1VLxYdsD2TrEmirTBJkDsAPmdTGUgMhE9LzYJ8PZployLUfGB0QPg8XiZpiuBLzSouxXodpT4/8ds+ivAGyQeyybAVZTZhFRifbPIJiikGhVnE5szFARXbBAc7BZFejnT/PtrhgDHqDYK7R+fAXj3AYC/fQzgV84C/NzRith+cNTBXneAT8c/42PXPpaJw1z8BjApDmvse7qxsgCJvNfwCblbSIB3SRqtCmU2BpAAb4s+CnARpMGDqYbZXBFwFaAQvwnplasQ9Lm42BYBIC169rCllfWq1jB7x6qmfrpkAvy555575tlnn/288tDSkABvA4yKpzI5SBfdulEkFMbol+IUC6zzGx9lIgFeS6cCXNAoGdfj9fJyhqMTMzW2I3V0Yie9RQJcUgFehfXTmqg4w+GriGiMjqNFxTXG/t9oUcFj1Jlo1aNbAS7E9nsPlOFvHXNwsf13T1bE9iMTDrg35oDpkL7YLmOkHv+udBbKW2n+A0n2ebfx+ucg5Y9AMsSEo4wiiEECvDsq4xwJ8LbpkZAUYlsEaYaikeoR7UODUT5vhCNRGJ6a56VxcQf27pUXeZm/YiEH4A5AkvVpFNu9OMymKRIL8BdffPGCXQT4XrOghUmnMwnlbt/AZAV3dAZCM2dh6MApfsQ2YQ1wp+PGy9+H55/6M1i48gI/Al0PEZ3AwXJzy3wBTBgHRsQLt+5C7pXXmCBfg5Iq8o1Jm56Ds+A5dojbVLoBLSQPMk2PAvu3H2Li/e0A332fA/7k7Q74h2ed8LYpB5wYdMCAt1Zs49YvLhLKGYzeb0FpdQNKC6tQXmKLh9UElDfZ9y3LJuw6iwSCIMwFxTbaSKKRMMxOT8Dh+QNw/PAcHGFjxyQX3bhbGtlzUJWYN/IOH1v0T0Fk/kH+/Nqdq3DzxnVYWYvzOtu9tocR/cNWArzfuAtbMDEYqHbG2UPH4eDph+D0w++F8bkT4PHVRq4JecGI+OXnvglXLnwLVhdv8cHx5p1FuHL9Fly6ehOu3rgNS0zAJVImR/4Jc2CTHEbEC6wt86xNi6x9BRgVd0+Ogff0cXCxCdbBJtp6YFQbxfYH58rcOvLZNwN85yeAC+3f/zEH/L2TDi62j0V1otpCbG+lq2K7vMiE9gq7XU8CpPCI7zx7Y/8tJHaniPkAhO3otl1RbKNVBGvlC7F9ii3QcX4/wB5jNRKsn19PbFdyMFZr5o2FxRVY30jy6Daxv7GVBSU2NDT//sce/qjy0BQabccXtlZgc/kqbK4vscl19whtp9NVsTLMHOHbT3gYTKfVUsiCUktlm8w8gYK2I376V8mn67vDrTlneJxvXXP7gkntsO8tKIxG1oWGFpRmoE+6hcTNkZAbcmUHPDLpgZ8+BExc71pI3spEdkMLCUa18P+ttpBgNHsbRXaOvVZgs3bnYgHtJ2RB6RxHnv1tVrCgYLk6TRWsfiOzBaVULIAjs87vN7JSFAoFbhPBBMjhoUEYCIdgZmpc9zAbLXp+7XonwtbAHsta6o8sKL2BIuDtgiKrCZjgd/fqi9zKcOvic5BKVDoZgkIco+InHnoPj4r7Q/rl7Qhr4WQDqH/8GERmz8HQ5EHlWcJqcIvK9duQu3S1NirORPnb5wLwqTeH4P+8t5IgqWchQXhUm4lqtIuU1hIVC8ndtb0Wkv0Y2WYiTUYoAm5PMAHSH1bmWGfluycsJFjub2JsBA7OTsOZk0d5VBvvo4UEc360UW0ExTRGrsWO6KWrN+DV167D9VsLVQtJlvV9spEQrUAC3GTwVMarz38bXnnmL2H1zhXlWWCraR8/COb4g2+Dw/c+AiPTh5VXCCvhLO1ALOiAk0cPwvHD83Do4EGYPXYO7n3LB+HA8fspB8CqMIFcXFqF3EuXoMAm2tLmlvLCLnoWEi620UKiFttkIZEel4PaqFOKJXmvHZaUPf7g22H+zCMwNjKs69fG6HY9C8nmVopbSFBgv3L5GreQqMU2VhkiiE4hAd4j0MrQKCo+feQsF21Th89QVFyPFnYe+kExl4XV6y/ApR88wRdYPKNdAY+9x92Ok294J19gUQ6ANakmbmJUfJ2JbIxqL8d3/dpYjYT82sQ+xYU19SUAI9vlXApKqWXw5jdgaiTCI9pIdHgMxsfHW/Jro8AWfu1bC0tVv/a+jWorOweyYKchlgR4H6gXFUfQJ05RceshFlgvfedLfIGVXLurvIJRmBBfYJ166F0wefQ+iopblXwBSuuJ/W0hIQgN/YiAo4VEnRyJO5CYHHnm7Dl+uqSzmIHbL30Hrr/4nZo5Vi227ywu70mq3/diW0FmS9b2dp3yZBaEBHgf0UbF1aJNHRVHK4MnMKC8sovwsmHt6r4i2Qq53+ACC8sZ4gJr6carNeUMx6bmayrjWH23w+GgIYQg9jNm2nfEHDcYjVT92ii2hV8bBThWIlFHtXHn8ci5H4Njr3sMSuCGu1degOef/BxcuXad+7WrFaySW+TXrgNZsnoDzZ5G0oUQVYs2bVQcB5RTr387HHvgrTA+OQWjscEaLxtGAgj5wAUWHnsvyhmqF1h46mZbOQBlOS04BNEKMvuECTnQJkcemBqvznEzk+N1/dqINjmS+7VvL8OOa7d6UyYjV9m/olr4S5qcTJgLCXDJaBQVxyPSx6dmYZwNTnpeNkJeGh3yo93tCEXrn/hIEFZEFp8wIQcott1s/lLX127nMBu1X1svOZKi2oQVsJUAT2f6fxKmkWij4uoEPzEQ4YCzU9pbm9RwKAJrGOKQn0vPfkN3t+PIuTfDoXOPNoyK4wTmctH6mbAGFAHvDktcvzo7wB6Pu8avPT8zyf3aJ44erFpI2j3Mxg5+bbJ5EDSDWwB1gt/VSy9Va4/iQIQCvOAdBNf4GXAMzLDRLqT8K0J2GtWLj0SHaqLiA4Mje7Zm8cAIgrACFAHvDpmvX2xiFsbnTkJ4IMYtJJFwqMavjeVZ1X7tMHtdC4pttYVET2x34teusXkQtqBko8U8CXCLsb2V1K09ihHR4OA4jB2+D6ZPPUwVVCxGo8o4GBWfP3qq4dYsQcgMRcC7Q7brhyc9C7/2UGyE57McPvMQt5DMzUy25dc28zAbF5sXCXvhtNFinr6dNsBX2oaJqHfXPzc6Vhs9pbJ3lqFRDoBAbM1m8yRqCIIwl5rkyNEYhB0pKK29CrnlV8CRWeOHkekhxql+HmZDEXD7YacIuK3CaJFIeOJD73nLLyoPzcHlBadff+u/nNtiCsrcTGuHN8R+wsqjCrnkImwuX4f40i3+2OP18SobCCZuDo3N8G1CJL21wW/bxeEJgsO3m1GuphefG7PEnaG9yYnlbbRtmNwh3b66bQ6FHSjvJJUHxoIWlcTqAm/XfMkB8a0dWFvfYBPXBsQ3kpAru8ARGIJCsQzOMtalNmeyadT2Zn7+GhwO1v5jyoO9jF37Pnh3Usoj88Aj6Z2eSt+SiWQoxn8q/WRUeVYeSrltcORZ+0j695V3Ntl3OVsZ3wPsOkpGMbUCGPhz+AZYfzSv6hXfSQ34YSg6wAX3yPAQDA9GuX0ErSXBYAAGRyZgYu4Ef/9WfBmWrr/M7XNYOzpTcEByc4v7tpdW1/k4lWQCHIU4Cu1yj2vnO0o5KGcqc56DzR8OmUrmlotQTq/xu47gMOsafS4nrKbE2ioT53cd4XGpys0+9dRTX7l48eJTykNLQxFwGyGip69+/6t7yt6Jw2AoKm49sF3Xlhd0t2YdTDB4B6fBM34KItOnqF0JKbFMwpmkZxqYcf0wqq13mI3ar43JkT72PjUisu0IjoBn5Cj42PiDVZ7u3nhV7uRIKvXXMrRz0BtIgNsUUfbuxW9/cc9hMNoj0p0yrbyJlnEWMjAaDVQnzkNHjvN2xUXW1OEzlj/khyCI7hEWknYOsxHoJUeqD7PBoEDORAsJ0R+oQktvIAFuc0rFfN3DYERU/MwjP0FR8UaU5CzBWMhuwtLlv4LrL353T+Lm6MyR1g/5IQjCFtT4tZnYVtfXbvUwG/Rri8Ns9JIjCYIwBhLgRiL5Fpf6MJhmUXGPL6i8QsgO3/5VEjfpkB+CsB96u1kotpsdZtNKfW1tciRaSFBsW7W+tiWR1PpEmAsJ8H2KOiqujp6KqPiph94Fk0fv042Kq6MseCz+gE5d132DZANnK4f8iEUWQRDW4PiDb4djD7wNpqYPcLF9jAltWQ6zIb9wZ2DSKtE+Pc7jNRVbCfBMJmurkzB7QaPo6djUPI+Kn374vTB14HA1ynJ4broaZcFj8T2ePnrI93NiTYPP3uiQH0rIJQg5weBGOZ+BcjYJjswqTMRC3K+NYEWrkbFJLra9OmOunl/biMNsCHMgn3VnOGx0phdFwG2AUSWC6kVPsaThyMS0Kivep7xSweXugQCno/A7ptkhP5SQSxC9R+vXxoRItJCcOXMGpidGwOfIw8Kr34PrL35nT78Vfm0hts08zKYZJCSJXkIRcKJ/9ECINoqe6g38eJ+Qn0aH/LSbkCvEAyZ0EQTRGLXYrufXVidHVuxiPwbHHnyM1/2+e/UF1m8/B69derXnh9kQ+49icVflSlU7nbG9rdqmtzgkwImGiOjpxef/qu7Aj4fBFL1U8s5KYLtiQq6Iiuey28oru1FxtB6Nz52A0ECspl6w2oY0zIQDQVgdI33MZfb/0vYX9GsLsd2qXxvH2esLq5BxDSnvAMhm0vJaSKjOtm1wuWzk85AYEuDtImlJOrPJ5bJ1B35+GMzQLLjGz4AjPAng9iuvELLT6PAmtB5NzJ+Ew8dP6xzOUWtDIggr43J2NhWKXSC0kKDYRr/2mVPH9vQXLWqxXc+vjTuN5NfuDnUkl2iDfapzeg0JcKI1GnRI9fbq1METPFuf6k9bj0aHN6lRJ3utMwFBEFanWQRcz6+tPswGLSQotvXqa+slR2oPs6HkSILYf5AAJ7qmsLkI3p1ViPigWntWW3+aTmW0DtrDm1YXb1XFg/Zwju0dipQQ1md87mQ170EttrHMajO/thptjgwdZtNfXI7dRY1sXmaCIAFOGEKzSht4KuOxB95KUXGLgVHxxTuVRFsUD9ooHSaIcevRwAyAZx/XgycsCYptFNPhSBQOnn4j3PvQO2rENpZZbdWvrZcjQ1FtgiDqQQKcMJRGlTawji2dymhPnIEh8IwcgcjsORiarNQtJgiZEH7t4cEwuLIrsLP0EoRLcYgFHTAQ2V08NhPb5NcmDIcSWPcltkp19fv90a/8139rrinVEwJX7JDyoJZSahnK2yvKI3NwBIfBGZlSHlUoJW9D2eQziBz+QXBGDyiPamn2ufFY+9GZw+zniPLMLlh9Y/XOVV6DvCEOJ7jG7lEe7FJcvcj+gLzyyCQatHk5l4LSxnXlkXnotvv2GpRTi8oj89D73QJnaQcGw34Yn57fI1ziSzfZAmwRNtcN+BvrtL/gnic+BaFkD66F1wuuoHyR/qujR+DuOOtfTg+4Rk8qz8pDZYxY7snfh1Ftr8fN5gMfE90+HsFG8a39fmJ5VQwQiLEHd+eiowf4rg4KahTd+XwecvlC38V1cfkFfuuMzrGxWC47X2nrLpTTa8o4KdcOJx5oVErc5PddE2f5rSwUdrbBsVH57jnZ2CaTRUaW63bz5s0b+PODH/zgyWvXrl24fPnyk9ks++Nsgq2WXW632/+zP/Wuf6Q8NAeXl0f79Cjns0xRppRH5uDwBMHhiyiPKpR3NllvZr/bRBxuf92Bv5zbBsjvlrHTgp7irY0V7ivOZdP8OX+w8hmw0sZAbJxX2/D6g1As5HkUfQ8OBzhDY8qDXfjAXzZ5cmzQ5lDMmb74QXTbPc+uk8nfN0TvdwtKbBLZXroMG8u3+WMsWSjAHY+hsRmITczyx/ncDv8udESd9heMXfs+eHd6cC2YiHN6vMojedgKxyAZYtfewf6+0KjyrDxUxwiD/z4U2z6vB6IDYfYTgdHhIZgYHYaR2BBPigwG/PzUSHyfliK4wceum29oBjJb67C9sQQbG3FI7ri4AM/l8lAoFqEswckffPHCwEAIjsUyUc5tsbZlYxEfJ3f7vxQUdriYRJzhcX4rC44SmzsyG5X7bGwz6kA9Q+jxdRP9OMD6a2wwyvvx5NgIHD96eDCTTiWee+6Hz3zrW9/+g0KB/WE2ggR4uzQU4OYLIisKcDV4yE9idQHiS7f4Y38wzDpf5WuIgg394kKwpbcqgxOHBLiUApwP1DtJLqybLbJwB8QTHODttZNp8+8mAd4QFN92F+Biko4NRXmC5AibpMdHYlxsR8KhumIbLSQ7TExnMlmIJ5KKlWQN4htsLEpucbFdRLFRZHO72wdOJnJlolhk41u6ssNIArxNJBbgfO6QXYCzv8kZrj/udkKjRfMge6ztx3NzcxMf/MD73/0P/49/8Al2keZfefXiBbtEwW0lwHF19Pmvfud8KlOA4Wh0YjAaMn4kJQG+h3YEuEAItpXbrzWNiiM7mW0uwETnxS3mYdZh0/E7TM+ZXImDBHhTAa5Gu8jyeH28TZFgaIBHxdGShFuuuONRyLcQ1CAB3pD1YIxHwe0iwD2sf6N1ZCg6UBXbU+OjXHyjj9vn84LH7a4rtpObKfazxcX20uo6F9vJrZRiKynsiWrzPiypAOd/q8QCvJBJgqOYIQHeLhIL8GIuCw4c13Hc7UKAq8V2OBSoJDa3sWgW/XiZ9eGVtQ04duz4uR/96EcX7ty587zyVktjKwGO4MrohVcu/eXjf/nkb29my3D/vWfOsWneuBFLRgGOE1ueDYAmYrQAV9NIsFVtDOMHIBgM8UkYO+/QYJR33rWFa1zMmwoJ8LYEuEAsstBjm0qssTb1VBdZuOuBpSpHpg6y2xH+Ws2OhxYS4A2xqgVFTNDarefR4RgX32qxrUU9Sa+ub8Aa+8FJGsV2ajtdV2zrIbMAd0AJyunVyn0JBbgjz/odRcDbR2IBXsq3L8BFX663QxUOBZsumnGHCisIafux2gr2ta997XG7CHDbnTf6dz76c7/1xkfefO6RNz10bmx0lI+kItEPE8J0/cXt0CgJswdJcbrJeDwJZl15ZA7dJGF2wtD4LERHJtmPfvKfAMsedt2mzaAkzLpJmDi5lZKVhVOr4PH22La4uNKCiZu4EMPyhzWwyYmSMOtzc+wI3GI/eAqta/iY8qw84KmQXmcBthMrTICPg8fDRHed5Eg9cJLG+tnq5Egj62kXEzcAcCfRNwCuwXnlWTnAHb7S6sv8voxJmPnEHXDuxJVxkpIwW4XPHfFr/L5sSZilTBzKyTuVcXf8tPLsLiiisf/iAhn7sOjPzdDrx+0mOf/Kr/zKR7/3ve/9gfLQ0tgqAo5VUH79H/2dx8ej/vlQKOgXCWFqD+qupaHDaBnrJE4mSPToSQTc5dszAFc8eNaNgOuhjoqjTYG3m8O1Z1uqUMjxBZbTzKUkRcA7ioDXA8X1+uINHhXHttUmbmIeQGhogguzalRcJwJeKBT4LghGSIevfA/cGdYPTEZ6C4rTXXd86iXcFsa+GyG/B8bGx3iZv1B4AAaGxhpuPSM4MWMCJJ6yKvzaGOEWfm2RHGkkMkfAoVyWOgJeym6SBaUTJI6AD41gnw1DifUzT2SEj7HCDjY1MQrjo8Mt7VBhX8Z+i/0Yd6iWVtb39ON2k5ztFAG3lQAXSZjahDDc3vb6K1GrriszNJjgeiLAdYRw3wW4idVfsG1QsK3dvQ4bed+ebSmMurhxi4wN/hycRI1GBgGut/CyqAAX4M5FvX7q8wdq8wAwEsM+vzpxZ3pirGJHYhOB7/mvg2O7F+0guQWlDwIcRTQKarVf25XfhMLmXUiv34JCZpN9WUs1Cy1EvfUs/Nrq5MhKhKw1C0m3kADvHG5VwBwkT0C+BFbhZWaQAG+MCGigHWyQjbPD49MwPDXPLSVqsd1o0SzE9t2lVdMWzSTAJUWvCgpGUvGURuEv7joqTgJ8Dz0Rgg4HOIL63lbcAsOj7tEnjp5it9vVXck7LTIIcL1275UA1xH/VboQ4Grq9VOEL5pHp/lEUC966v7h1/a1AO9VBBz7WivRsHB0mPXFQ9xqVGAiCBdZyzdfZRNxFtIFdzWpqhO/thlYRoCztnWIYIMkVIsASHjtdr3Mxlfz6Jo+CnAcO9GvHQ4HYZD1XW85A+m7r0AxtQID7LlgKAQe796Fnlg0N6oohGLbzH781a9+lQS4jDQqQ9hOVHw7tQkOqPMF2qcCnIvQOoNrb4RgWTeC4d1Z4f7Sicnpih9NiZziwsrpDYCTCfeO7UaC/S7AGyy+jBLgAm0/RUTiphoxEaB4SyQ3YeDVp8GVZkLAZGQV4BshYwW4mKADfi9b+AxWkyPFjkOjaJh66zmZysJO2csn5NJOCpPkIesId7T1bCaWEeBsHCIB3gYFNobg39dGMmHPUAlwZ2SS35qB6Mti9xAXzCI5UtTKj0TZHDp/gotuPKDq7pUX+SFV5VIJMgVndYeqlYpCZvP5z3/+/PLy8iXloaWxlQDHMoQf/Zn3fkJ5WBcRbcOkTPQqaqPiE3PH60fF96sAbzC49koI6gnwXPIuJJZvcsGGfmKsoCJW7qFIZWElSt5l0tusvQv8tbZo4PsnAW6sAFejrY4jJgJ19HQrtc0ngsGbPwJfev9GwFF8d2pBaTRBY3SsFb+22HrGtlleje/ZekbxzfNETI7Qd4oQ4NxuVe+73i9IgHdMucDmRUkFeDHHvm87lTHLKHuMui/jjiEGp7Rl/xpVIsmV2PjG2rBQYpctuQJbyTikIdT3HSo1X/7yl/8HCXBJaUWAC7D+cNtRcZ0JRHzpvY4C5LaVpDGTIAFeSzkTB1BENSbs6SX3iZJ34weO8JJ3+FpbUfFGooEEuGkCXMCj4qxN0xDmE4Fe9HRt/gHYHD0E7lwWAqmKWDEDq1tQcKxysR/0aeuVCms2QYsdBxTbelvP9aoZVBO1ZRfg7gAJ8DYhAd4ZjmKWfe8qY2cnAhz7KPZXde6Fui9jVZJmZf/qle8s5NjcgtcNg0+SlTW1kwC3XRnCJ//kd7paonEvMRPdaGHQgiXSNjfWoByaqNgd0O/oYcLb4+YVG/D125d+qLzbHPTKAfaiDGGlPNec8qCWXpXDc42fUe7tUlx/rTL412Fk+jBvT1xQqdnZ2YGNxWt8FwQjrQ1hAtQ1fFR5UEuZLXxK8SvKI/PQbfdelSHU+d2CTsoQdgQmYTYoQ6jGxYTU4Ze+AEN3XmJ/n7FJubKWIbx78EG4FZuFfLFULUOIlYECgUB1rPKzCRkj2c3ACRpLg6GoFuX+cFJup1SYlkqp0mWlL8lXJlGUIXT4h+p+1/tFTRnCoUPsOxjm92WhlLzN+tmGlCUcm5XT6yftlEjEg6mw73bSlzsp31m9bi4PuEZPKs/KwS/90i994IUXXvi88tDSkABvANaiRvuCVrzVgwS4uXQiwAWNFlboebtz4zXYSTKBoAcJcOkF+MzN70LEnYFoegncpd0JprSdhtJmCkrrxuxSyCjAy94A7Lz+fZC79x2QSsbB4alM0q3W1xZiWwjuduvytgIJ8M4hAd45MgtwN+RhZ+lVfl8twEXfxV11v8/H7SSt9OUc67toExFiO7tTsY10QiG1Do7UAglwkyEB3gKNxJuIDOGXfmv9LqSWmCA0ERLgtbQqwNXgwgrbE20pWlbvXOGe45qoOAlw6QW4OIjHOcz+1sEBcAZ0Mvg3MOK0yYRg53atvgtwBxuy3U5YGJiBLBParpnjEDnxBvBER5Q31KfTaJgRkADvHBLgnSOzAEebyNzMJA/clbzRtg6mErpjcyvF+7B4bBSl7VUob7G5hQS4qexrD3ir1HjFczuQLrh0PZD5HHq6zPUDkwe8FrUHvFXqJeEieH/P8egq36rw+4vyTZGgF7bW2ABvMvvZA85BD6fmIB414ij6ciYLJRTam+y6lMqs3QLKO1jbMVHuGopygY7ge9ulpx5wFNseNkQH2fWPBCs/0SA42a3P54BMIALrRYC7K2zhn1jl31dRMQYnZPRk9/Iwm0YUslvgwIoU5AFvH/KAd4wsHnCcN0q5NP+eeSAPcwcPQwwDBex53GGvl+gs/Nr1ci8qC2njkyOrc4uEHvAvfenL/2NlhZIwpcQMAa6mUkYrpPulx4GRi0QxQGJZK4OpK8QMPolyDzYS4IJGSbh4Wz0IJhCGUCSqW77JUS7+/9t7EyDHruvA8n7sSOxI5J5ZmVn7wmIVSYmkxEXUQkkeSlbJdpiexSN6wjHRi3qanpnu6S3G0oQjpt0Oxch2R9vjmBnJIbctd6tDlJvusGRbLNGUKJKiVCzWXpVVuVRWbkgsmdgS67z78D/yA/hAAkh84AF5TwSYCSCLicTHf++8+++7l2/81BsS8MYEvEQ2B4VYAnLrm2yBmmHnpAEktnBCuES7HGAcZiJolju44c80gF4CngEJjFYzSA72XjuZBDLJNvicxe9tFpDY65Twb0ApZ5jY586bjcFYah08yQiEU1nYiARhbfkehFJG3SfoZpGUMYoEvHlIwFumGwKuBGkwdcQ5YIexkSE+b/i9Lh4si28uw+bSTciki0EzZdGsyLa6MZVS9k+p9tSpc1lkAf/Wt771h6FQqJg83+NU15Ui6pPfO2pkcgyCe/wkjJ78EN8ESIgPRsTn3nsDrv34uzwNRY1/aIxJt5dfImzk8iAhFph2kr13H9I370IuWF6lCCPi5ukJMB+f5ekrGTbh6I7ZCBmzGTLOAZAG3SCND4J1MgCGIS9IbgeTLCtbLFS3dsaavIU0m4C3E+xvikF+LQSFlRB4HizBYCwo/xT7e9ucv90OcgK+pl6B3jtxQdnGtBEs93doYhSOzEzBiSPTcHT2UFG8hwOleQODOhNHz8HZpz8LU6ceh3g0DPNXfszmnL+CO/cW4ebcAszNL8HqehA2mXTjlSoRz2WifZCAtxHMh/VZs3D6+GGYPTQBIyOj7IR7GM595PMwdeJRcA/uv9h+oUAnpJ5ge/QHc+/Dez/4NizeeJdf2lfACAVGITAycX9ljQ+a9xaX5WcJ4clkIbe6AekrtyB7f7WYpiKD0XHT2DA4Th8B48QISK425HkrKSQYxfYwsR7ycNk2jPjBOuIFq1eW7YrLzgiX7Z00FLbikA9GS7JdWA9DIRoHiCXZ35PDAYH/fLa7AW5CR7BsJNF98JzEKiSKbM9MjvG5HmUbH8OrolpBGmXeWA+GYOH+Cp83VqNpyFqLqY+ZVILncZNsHzzozG4jKMfBxetc3pbvXIZkbDcf3D86DbMPPQmnnvgkRcV7BCUqfv2d71dFKPDyPg6aOTDx9tBEb8Gj4osPSlHxgiofuhQVP8VkfHgQJDap7olKtrNuJ0jDPpDG/Fy2DV52H/O3rRZt2caotlq2Vzah8IDdNqLssQRAKl0m272I6BIpsvyIHgEX+fXlc/I50+SVLYxqq2X71LFZOHv6OA+sKbLtdFYv0lG2MXKtlu3rt+/xeQMfw1SSKtmWBD43pA5cETzA9J2Ah6JxfXdBNkhweQ5uvfsa3Ln0d2UpDcXLUO2NihP6ghtva0UosMOmwTXOK7RI7kkmYWKVqCP2QI6KZ67PVUfFjUYu4Oaj02CaneQpKsUnmGxjvrZbTiGpkG2L285TSCplu5RCEk8VU0g2IpBfDhaj2mrZzoktXK0gukRWbn4jDgZKCglWJBkdDnDBRtnGqLZatrVSDzGqrZbta7fuctnGq6Jq2a5FLk+XrQ46NOroTDwaLKU0UFS8P8FBHKMlo1NHYPbsh+HIox/rzPHsRL7yAaIUFb92h2/ezKuqpBgcAzxFxXx8BgwT1fnaNWVbyddmsl1KIQlvF1NIdjLti2obq3PGicYROQJulEjUWsU3NAqByeJYrMg2do1UZFvJ18ZygLjPB8fxWikkWPJvZW2DCzbKNka11bLdTykktDjoDCTgHaRvo+IHWASxDrgzHwb/gLR7adLloascvQybSFHAs3OLkLm3VLVxs5KSbNfL126nbPcgokukAUg4WsUgH1tJoHQFRbZ9/kG+8fHcM58t2xy5l2wXy/0VZVtJPVxcXm3r5kiDRIu+gw4JeBuRGszlUkfFV+ev90ZUvIHqLwcVzBWfv/pWqYJKLrt72ZGucvQ22LSntHFzZR3ybPKt2hyJ+doo232Sr00QvYQi2x7cBFmIsQXzLZDCc+Axp3lARGEv2aZKJESn6bvQ5Yuf++Q/s9ss1W3w2gVb5RscNbrOtVATGWUc60jHIsGyRhpGk2W3DrVtANLpNGSxbmhFrVUcfEz5HciltuVHdAJrnNt98p1yClgDFmut6ky764A3TL3axex389eA3+YyvK74+tJtXlccqXU8kZ1k4zW8NeuAd+h9r1sHHP9+nZtPcbCObzN1wHUAG/dg/raUYRMyRrSzTLQFuVQbdgZge4CNC6LW2ebNwtg5IerrS4bZscwIWgc8B4VEscykkHXAO1hDHec77L/g87h5Kklg0AfjI0PgZ99j3W3/0Cj4h8chx+bijftzsHr3KhuL43zeLhjMvMY2NqQKstt6MMxrbGOTGxRxbEzVyXr5ojQJ0qKQZu8Z3gQ8X//sz/7sq9vb22vy3Z6GIuCCgCKOUdRaUfETjz7Lo6hDo1NlO7OxDJLXU5Q8Qhwqo+J8EpCpjIobjMUGMQRBEEQRs9lUVonk+JHpUolfJd0Py/5VYjTbwDt+HEZOPgUm1zCEV9lYfO3tUmRbsxIJQXQBEnABwc6MSq54NPhAfrSYKz4+c7zuzux+BtvGVyF4mSSlrvj1t77H64pXHk/MFT/79GcoV5wgiL3pw7Jw2WyWp5Bg90h1JZITR2bKZBtbtVeSzmTKKpHcnJsvq0SS67+L/EQfQQLeLIXO5UIrUfH333i1Kiqu5K+Fo1uQSFO+aS+gRMWV41kvKm62FtNUCIIg+gUlXxuv2iqyffbUMb458tjh6ZqbIxGc71C21ZVIbs0tlFUiyWR0TkckiDZCAt4DYG6xEhWfu/bTss0iyyvrkMhbqA51D6EcT4yKa13lwKj46Sc/VTMqrkxiOFERBEGIiDJOKWX/psZHSpVIJsdG9qxEgsElrbJ/fbc5UuQqYlTqVldIwHuM2Fa4Zv6ayTEI7skzMHryQ1Rxo0eod5VDiYo/9NQLMDIxw/Mgj8xMlSYxH+X+EwTRZWbPPAlTJx4Dty/AZXtibLhsnFLK/nncrqbK/mFwiSqREP0MCXivoZEHXUhFYdxnK21QGRkZLatD7fDUqNpCCIP6KkdlVBwrqIxMzpY2HR203H+CIMQB9+JkU9ulzZEYxcZgwczxs1y2sUKJ1jillu37K2sdKftHDWVaI9eH3XhFpO8EfHsr0YGaaGJRYPK2dOOdmrnFR88/Q3Wo90OHa6CrK+JUdk9VJjHMeYzEMwAm/SpuEgRxsMEmU+pKJFOjAfBbUmBJrcHK1YsQWb4BsXB1RTj1OIWbIytlOxLdPvCVSPI5cRcH1IinM1AEvI9oJLeYouK9hdI9de76e3wSwx3+OInhxJZg/m0cPAYG3yzkTC75XxAEQTSPsq8EZRtra2MlkrOnj5dVIvF4vbyz5OknPw1Hzj0DuWwG5q/+GN5/4z/Dg8W5kmyrx6lulv0riaSA1WNE7oQpMv3U44wEvE9Roqi16lBTVLy3iG+F+CSmhcXhBd/UKRg78xEYP3IWbA7BGokQRK9wADadaVUiQdnGfG1FtrGxTb1KJCjWm7EsJC0jAFY3D/4EVxZLsk0QepFKJfsmy4EEvJ0IOHg3UoeaouLiUyhUR0ukTAwC9nxZvdyhyaNw4gMfgyPnnqbFFUEccCorkeA40Uwlkq3tmGYlEiWyzaPaHU7RI4h+gQT8ALFXd0aKirdAFxddePl3bf4qzxXHxVUssiE/A+D0DpUtrsx2t/wMQRD9SKVsa1UiqSfbWpVIFpdXqRIJQegECfgBpB1RcfVg73ZS7fFug4uruffeKC2u1ODi6vTjH4fjj32UFlcE0WMYTeaqfgDK+KtsjtSS7b0qkaBst7USCdWM7j/6sPOqSJCAH3AajYoPjc+Ax8XkXKPGq8/nlf8F0W2UxZVWVNzuxA1UlHJEED2FZILZhz7ExuFPwaGpST7+YslZHH+VzZF7ybZWJRKU7YNeiYQgugkJeLNo5OL2A3tFxcdnjsPUxFjNGq+EeOwVFaeUI4IQC4xqF9IxyMfWwJhal/s7zPLncBz2eH18/K0EZVvZHKkl292sREL0Hjn6nHQEEnCiinpRcaRysMevhLhURsVpIy5BdJdsNstl2+V0VFUiOfvweZicnASbSYKlG2+zcfivysbhdCZTNv7enJvnZf/UmyNJtsWn1CRIwDQPo0FcNSz0UR3CvhPwcDx+4Brx6IU6Kj5//V0+2ONO+KrBPsc+RmbKA+8FKhdXapqJiqM84IYut9MpP0IQvYueHRO1KpGcPXWMy/b05Jjm5kg8FzHtZObcR8HqGmTj8GU2Dn8Xrl2/AbfmFsrG30wmK/8ropcwGiT5O/EQOQIuSeK+b81CEXCiIaKh9d2yUxVIRgsY/Yeh4D0C0sCg/CghMs1Exd2+QM2awYN+qjlO9D7tkqH9ViIJR7fKyv4trW5CIr/b7RYrHxGNI3JLdZHb5IvcCTOZpDrgRLcoaNRcFWD3OU48TrcXPGPHYOLsR2H86Hkqfdcj7BUVnzl+tm7NYILodVqRIUW2PS7nviqRqMv+La+sU9m/NmI0iqs41O6dIAEn9o0hmwS/NVt2SXVoYpZK3/UY9aLiCpWROsr/Jw4CKNu4+FSX/TsyPcnHvCl2v5FKJPdX1tpb9o/Yk1IEnEokEgJCAk7sm1w2XdYQRi1ulaXv9tUmXdDofz+ijoqv3b9XVTO4FKlLpgEkGkaIBhG0rjCOUUqtbbPZVCbbx49M87J/mHKlLvtntVr4zysosq1sjqyU7Uh0e/+bI2m8awqKMhMiQzNnO6Gi9XumM2CbdIqK9w4YFV9bnq9ZM1gy28E4fAYk9ySAlVKOiN5C2UzsGxzimx4f/uCzcOLITJlsW8xm+ad3QdnGyLVatnFzOsp2aXP6AalEInIuM7E/JFrw6QoJOKEL9dIZ2hoVJ4TA5BgEx8gxcB06zxdXZuuA/AxBdB8lXxs3Ew/5PWBJByG3fgUgOg/+AUlTshUwqq2Wbc1KUEy2DyoiV/Mgep/Nzc3I66+/fvErX/nKl/7hP/yHF1KpVFR+qufpu+XNpz/21N8bDXhH5bu6YHCOyN9VkM9CIalzTqzBBIaKSiOFbApgZ0u+pxMav7dEdgcKO7XPiVQ8CpGNZQitLvL7Dreff0VQxgPjs+D0BnjL5cR2WH6mGmkgULUiL+C5mNuR7+mEZASDo0Z97EIOColN+Y6OmKxgsJV3HO3IcWdIJhtINu1FkqGQBZ/DCNPTMxDw+8Dn84HbPwJDk0fBYitK+E4yxr/uC0lix2BYvlPN8N23wLLTht+zB5KRfRbM5akHIhB2BmB7gH0+6p2nXaSQ3mar8gSbcSxgsO+e/3qAsm21mMHjdrIbE+5BH4wODfLPJ0a0nQ4HDI5MgtMzyKuKYKBgbeE6T6UrSCZIZ/MQikTlTZJBCIXZ+BXd5hKeTmc6X4dYNa9ojYHdJhsPsXEgA5J5ACSrS35UDAo7nfvcNUshHQfAm4DnbAHnFTa/4BXOWmO/HhQKeXZ+DvCGf1hJaGNtbf4P/vAP/vUf/OEf/v0bN278YG1t7ab8o31B3wl4YDBw8tGHjj4p39UFEvAK9hBwhXwuA9vhdTbZ3YB0ig2KDNtAccDG0ncobqMzp/jvymV2IMtuakjAxRPwPJvc4is3Ibh8Fwr5HJduo6koqLi48g1PgntoCsxMWvGY42egJUjA63JQBVwt236vh6eNjLBbgC0EXUy0B+w2Ht02VOxTyLHPasFg5sJo9U5AKroO8cgGRLfjsLUj8ah3JsPGcxGafggu4JAK40BAAt4kIgt4NhEBic2rego4XpHCfRSKbI+PDsHo8BC/j2lh+NzY2Kj38xd+/tP/7J/+r18ymcwz8UQCVlbYhNMn9OW1I5vN5vn0x595+bOfeOqlI1PDM/LDbcMwdFpzECxkkpAPlec9tx0mQ8bBY/KdIvlkGApb9+V7OqHxexVQgvPRYnS7WTBVYWjyCAxNHJUf2SWGE+LmCpO7OX7fEDjBBKgoPzjxWswmSG3MQU7vsqBsojYOnZTvlFPIpSEf7MB4YHWD0Tst3ynSkePOkJj4GzxT8r1yeNvs8D35XhHspjk0cQQ8gXH5kV3wmG6w47nFjmtTMIHCXPNanPmb3wNHtMn/ZwtIFgsYB8RrOjU3ehIeBNhQx8/T4/Kj4pDffsAWqkHesMvob23/B57zBrYQQ9HGydvMxBrHgL3KYmK+dprJNEawM9liF0m8r87Pzm3eKkb8mOAaXNWf225SnFdu8+8NgZOlMVAURH7v8lvy587S+udOL/KxNSiwm4ivLRNaAEM6CpLdV3PsbwY8X3Ex62Pnrt1qZY7GxtE9FpK4SMbzNLWzAym2IMY0L1wYP/XUU33jrYItpduDyWSyhbfiq9FkfnVy5tjo1MT4aFsug8tIjiGQtCo/UAS8aRqKik+fYpOsmeeKe9zuskvK8chae1Ic6nHAI+A8elTxu0uwBUghVb4Awvx/TDnauD/HBt0cTy0yW4rNRPCYYlQcBR0XsZgCUHmlQxOKgNel3yLgBSbHzoHdS9E+jwsmRrEWva8UHTOb2N/KpFwNyvZOOgPRrRhshMIQZLf1zTBPKYklEnwCz7KfqYxsF5LsHGbjt4hRXNEj4KX3zuJiN7E644ocAc8mt0HKivnaAMf0FiLgyhUpu90Gfo+Hz9VjwwF+3g76vLWvSKnO2+j2NgQ3I7C6scnTv3CPhfqK1Ne+9rUvy/+s5+m7CPj/9Pd+7Wv/3X/731w4duKhMmNIp+I88hYNrnBB2A8UAS9HKwq6H3hUnAka5hHvxb2rP24+mtosgkbA93PloSk0frdCo8ceo+KewTHNY4pR8dWlOxAPr8qPaEAR8LoIHwHHaF98TTMCjtExjIahWJtMRt7YppFmTzhpY1QMI9rJHZygM1WR7UahCHjrlN47x0jt9MwuIXIEPMPGK0NyQ8jXlgvP8+BOvQi4chXahhFtdsPSnPxcbvKKVCqV5udvo+ftM888QxFwUfns80+/POY2nqzc8Id5qaXNYXKFhlYjpwcyAs7WajWjwBpR0P1QLyqOqFfLW6FV9uv3t6BqhJrR1y5GwPdz5aEptH63QoPHHhe9yjHFqLfZYi2LivtHpkpXOjLp6vz/vSLgg0vvgTWhcyoSgyLgrTE2MQNer58HLkw2Fwz6fGXRMSXv026zVUW1kTSTa5Rt3AwZDEdgbWMT1oIhiGxtQzxZ3BypFdluFIqAt85uBNxJEfAmkDq4MblZHDYTpOPhUgRciWzzjc2u6o3Npch2nStSGNnG87byilQmW4xsNwpFwAXmt/75F197+rHTz8l3Ob6RQ2yCPwRO75D8SBElKq7kGDfKgYyA14sCtzkCrgVGxR3jZyCTy1eV/MLfj7u2dRPhOtFXioC3fuz3ioqr8/9rHQMlCnPkb/8AHGs6n3sMioA3Bm7IxcWZ283E2umR5doqP1sfnJQxGoYRMiW6rXc9bYqAtw5FwFtD1NeGY+rk6DAX62g4CBa7q+m9Fjxvm91avSJVD4qAC8zHnnn8pUPjQ2UbL7EMHjaIqRUVx8hbM1HxAxkBr5cH3eYIuBYYFU+bXKB0FlaDExJGrQYGp8BqtYMB8o3lFTdKvegrRcBbPvbqqDhe6cAKKuqouPrczKRTPEqEG3gq84L5prxrfweG6Ab/t3pCEfBqKqNjAZ8bDDshSEeWIbG5CCYpx/O11VexECU6FosnILK1xfM+V9aDPDqmRLabjY61isgRcCyPKGGlEQZFwJsjm4yClE2yMYzNC/YaY1iXECE6r5y76a1VyMQ3we+ywezsUX4lCrHZ2ZhcZ69FOMLO23Ckaq8FBsn2c0WqHhQBFxitCLgWGBXHPGMslaamkah4VyPgGpHojkRCuxwBR9RVUBRMhR2YOnS4KvcMI6j352+zdcma/Mg+oAi4LhFwLXCjLV6taiT/X431T34TjIvX5Hv6cdAj4MoVB7fTyc+5vSqRFKve3OH7NAxGMwwdOgUFq6fpvE+9ETmKm92JgxRRKkFRBLwZMpH7YEiFimOYrywu13U6HQFXzl28GuWw28vOXe499++U9sihH2EVK7wpkW2+GZKds/vZa7Ffcrk8PPfcRygCLipaEXAtMCq+uTLPP3B4uXRAFRV3+UdgZPoUT3vAfNXKTZtdjYBrRaI7EQntcgQc0Yr+ZKLLEFq6Cpl0klfbwMgpgl8Do8W84lyuAPlctvWoOEXAdYmAa4HHSB0VVx/TStR5wQPXfwimmP7H4SBFwHHCHrDZSlccMN9zfGSIX3FotBJJMpOHHcnOjiv7nLDFWjweg5Q00LHIdqOIHMXFq38UAW+NfGpLjoCzMewARcDxnMTINp6ryrnL6+Ozr1gfv/LcLWYDjIJ/bBYMVhcE2aI5sraIXShhI5aFcHSrLXst9ks4HIp885vf/G35bs9zYAVcQT3ho2ybVJvDMDruH53mq0FE6dKoFnDlg+52O9lkZYVEaJk/rhsk4PK9IhgFxnJJtdKMELdvqNht0xNgA0gaMqkmN9/usQGwkNA/9eGgCLiaymOKl5E38XKnnKqAnQqVVAXf3XdoE+Y+BByj2VaLpSTbKNojgcHS5khlwq5kr0vRStk/ngqQYyLUxcvt9RBZIqU8nmMk4K0g4fiIKZp9LOD7WSjj+Vm5sTmRzkEutV383LExV6SUrGQymSIBF5hmBVwNCnZoZR5ikSCPvCk5i5VRcSO7DbIP+dCgn3dew+/5qtJsaHpDZ9OQgMv3iigCrlBZQYXXoFZFxbHaBh5HpC01qAsFEnCdj71yTKM5e81d88GZx2BnwAfGTFJXEe91Ac+y9w4rFmjV6VXLduVkjVRO2CjbWKu3kehYSYRIwJuHn2Mk4K2gtFTvFwGvlO2RoUEYHQrsuVDG8xbPT+XcfbC2ARtsoayuIlSWUoJpO3jlRbA9ESTggrMfAVfAlJOoqpFIZXttt8vFd/RXripR6EjA9aMRAVdTLyqOFXEGx2d5JQ48bnU335KAd1XAFfbKL014x7mIh6fOgj0dAetWUH6mfYgq4JnJU7BpYK9LJeA4NuHVOTublP1eL5ftidFhLttet6tm6TCkkQkbZbtRSiJEAt48JOAt0xMCXmODqEECdo7aS7KtdVVKa++F+txdD4aqNjbjc3ulkBSS7PNGAq47fSfgj50/c+H4zIT2bsEmKRTyEI8GuVRr1aNW56AWL40HIRvTWcZIwOV7ReoJuAJGUGM18orxq3d4sn5UnARceAEfenAZRpLzMLPxLkxs3QCnNQvGYSaiZjkaxCaddiCqgJtOPAlDT7xQvFrHFpoYGVNyPr1swt5Lttm8BqFoVLMSSSMT9l6QgO8DwQU8Gw+CoZAjAW8Sn3+IibQNEokEDHiHeQqYyzEAo8MBflVqpCKy3cq52+peCxLwztB3VVD+yRd/7dsvPPfBC/LdtoMpKLbRU5BKa+8CzkUW9C0JeJCroPiP8sYAavLRpZYEEI9joEa3TazcgIuuUofNOjWozUYJEvcvyY/oyAGpglIP48hZ+btqTv7gj8DNPgvGQR8YAz750V0KTCJzm2HIs0lqP4hQBSVrMEHKYoeoww8p/xSMPPJRyLvYYoN9puuhVDNQavR2shJJ8Txlk7pGJ0wRELmSR/Ecu8u/NwydEU7Aha4Djp87lEmBqqAo1YMCPi+X60bo9LmbC80BpON8wWdwi1MXf3NzM3LhwoXqAb5HqV5SEXXB9BTcyV/rg4+iwssUYsSUSSshJngcV+6+D5df/zYs3XyXS7cCpqfMnHkSTjzxX8HI9EmwOb1ctnHgxLz/qfFRODw9BccPT8PsoQn5X+kMNjYh6sMmqNzqBqSv3ILs/VXIb+2mFUkWM5jGhsHy0HEwToyA5OquRDeMJDF5MIPkHgBp0A3SMJt7hr2QHw3Ajt8PD6xO+Nm1d2D5/m1IxCKAsS68YXoIRsdwo+rK+gbcmV+Em3cXYG5hCZZX12EzHOURsk7IN9Hf5PL7uzrSryhzBqZ7Dfk94JSSkFu7AunVazBQiNeUb2WvhXLu3ltcpnNXJt9nn7W+S0F56vFHfqVdKSi1qHcZsHjSWcETGAXfyCzYHR4wGg0tt72v4iCnoNj97GWUL2pKlxj3Qa1ccZPJVMwVH5vh+bNau8qxhOXGUrFLna7wS/cVC39KQSkRWHi3bPNlgU1g+eg25NhkhRhUk53BbmMLZTcY2A0pYGfVBi/T6pqCwsYJsJjY4t0GktMOksfBXqOzeJ995iQze479jNEggS2fBn92C2ZSK2Bjn//15A6sry7BVjgIkZSkWYlkv2kk+4FSUPaBOgXFMczWZGLFzXKJzQOfgoJzgboZFc4X6lbtTocDvIMjvAgApjniXPNg7jJg/W08J2LJdNtatbeDUgqK1SXUMd3YWF/99re//bvy3Z6HIuBtBJuy2DObMOK1w9gwEze/F0anDvNo6snHP8lTHgpS9Q5lQgzqRcUrwSgFttzFaAQhMI1ExU8f7XxU3MwW8FYzZJwDIA15QBofBMMYuw15QXI72GLTCpKpepFfyOf5gqGwFYd8MAr5tRAML9yGwVAxXSqZ2Ob7Uiiy3RwUxW0dI8ifNcEWBnqhRLZxYyRWIDkyPQUnDk/D0ZlDfN4PsHkfAzWVGyRxzsiBCaz+afAdfow34MHAz/zNS7C6EeRzCZ27BwsS8DazFbwPdy+/Adff+i7vLKWAm/3GjzwM5575LEwefxTcg2PyM4SI4MCIx/HWu9/nxxFlG3eULy6vwPXbd+HGnXswv7TMHyN6g3xkC7KLDyB98y7kgmGeF65gZJOpeXoCzMdnwTDo3d28uV8whQRle4AJtYeJtSLbI34u21Yvewyj22xSr6SQzVXJduHBJhQ2ouyxBEAqzRYYOfaDJI/7Ba8qEEQlatkeYmKtJdtYEU1LtpU0kgU2Z6hTwBTZFq2jKdF5SMB1ol40FZv7qKPiTVHoUi5wvd8rVUfq+gVMT1m5d5XL9sZmiLfjVUcoMBWJcv57DDkqnrl1r3ZU/MTh5qPiimzL6SNctseYaKNs+93s/4UVBWrIdjpbLtvLQSisMuGulG1CFygCTqhl+9D4aJVsY1WSerKNwRgt2cY5o9ci29g9mtAfEvB2UkNEK6OpCkpU/OFnP8+j4jasZNAKgu2KP2hwCXeO8Cox1uHj4PCKVQmAqE0jUXE4dhhyfn95VFwt2z4X3xxZkm3M264h2zyFBGU7nmK/Owb5jUhRttfZ71bLNkW1CWL/yHNy5Z4tRbaHB/2aso1527VkW7kaqsj29Tv3uGyvywGafkgjMUqUBtMJSMA7CI+mqqLiydjupjGMih9/5NnWouJEV3FaDbwyysmjs3Di5Bk48vCH4cyHXwDv6GFe7pDoAVRR8cy9pbKouMVqAvt4oBgVnxyplm3cJImbJ2vJ9naiJNuFlVBRtsPbALEkwA4TfpLtrkMpKP3J+NFzcPjcM2B1+ssqWJ1ii+ojTLaHAn5wMdm2Mdk2MNnGM1G54cblGJNtbM+ulu17mHqokm2CaBUS8C6BUfHbP30N5t77u7pRcezUSIgLVkGJLr4Hq7fehtDKbj1sbIhy6Pg5OPXEp2Do8HnK+e8hCvFkMSp+7Q7k1jchn9ytsoPVVBqSbczXVmQ7GifZFhxKQekPcDzGuulKUMTrdvJKVsdPn4NhJttKZLsSbKpXa5+Pknqol2yLVtddZDJ9dp72nYDH4snO1ERrE9hpU4mKry1cr4qKH2Gr93pR8eKltOoBhegs9a5ujE3OluX8U1S8R2BSjQKenVssi4qXZFu9ObJStmlzJEHoCmaBYat2JbKNVyBHXEaw7GxCdOESbMz9tCwoooD52pWyffvuQs19PoQ4mPvsSlXfLb0++MhDFx46Pn1evqsLks0HlfWoOWzC3U9bcpTx0Mo8xCJB3i5daXvP20v7R3i7dLPdyQXO53XB5NgIW9UPgoUdRYyo6wob7Wq2Y88zGUnqXw1Erzrge1Lvb9c45ijjynHEmq9KXXHlOGL3TYPZDgb2/224PryodcAx4tSBY480Uwe87WSyvK54PrINUirLTlb2mcOIdpaJtgBRmbAzANsD7BgZTGAYaHEviY6IXgcc8Bwu5HnNY9FqWecyOyDtFD/bItYBLySC8nuHNaP1KeWJ+doWuVX7yHCAt2vXatWOY+3g+GFwB8Ygm07B+sINHtjCztXheBZWVa3aE8kkpNMZNoR35/xVzgns7izZPPKjYlBIiFkXfyMUjnznFaoDTugIivjCtbdKpQx5sX4Z//AkjI8Og9/rrdogQoiF+uoGNl1QR8WHxmcoKk4QxJ4cpPz0bDbLZdvldPAa2zNTEzyyjfna2HV4jM19tWpsY2R7azvGu0euhuIQLbh4C3pkKxLkwi1SZDuX64Eou2CLvcT2lo5Rls5DAi4wSinDG29/j6c1RIMP5Gd2B5zNUAQiMez0ZZOfIUQkuDxXN+cfc8WpPjxBEJX0a366UokEW7Ursv3QyWNctg9NjPFGdvVkOxzdKrVqv3V3Ae4uLMHSg1UIhaPCybYWBolS1A46JOA9AqaY8Kj4O38Nc/OLpQEH64xG4ztgHDwGBt9sacVPtJFC+wbyelHxyvrwFBUnCKLUabKHUWTb6bCXZPv44Wku2xNjI3vKNgaaKmX7wep6z8h2r0GbkjsDCXiPkUklatYZNdrc4Bo7CaOnnqYSeD1AK1FxnMRw4xHmPvp9NfKyiYNLHzfFIsTE7i7fc6DItl9u1a6W7enJiYZluzLQRLLdOagsZ2cgAe8DCpkk+KxZXtsU8+SGh4ZKJfAorUF8GomKn/ngc2W5kLgPACcxgiCIboGyPX3qg3Dmw5+BsYkpXmNbkW1saNOIbC+vrGnKdj80tOlZutVx+4BBAt4PsJMluHi9VAKvXtv7bC9s/DjA1IqKYwWVykmMIBSy0CMRK6p5vC+6WTMaZdtQyEI+vgH56BIEnEYu2xazmY9PgZHJuq3aUbax7F+lbGNFEr1kmwS+v8hm+ys1hgS8z1Da3isVVBSUtIZHP/qLvRsVP0CrcnVUHMtoxaKhqlzIB6E4SFhyTrCd6kTnMfHefQTRHpQ0EnX3SJTtUydPwuzhozDIHl+b+xlc/eF34MHce6WrdopsKzW2K2W7063a8e/gUGpWX2Ay9VdqDM3cbaRr0QmNwUWpoKJExett9utpDkBEbW3hBty99pPqXMiCBAbXOBiHz4DknqQNuASxXw7gYhYl1WQ0arZqV3ePVCLb2Fly/Mg5OPPU58A/dRqCD+7B7Z9+H25eu8y7R+I4pe4e2c0odE9EwGlx0DDRaJTKEIrMdqy3OmE2TQsVOZS297fe/b5mVLyhtvdtrATST3T7krCy2Wn80DE4du5pOPbYJ/iiyqDVKIroW3omBYXoKjhmDNhtTLZ9XLanJ8eYbM/CiaMzTLZ9TLYdTLYt7CfxisruDSPb8UQC1oObpcg2ynY0bWLPF0mndW6I1gIil/qj9BiCIuCt0KOpEOp26Vqb/fZqe18TyuvsCrnUFkB0AQYMGb7ZCaNUdoeLL6oeeuoztAH3AEEpKEQlZpOpTLYPH5rgss036vPItgOcjupKWelMpqJV+z0u2/NLD2BjM1yKbBP7o5QeIzI0t+sKCfgBRb3ZT93gp5mouBKBxUYKRHdQuqZe+eGrPFe8XqpRNkeS1q9QBPxgUyxPWpTt8ZEAnDw6A8ePTJfJtp09Xwnma1fK9u27iyrZTlCkVi+o0siBhwT8gFMpcGVt7+Wo+Oz557jAYf1pJU9wegIvXe7mCRLdJZ/L8FzxeouqRz/6CxQVJ4gew+ENlF2VRNm2WswwOjQIM1PjXLaPzEyVZNvn9WhWTFJke2U9yDdxo2zfXbhPsk0QXYIEnOAoAqfV9t7l9nGB242mOMHpdMjPEqKx16KqbzbgEiUoBaX/UK4wOhzO0lVJRbaPzh5qsFV7tWwXN3GnSLaJmuToamlHIAEnqii1vZdLGeay5fl+ygC/tR3jJfGWV9blZwiRUC+qaqcaXaCoeB8gegpKjmSvLopsY6t2p6UAudAcQGQO3KadsiuMjcj2rbuLXLYfrG6QbBMtYZTE/LzkCv21MCABJ2qilDK8+qO/5FFxpf60Utd16cEqH+DjKSbopur8QkIctKPixcHMP3oIZs48QVFxQjeMvbDhrEMosl1s1V5MIzl++BCPbE9PjsP07FE4+chT4PEP8wW0UkoWF9Ao28VeACTbBNHr0KhINARGxUv1pysGeCzFZxw8BgbfLNWiFpzyqPgbbFJfkZ/BqPgAjB85u2dUXF1dYXS4TulKomNQCoqYVMr24enJkmyPsXOnVhqJ0WwD38QJGDv1NFjco6WrkijbqxubJNvEgSS+vU11wAlCC6PNDY6RYzB0/EM8kmq2Vpe4IsRBiYpff+t7sHF/DtKphPxMRVR8dKpsw5e6ugLKA9F9KAWl+6hle3x0SFO292rVjul8c/NLpcg2ynZWsso/KSa5vLiLP8plJkSm7wQ8lkj0dyMeASnk0jxXsTTZjI7wSOqpJz5J+cU9gJJqVNyA+9PqqPj0sZqROoJoBNFTUJqVSEW2PS6H3D2yXLZ9Hveesl1saFMu25Gt7arukSILLmI0iLv4Mxp7oDwn1do+sFAEvN0cwFbGSHj5Flz94X/mAheLBOVHKb+419jdgFsdFdfa8DW/tCw/S3QT0VNQRI+A15NIRbZLDW1Usj3J7he7R9aWbaXGdqVsY9m/brdqbwc9EQEXUHJ7ITovUZt8XSEB70EKeXEL+KPA3b38Btx69zUucAqN5hcTNehw0wZ1VHz+5ns1N3zlCkxcKO+/61Ajnv0xc/ZpHiBAiVb2Nyiyjd0jUbaLJVhry7a6oQ3K9o078/x8UWps94Nsa2EUuN070RqiX3XpF0jAW0FgARaF3bb3r/CoeDIWlZ+hqHivsRVar7nhSzJawOidBkPgBEgDg/KjBFGOiCkoGMhQZNs2UKy1ffrcB8u7RzLZrqRStm/NLXDZVje0aWerdoOgJeEqETFaKmo5PUTo1yZYWtF777136dVXX33l9deZUPQRJOD9gOA5ZBgVL3ZofKNuVLxe2/tuI/JVBxHAqg3O4cMwevpZGD96jq5wEGV0OwUFU0gU2R4ZdIEjF4L8xlVIrVwBKRUCi9kk/2Q56UymqlV7pWxnsln5pwmiTyh073zl5ypb+OLG/x+89torzz//vPeLX/ziI7/927/9+TfffPOP5R/rC/ouwWdtIzQfS2bh0YeOPik/1HYkmwekGnWvC/EN/G/xjk5IjiGQ1LnmhRwUEpvyHf2QBgLlv1ehwd+PaQ2x8Dovg4cYTWYwW4rvo93p4ZFx38ghfj+xHeZf1Uh2H4+4qimkt9n/OCnf04+q91xFId6BRkQGExgqI8y5NBRSHdhzzN5zA3vvtcANuEMOgPHxcQgMDvKNmgMuH3iHJ+sey1YwOEfk76oJLLwL1g7sv5aMRjCYyz+DIrDpHIL4gFc+VruNW4Rhhx2b3A6AyQoGG3udOoITuMViBpfDDiPDARgdHuSbiHFjJP98DjjAOzTBP59YlnN98QYfk3C/g2SyQzSWhM1wBB6sBflmSdwYiVeA0ukMFLrQCKSQZePbzhb/vt450C0K8TX+VWLHtda82C34vJTPgmRx8ptICP3aYvofU9xbYWXnKS5+B31eNn9gWVv5XPW6+YL5gx949OT/8hv/+J8ZTcaZeCIBKyurN+V/3hf0nYCnUqno5Ws3v/v1//CXX745vzo/OjI8M+x3j8pPt4UDK+D1JDSBf3fjYAm80Mo837CJIm4bcPHH8XuXfwRGpk/yMobJRIyNUcXLuZLVXfW+k4B3V8DxNcRWbkJweXfDZq1jmU6nIZtu/ViRgNdm0zMGcbtbWAHnn9M2C7gygdvtVvAzuS6bwNl9l9PBJncz/7lKcHNkOpOHjMEORucopKMrkIpFIBrfgWTW0DXZ1qIk4Gz8MTiG5UfFgQS8NQ6SgCvnqtMxAF63i5+rI0P+MtnWOlcx3WuHnYsPnXno/Gc/89lfSSaT3kvvvfdd+emep+8E3OfzTj//iY+/9ImPf/xXPvPCZz790U988uTk4dP8E9SuSBwJeAVsompWwBUwKh7dWIbQ6iK/jxFxFDcEo+JDE4d5OoPBYIRUpgADLg94Pa7iitnnBhNkuMzrDQl4DQFnE0ghGeLfYt6/+liiiONxQ/BYDo5N7ysqTgJem033SF8LeL0J3MPu7zWBx+IJHskOboZhdX0TQpEobG3HuIhjCknxHC4wEXKxm6P4jwVhV8AlEvAmIQFvjf0IeL1zFfdV7HWubm3FIBgKs1sE1tn5iudqLJHk+ypuMH7yk598R/4nPU/fCfinP/7My//ii7/6r5979pknH3v8yRmHw2mrisSlEpDNsMmgRUjAK9iHgCvgpWBMT9GKpKKU4/EbHhkrXUa2Wi1gZicxyjcJuM40KOAKyrHcWLq9Z1Q8l83wRVgjkIDXpp8EXJnA3W4neFzOpidwtWyvBUN8Asdc7ZJsa0S2ScBbhwS8NfpBwPWSbbwClWU/U3muvv/++5dIwAXm5PEjz33gzOxzSq4xTvAmJnDqXOPB8dnShj+M2jULCXgFbRBwNZWRVIe7WiiUE3g7sgGpNl3ZqAcJeOMCrqbesWwk718NCXhtRBdwQzYOBUwVqxDwStkeHhqE4YCPT+AuNqk3MoFHt9kk3oRsa0EC3jok4K3REwLO5hxl31WnZVsLEnDBmZwYP//s42c/Ld/lk7pWrjFW4PAExsA7Ogsmk4lH6jBy1wgk4BW0WcAVlEiqskGKLaX4Bin1ZLtTKKar4HuAg5lekIC3JuAKlccSaTYqTgJeG9EFfGrmOPiHx9hknAWXb5hfxRodDlTJtpmNxXvJ9vrGZtkE3qxsa0EC3jok4K1Rem24t0mwz9zZxz4MZuZI3JM8xQ2SnZZtLUjABefwzKEn1QKuUJlrrOSnonw7vQEYmjzCJ39kJxnjX2tBAl6BTgKuBiOp8bQEKebYlZMtDqwopziIYfnSQjYlP9M+SMD3J+BqWo2Kawk4TgBYq9l/7x2wxDtwJYQEvCF42c7sDlhNEq+Q4xiwsTHXCd7AKJdtjKLtJdvhyBZsbIaqZHs/E3gtSMBbhwS8NXYFvLufOeVcLaTjMDY+wWUb5druZAtjt2dP2cbzFKsGtVu2tSABF5xaAq5QLz8VJ/9GyqfVFfAEkxGda2geRAFHtN53g1TAjbd8J/Xw8CiMTM6CZ/gQGywkyKR3+PFuB3UFPIE56PouuvpJwBWajYqbHIO8vJyyCXd8BCOofr4vwHbtDTBEO/AZJAGvAidmbNyB0TG+OZp9NWWikN1agVT4PmSSUTCx90w5tgp7Rctw05Uesq0FCXjriCzg2VgQDGx+FDHKvPvaOveZw3O1cn/FoMcBUioMqdAybK3O8XkFUZ+v9WRbKdHZiXP18mUScKHZS8DV1IrE7XVJvL6AMxkjAdcFrfc9F1uHdGgBbFYrePxDfIAxWyz8+DVzVWMv6gp4B6569KOAq2kkKu73eso24aojMqbLF0nAOyDg+J7jFYdSJSIm22NsIRTw+3Y3R+NVRc9gaa8NHlul1nYmL0EkkelItKwZSgKOEmm2Fx8UBBLw1snFNzsuuQ2DcyZzBb1eW6Vs4zmL52rl/gqzxcrny+FDx3naSXwrDBuLN/lYnMxbIBje6opsa3HlCgm40DQj4AqVkYwdAnoAAERZSURBVDjMe6rbIAZPGDZI4we8MvITXZsvXtLRERLwXfCyWS4ZqXv82tEUhgRcXwFXqBcVrwTTEXAyiES3wX79h2COdeAcOEACXiXbPjebwIfKKxEx2a4Eo2V4bPC4bCfZZG10QibFFsC5HUjupCFjcHRVtrUoCThGSknAm0JkAddbcveDEqxrx2urlG11zrYi2xikwp9TUxnZjqcLXLpxTsOxOG2wQ45poijn6ptvvnnx8uXLVAdcVFoRcDUYrcFNm9HgCuTzec2ouMPhYB9sv2bkZ/PBPf7B1RNpwA+Suv38ARdwyLCbTCPHr5WoOAl4ZwRcTWVUPCdZIRTdKqvlrHQp9N99hzZh7kPAmdvxSVorvac0vpnlDc8q1LKNE/jaRoi3bVd3j+SyjZ/TDnXCbAUS8NbI5fJMcvG9w/FZxBzw9kluu2n1tVXKdrOVg9RpJKsbmxBmY6r6XOXzOZ/T2DFl435l9+lu8u677/6YBFxg9ivgClgnXInEIShwSlTVYi3u1q+ET0RrCx0Q8EC5gDM6IsA9IOAK6uOnVYqy2ag4CXjnBVxBiYpvFxz8HNOqeBGceQx2BnxgzCR1FfF+EHCtVu0jbBKvld6jkM5keF62ItvYqn2DLYbUso2LXi1IwFtHZAGXIF8a+0nAm6OR19aIbNfbzLynbGtBAt4xSMAboLJtOkZQlc1DSg1aJSKX3WYDOTup9KRKwDslwD0k4GpQsBtpe1+r/B1CAt49AVeoV4YQSXjHuYiHp86CfScC1i02wbUZUQU8MX4cojhRVgg4ynbLrdrZGIeyjRFtHN822SSulu1mLkuTgLeO0CkoqrFfXTNaFEQW8AGzBJnkdum17Ue21VehmpJtLUjAOwYJeBMopQyD0QRE4plSWSx1RE4ymtkwzr7HyUYnSMB3aUTAFZTjt3F/jr3kPM8VRwlHNHP9VZCAiy3gQw8uw0hiHqZC78NU5Co4rVkwMtlkMxZ7n9iCONOeGvGiCrj53EfBc+Yp9nm2gNs7WCbb9Vq1IziGJZM7NdN79ltjGyEBb52eEXDBZA0RVcDxPJw5egLGD59h56UFhoaH9yXblSlf+wKPqSLg6BrMaUSh3wRc2yiIlkFJNHqnwRA4wSMChHhgSgOmptx4+3uwdPOnPF9cAaV8/MhZePjZCzB5/FEw42V9FTggYlTR7/NAwO+Bw9OT7LG+W8f2HIO3fwxDb70KzqXrYMoXy2ghRnaczLNTYDp8CAxscusHsmwxFrO54L57AtZOPg2xz/3PkJk9zz67DhiZOsIncUwlMbLFghpl8sbI2Mp6EO4tLsP12/fg7sJ9WHqwCqFwscpBrTQSojvk8zov7gldwTnDUMhCnkltOrQIbtMOHGfjES6IEV9gmG921jpf44kkvwK1uLwCc/NLcOPOPMwvPeCpX9jxFVPC2g2d/52DIuAtUC9KgnKGl5D8Ph8Mj0/D2MwpsNqdddMbmqVrEfDKzZ8KPRIB16Jyox+mpyhCjVHxoYlZcA+OgctdrHKjjlIozUTWl26zt0DnQUsrAp7PdSb63AMRcN4JMxaCApuUchubUMhk2Os2gGQpTnKSmb1/Lse+o+Idj4Dj7kgz+zzabez8s4LkGgCjewBSHh9seMfhvtkN61sRKLBJXr1PRckBVafJ7adV+36hCPg+yKUoAt4inY6Ao2wraSTYm2Jo0M/njOHhIXC7nGAsZCC0fJuX+cMqT3jO4sK5I5HtBimggOP7xiimFVEEXC/6TsBHhodOfuKpRy/Id3Wh3iC9s3oVrIY8uNkEaR8o5nXtld7QLN0T8Irfq9DDAq6gbPTTatCEUqNUudG6JBi8f6dLAt4h+e0VAVdtviywySwf2YIcE07EMLB7vhqYzGJkXGJCjlJTYBNco+gq4CrZztrYa8QGGUy2Dc4B9tm38MWEZDKyH5PAlk/DcCYMkzvrILHF/SqT6iBbRMZjMYiwP0eRba00uW5AAt46hXQMAG8k4E2jp4CrZdvtdPCNzOoADUa11XMGziMu/wgEpo5DrmCA8Mo9CK8uwOYWO3e3Ul2RbS0kXlVNTAF/552f/Pj99ykFhahDeG0Rbv/0Nbj17ms831ihMr3B5vDIz/Q2mlLew+DxW7j2Flx/63tlx6/WJcG8znXfiX2QyUJudQPSV29BdnkV8vHdq1Ao4qaxYbCcOQ7G8REmuVb5mQ6gyLbDDlkPk4MhJi+jfjAMs5vXCRa3nQmDiZ1b5UM0RqcKaSbTTLjzkRgY1jbg0PwVGIwWazHHtsKURtICOUrzIOqAEq2kHo4E/Dz1ENNIjsxMwdhwgO+5aCSN5NbcAp8zohkzl3D+M3SuNkw8HuvApqfOQQLeblQyiukNK3ffh8uvv8JzjpOxYjQOwYj48cc+CocffhpcgUn5UUIkMGVIOX7Xb92pmX+HVwayUF2WkhALjIhn5+9D+tZdyLFjqIbnih+Z1idXXJZtTB+R/O5q2Xba9pbt8Bbk10NQWGW3jTAUonE2GyXZh5Qt/roY2e4XsKGa8Ej9FegQFbVsT42P7lu21XMGXokiCAUS8A6BAo5R8fmrb5Vt+nN6AzB7+gNw4omfK2sSQ1Sje5pHHXjDiRpgaoR15BRk7OMA1vJNm4SA6BkVR9nGVBGVbBvGA1y2JbcDJLu1vmxvxSG/Ga2W7cROX8i2RBJJdJBcTj5falylVWTb43JoyrabPa6XbBslinwfdEjAO8zW5opmeoPVauUCfuqJT/L0FNz4R/QGyiA+NXsUZk4/AYcf+SgEJo7QYqoH2FdUvEK2swFZtoe8ZbJdSV3Z3maLgVSaItsdhlJQ+pPxw6dLqZ7KOD006KuS7Ul2v1HZxspBFNkm2gEJeCu0IedXnd5QWQoP01NmzjwBJx//JBc5og6diqgVah9zYwxLS6UBW3fjIO50eXiuPy2meohGo+LsK49sjw1WybbFWkO2d9Llsr2ySbItGD2RgkI0jCLbWJbz+Ac+BrNHTpRkWxmnW5Vt2l9BtAsScAGotemvctOmwxMoPiEvAJRBZtDXH5s5e5VUbDfXHxdTlbn+tJjqLepFxXlFEoxss3OvkirZXmWijbIdjJbLNiEcFAHvXUppJA4r5MLzkAveAnsmCCPe3YpZTpe7SrbTmQzJ9l4IVmCh3+IUYr27bWBqYvy87mUILVjSSDu9gJdky7d2OUophYf54lgKDwVcqeurLmVoMplgZGS3c9YAW8lj+Ty9qVmGkFEs46UvWiXCChkmNliiS2fq/+1Yhqs4MuDGW6XtPdZ+d7iLbcEr294jO8kmXreoZQjZ311IbMrf60szZQjbAgo1m4S16opjCgngZedEiv1MEgoRdixRsjFXO81+NtvZqPamewTi2DSKH6vdVvSioJQhlEx2Xk5UOOLFKjJCliFUxjjJCAbHkPyoGGDEWErKJes6UIYQZRtL/2GN7UFfsTeD31est+12u2Fk8jCbMy2QiG7COptHlf4OZruLb5pX6mw/WAvCZihSVvqv02U6S6UvbYJ95tRlCB21571u8Oabb168cePGD+S7PQ9FwAVFKWU4994bVVHxoeGRsstnSjt1Qhzi0WDdCjgUFe8tlKh4Zm4R8g+CxRQSdWSbUkgIoq1o5WyfOjZblUZiZcKtxjk4DqPHPwD+Ix+ETDoFK3Pvw82rlyiy3SD1Cg50m1iMyhAKTTyR7KsDVEvkKi+f5SyUhiIqSgUcXEzVa3tfSjEixAUnbpJtguAYpfacCyjbJqNhT9muBJtMKfPgvcVlnkZy++4il+1ofEf+KbGhykAHF4qA9xCKyF2/cbM0yCgreovvEBiGToOEndIMFBEXEVxMqXP9lY6bCEbFj5x7unZUnJr9EAQhMg2KJMr2gN1WJdsnjs42Ldt3F+6X5kFqQNUe2rWoIvaGBLwHwdziSnBQs9vt4B8/ChOnn4Lxo+eo+oagKBVwbrz9vaoKOM10SzWbqfkP0RuQGB1Masn27KGJAy/btPGXIAHvE4q7vu0wMTbMN2YGxmcpz7gHqFUBB8GoOHZLnX7oKXY8Z8DrdsHo0CDMTI3DyaMzcGiCFlhEb4AiRvQfFutAqdSq0Uiy3QwUaSZoVGw3Xcrn2gouw93Lb+xZytDm2keFBEqD0I16deE9/iEYP3ymtLhyDNirSmoRBEF0CiWy7fW4wD86DTNnnoRTp043LNsr60FKIyEOPCTgfUalyFVW3zj+yLMUFW83bV501YuKI1j6CyeyyHZcfoQgxIakqndRp5EEPDawJB9AZuUS5MN3wQop+aeqqSfboXCUZJtomk6XitQbEvBWqNMVUSTqlTJsNM+4YST6KLWbssXUrUuwvLIOc/NLcOvuIp/IQltJ2nhL9ASUgtI6ncwVrsrZPjRRlkYyMjoBx84/A4cffpqXv8VAwZUfvgprC9dha2tLONmmPOt9IliFFknqr461NCoeACpLGVZW38A8YxxQXYFJ+VFCNMLry7xpBDaTUE9k2CQBG9SYR06DfegwbbwlhKRXIp0iloTTq01+pWzjvpKqnG32fCUY2c4bB8A6dBRcU4/wBnI4rywuLgob2aZSf/0BRcCJngYHSq3qG05vAGZPfwBOPPFzvFujwVw98BJiUcjnwDNg4pudjh8+BMdOPVy28bYgUZUUguh12hHFLTAh3ku2tfaVoGxvbcerIttLD1a5bMeTSfknxYQ2OjaPyFcNEol2tzvuLiTgB5RaecZWq5UL+EMf+nRpd3stMIKCncr8Pg/7niIMHSeXhtC9n8HS1R/x9vcKSorRuWc+s+cxJIhOQCkordOsRGrJ9kOnju1btiln+2BglOgYd4q+GxUTfdYJU5M25qBXbtqMRYLyM9Ut0202625uoBx1xU5lY8Md6uBIVVg0ScWjpWP4YO59antPiAedu7pgNpmalm1lEzfJtiBQ8OrAQmGJfqENmyAxKl6vlOHRo8d2cwOZjFMpPPEILs9R23uC6CPwiiS/khUYL8n2+EiAy/bxI9MNyXY4urtBUtnETbLdPXI5er8JEnBCg3qlDBVwUFeaJywur7ABnCJcIqG0vb/yw7/U3Hhbt+09QRBdpZBJgtmQ57LtcjrYOTsNMycfLcm2z+tpSrYfrG6QbAsENi0iCPoUEHVRlzJcWV0ru1ypNE/YjjG5M1rkf0GIhFKhoJG29xQVJ4jOg/toMLLt97h4l9sRlwEsO+uQWrkC28tXIR3blH9yF1FkmyK5rUHvG4GQgBMNgRHVzeBGzUHdOHgMDL5ZyFnaUFO8GSh/rmEqN942HBXvkbr3BCE6imxjZBtlG9NIcB8NRrbHRod5l9vA+Cwcf+xjvDSs3enh5+zl178ND+5epch2n2DokeosWOZWJKgMIVGfAyyEksUJ7tGjMDD5CAQmj4HZOiA/Q4iEkmLUSFRc3aRJXfVmdGiQC8SR6c7VjseyiwTRbvSKRlZGttWyjWkkKNv10ki20xLsmAfB5CpWMQquildnu6xCCwVDCJ2hRjwEoYHTmC5NMEcPT8P44TNw6olPUhk8walVjhJRmjRNn/pgVdWbQb9XUyAIotdoRz6uItvKwlQrst1qznaOItsEwYnH41QH/MBDl+SriK7chqs//M97ljLsWfo8+lqvHKXHN6hZ9QYFIp3JyPcI4mCAsm21mDVlu9bCVJHtzVCE0kgIocnl+ivNQ2RIwInGaWDhsVcpQ9rwJz5ax1ARCKXqzdz8EhcI3IhLEL1MvRQUlG2Xc6BKto/OHmpJtlc3Nkm2O0TZcaX0mIahRjydgwSc0IV6pQypDF5vUDqGP/qrkkAoVW9SO2kuEJLRAjmrn40kZvlfEURvgSkoDz/7eR4YcLl39zcosn1oYoxkuwfplY2OxN6sr69HXn/99YvBYHC35XMf0HcCvhkKzy8sbfTVQep11KUMG93wRzRAB6M69QTC4p0A49BJkNyTAFa3/ChBiEk2m+V1tgupaEm2Eay1PT17hGSb6CwSRefV4Gb/AbsNpFw28vWvfe2rzz//vPcXf/EXff/yX/7Ljz548OA9+cf6gr478qlUKvrKdy/+7s351fmdTA6Oz0yclJ9qG5J5ACSrS75XDg7qkNuR7+mDZPfxyKOaQnwD/1u8oxNav1ehkAix/9SfeDCiGt1Y5mkNBfazKOBGUzFyiuW2BsdneWpKNpeHdGKLP65GsrjYrbyySiGbAtip/tl2I9n97G/XjvIWEsE9//Z9wwZpg6MibaeQY7+7ukZw2zGYwDAwKN+pBi/T2+1WGAyMwPDEDATGZvgguhUJsa/t27UuOYZAqtHxNbDwLlgT+u/PkZiUGczi1bzfdI9A3M4WP+z8NLDPqmgUkmG2isuAZLKDZOvcQhs/h5iv7XQMgNftgsCgDwJeB0g7YYhv3IPt9Xk2Xqf5z9oGdsd0lO2ddAa2tmIQ3Y7BOhPs9c0whCJRiCWSXMQzKPIdKItWSMfZ4Mlue5yHXSHP3oMkG/sZ0kBArLJ17NgU50Ucv2vPXV1B/drYMa01t3SF7E7RYxgG5wj/qhd4fuL+Iq/HBYM+L+/wyhtNedwwNBSwffITH3vy5z71qV/ZCAbh1q3bb8n/rG/or5ouGvi83ukXnv/Iy7/+4qdelh/aN3jCGFzFqEkluciC7kJo8ByqmsRy61fZSa2vBGKdbyw1qEVu4wafYJvFN3KIV0nxBMorpezs7EBk9R6EVhe5uCOSc6xKQvNsYi9s3Zfv6YfBf5QtvOzyvXJa/dubwmDmUWY1BSYO+eBN+Z6OmGy8zrsW+BrsmU1+DIcmq9OJ8Phtba7w234xDJ2uOcGf/MEfgTt4T76nH5LFAsYBh3xPHG5OnIV13wSA2QFGv3hpXbnQHJdIyeZj49eU/Gh7wcncYjaxBaGVLwptbGLHr5WRbDWh1QUIry9DPLLGy6Z6J09Dgp3K6UxWmEh2PrbGZG1NPg+Py4+KAV5JyIdu8+8NgZNCSS6WLc3jvMgw+A/XnLu6QTbLFqPB6/x7Axtba80t3QDlO48ewzCOPsy/tgM8P/F8xKtLeI6aTUaw223ys9rgQhjPxQRb9KbZgvdzF37huTt37vxAfrrn6ftrHxgRv3zt5ne//h/+8ssYFQ8M+mdGA95R+emW6HoEnMm3xAZjNd2PgLcWBU7FozwqjqKGONzF6J3JZAKnN8ClTqknns6xk5h9j5enlBXzgLkA2yE2OekMRcBrRN7Ya0iHlyAWXucdNxG8qmG2FD+feGXDOzzJF1pIYjvMv7YCRcBrc9Ai4FqR7ZEhP08fcbscfIywmM3859RURra3k+zzK9mY5K7zrrGpvBlyklmohh/Z1DZI2UT987BbUAS8JSQ+dhcrTQkbAWdjrcE5LD/YHJWR7QA7L8dGAjyyjQJuZSJuZotlNZXnZnAzDGvBUNlVp+985ztfD4VCxdVBH9D3Aq7m/vLKe3/1/R/+32/85NpFdjJ6T8y2lp4ipIA3kAKyX/QQcAWc/BSJww6NKHGYooIoEjcyNglDg8XLU8pJnIpvtyW6uhck4LUFXP0asGNqaGWelzHEY6hc1sfvXf4RGJk+yRdUuWymdGWjUUjAa9PPAt4u2dZKI8myn8FIdyEhi5rNWzW2dhspw84TSkFpHqFTUHpBwKWGBBzPOyO74flYU7ZN2rIdiycgsrWtKdtaKV4k4H1AKBxZePOdS3/+zb/426+mMmAb9HhGvR6HV356T8QUcP0lUE8BV4NRcdy4WRkVrwRP4mQsQhFwvWlCwBXU+f44KWNEXJ3vj5Vwmo2Kk4DXpl8EXG/Z1oxso6gJLOAUAW8REvCWyKVTIO1oC7hyfvq87jLZxq+tyDZW1GpmPwUJeB+RzWZ3MD2l2U2bJODV6PH7K6PiOEjFkumyy1PbScy9Zr83kyz+I50gAW9OwBVwsy0ew+DyHD+GSKtRcRLw2pQE3GwHA5NI0bAZ80WRVAm4MpnbbBbwez2dkW0tBBfw/E6MBLwVSMBbwuPzQ2CIiTcba412T5lsDwd8/PysJdsInn/tkG0tSMD7FExP+dHbl/78O9/74ddjySw8+tDRJ+Wnqqgn4LCzjSEL+Y4+HBQBV8NzxeMpiGcNZScxChkeC75bG18bVjRgk0K7qSvgKYzutf93ltGjAq6mVr4/okTFcTOngU3iWlFxEvDalATcZBVSwKdmjsLI5GG26LKA28MmeJVsY6S7Y7KtheACLqXZnIJpKAIKOC6apRQJeNMIJuC4YdViMoLL6QA/k22PLwDeoQm+MFbLduX5iedfMrkDoegWl+3V9c22ybYWJOB9TiObNiWjtRTFqaSAFVBIwHVBsjiqdrIrUTS32wleNmiMHjoG3sFRNikXNEsZtkpdAccIkN4CzjA4KvLxekzAFSqvbCBKVBxTVZSoeEEyQS7DBIvdkEoBLzv2c++AOab/e0ECvjc4mRfzSCMwYDPD6OgYF2yzxQpOt7ch2Q5HtmBjM9R+2dZCcAEvKALO5h3R0ovwXBZVwPHzJCmSSwJeQj1uBvw+sBuykA4vQio4D4Zcim+OtDurxxA8/9Ls/NwMR8tke4stjPWQbS1IwA8Q6k2bRrPFq6Sn4ABdKeCbm5uR27dv30hubaS8DquuMyAJ+C65RAgcUpLnjPoGh/gqHTdv+obGwTt6GExsVY+ShxPFfui6gGM+Xp8IuJp6UXGnx1+qDY/pKgXTAHg8bj5pqC+Hutixt159HQzRokTpCQl4OerJ3ONywvDQIIwOB8ACbNGUjvE624nwKvv4SmXHdi/Zxk6rusi2FmoB5zIk1vHdFXDx8vulPC60ilerJMdIzStU3QBrLJci4Lg46HKUuYwOCbj6/MRUEixiUDZuWi0w4HTD4NgMuANjkE3vwOq9azw4glc3YlljmWxjWkmnZFuLfhPwvq8D3k68Xu/0Z57/yMsfeOz8cybnELz11lsXV1ZW5q9du3aRfSjmMXr+93/tV7724gvPviT/E13QrAPegVrUetQBbwaJCWhlYwB1HXDMI8bW9nrUo65bB3zztu5XPXg+3vAZ+U4RUeqAt/s14OZMvDm9FSk3dbD9yZfAuHhNvqcfwtcBt7rB6J2RH20vOJljne2BATtY2EKXf2X369XZTqfisLZ4G8KrxRrtnrGjkDV7haqzzetFb8j1on1i1YtG8tsPirImYI33Altk5cN3+feGoTNCRcCFrrWN4ybOmQwDdhFuw6JPfX4a2ILXzRbEe52fCAo1notxtvDFWzKyCtnwYnHOGXlI/ikxeOmll56bm5vrmzrgJOBthgRcP7QEHDe95qPF6KmaWhKH0XDcEIi3ZiAB75yAK9RbUGEEFSVuOxaH1M4OHPqr3wPHWnPHtBVEFfCr42ch5G+fgLci24hyXLBxBkax8djg/UyQnSPYiGcgULOJWbcgAW8dkQW8THL7TMBbPT/TmQxk2PmIoo3nZjyRqloI55MhKETvAxix+dsp+VExePHFF8/3Uzt6ca4XEeKDuZ09ApYxvHv5Dbj+1vd4KTwFTE8ZP3IWHn72Akwef5SnNxBighVRVu6+D5dffwWWbv4U1jc2YHF5Bebml+DGnXm4u3AfNjbDfMNP2mCV/9XBxLSPUApO5tihzu/zwOjQIByenoTjhw/BkZkpGBsO8MvV2FSjcnJH2cbo2WYoUjout+6y844dl9WNTX65GiVclEg3QYhCLtf4ObGf8xNFez0Y4ufn9dv34DY7P+eXHpTGTTo3uwsJeJvZjiX1L8VANEylxCVjUfkZ4FU3jpx7Gk4+/kkeaSXEBRdU68HipIFSV8ntD/8q3H3slyA8dlp+hNBCL9lWjgtN6ASxN0pPhEoqz8/JseGWZRuDFCTbYlP/egXRNFhBpXLTZrvp2iZMjd+r0K1NmLzaAjYNaADc8NdIl0ZMU1EqbyjQJkx9NmE2Q70yhEjCOw6hqXMQnjoLruQ6wFYEjG1OshN1E+b2yDHYMlnLNmHiZK5swHIM2GB0eKhsAxavTKJRWgwnc2WDZDAUZrdI2QZJrITQ7AbJUiMec50Srt1CvQlTtGoZDJE3YWLZ191NmMNCbcIsjk36b3RsBbvNBscfeoSde0awu/zgqWg6pZyfNis7nzXOT1wMR6LbsBmOwNpGiIs3XnFKJFP8/NzPBslCNgmA1dzYazOwMVckvvWtb/3h9va2/p33OgTlgOuIz+udfuH5j7x84VNPvRTwatT1aRHJPckGYp98r0hHcsA1cs8VRMsBbwQDG5BRuj2BsVLbewWU9I0HC7AdXOL3K3PAlUgF1kjduPMTNg8Vy+npxgHMAa/EMHS6Zo7p0OoVCGTXwJqJgXOnWBYNyYXZ52M7BoXtuPzI/hA1BzzxsS9A5uSHYW1pDizuIT5xN5OzreTSY36oHhskc6E5ygFvEcoBbw2RcsB5aU72egyFLIxMzIDNZuVzx17g+YlXlpScbTw/ta4AtpNsbBOk2DLlgHcAEvAO8aHHH/vC048/fOGF5z54QX6oZTQFvAMbAesKeAd+f7sFXA1u2MQmMCjjanbYYBdZvQs70gDYBpxcbMwmA9jtu4PnrXdf49F1XSEBryvgx370DfCt3WCv0wcGr5tJVHm0q5DOsM9oGPKh/WWIiSDgWYMJUhY7RB1+yAWmwHfuOci7BgGs5YvISjol21qkg3fAmEuQgLcACXhrdEvAMTiDi1+cKzBIg7KN4h1euVfa/M+LBIxikYDdCLPW+am3bGuRj29AYXuFBLwDkIB3GCUq/usvfupl+aGmIQHfpV0CrlCv8kYtSMAFEfCV3TKEKOEGlxMM7mqZ4lHxyBaTmqT8SON0XMAlNkSzBR+w35s1mcBsMfH7UYsbgmYvLNuK5wNO6Pi5VRpodFO2taAIeOuQgLdGJwQ8m83yHhRq2cav9a48hVYXIHh/js8ZON84Jh6CTC7fFdnWQmQB/+VffvH8ykr/CLg4Z8sBoZFOm3shWd1Vg0kn8pDr5oB34vfvMwe8ESq7NGJ+uDo9BcUG82Nj8QTPucMmBTvRVTbY65t+Qzng7C2okwM+uHQZ7LHdRjwFrG3Ljk8uUvxsSExeMX8bMdjZgsLn4ZKOFJKNLxx1zQFH2Taz18hen+QaAMnJbu4BtuhkX21sUmfyLRkN7McksOXT4M9uwUxqBUy5LGyyv3d9bYlfqg7Fs6WcbSUntGNNbWpAOeCtQzngLaJDDjjKtd1uBT82BBv0wfjoEM/Zdrsce3Z4xYZTmLMdTxcgCxbIs3ET55u0yQVNFEXRnQJ+1tjCinLA9YcEvIvU6rS5FyTgKtos4GowQoHVN7CJT9Zoh2B4C9aCIS42uKtc6QiWT8d1j/6TgLO3oAkBL5HPQwErAIQibGIpLpIkNonyryjTbOI0DrO/zWxiMyWbBTP1P8NtE3BZtjM2G5g0ZFtir0eRbTUFjGBncgDxJPu78JYAV2gdYkxqsRNmOleAvNnVVdnWIhsPgaFAAt4KIgt4LrMD0k4xravfBLwYyTbAEHbeZbI9ysYJlG3cMLmXbGttYFYvhlG8+ZzJkBxitfAXWcC/8Y1v/GsMYsp3ex6BzpaDy527937wO//2a5///K//i5n/58+/+9UdnGAJYcBShpvBDT6Aal3CN3imwBA4wQd5Qlww7SS79ADSt+7yfHA1GBE3z06B6fAhMLBJtq3Iss2j2n62eB5ikjfqB8OwH6w+J5M+K1tYMuGumMxRtgvpLBS24pDfjEJ+PQSFlU0obIShsM0myVS6KOOMrFi+XYXRUL6QIBqnmZrRnaZfjivKNko1lv6bmRqHk0dneOm/o7OHuHTjhkndSnNKFAc9qJCAC0Q4Eln4k//4nd/41H/9j6R//m/+35d+8PaVi/JThOBg1MzkmQTXzAchMH0GbA7tXHlCADJZyK1uQPrqLcgur0I+zmRWBtNTTGPDYDlzHIyjQyDZmmzwoyHb2eFBLtuS21Ffttlk3Yhs9yK5vLgrhNxegtRlMAorKiIfV6PRzCtdcVQRZkW2hwZ9ZbI9e2iiIdleXllvXbZ7CVoY6A69w4KC6SkXf/jOH3/nez/8eiyZhUcfOvqk/BSloKjRMQVFTb1L03YpCYcmJ2BsdAR8Hje4vIMwOD7Lu2xiDnliuzza2hKipqAwlMv3etNSCsoe8FzxyFYpV9ygKg2G3xvZhCw57MzZC2BIp9lnQJWCosg2e15y4k2VRsImeSWNpDJKyNNI0hmARKqURgLROLu/U3w8y0S7SbEJu0d4Coq6DrhI5BLipqDg0RE5BSWbjIKUS7LZWrwUlHyWnRNyCorBVV5BqttIbNw688jjYLYNgN3pAa/bBRNscY2SjeM0ivZeaSTR7RisM8FW18FH0d7vnopclp0LKSUFRazUnexOHKQMpqDUH/e7wZ/92Z99tZ9SUEjABUdr0+bYxKHR0FYicvv27Rt/8Rd/8c1XX331m9PD3pNet0PXmZcEXHti3tmch9Dybb5pE1Ea/ODmTZfc4AdJJuJMvlp8j0QVcFX+rN7oIeAlMALNRDjHJlueK47513IpQ/xq9rqKueJMpjFvHGU763QU87dVsq2Zs91m2dZizTUCSYEFHHCjnqCbMFG4pKScKyyggOdTW8IKuJRln2t5/K2sUNVpsukd9j6l2EI5Bj6vG6YPTXK5xspADoeDN79pVrYx6q3HBmYpz+Yt3JiM3wsm4FKWjVE8B5wEXG/KZwuiJxgfGzsXCofn1R/Er/7WP/3Z+ZMz5+W7unAQyhDWwuCbrZZ/mcq/vV4pQ9zQubW5wm9NwQZoIcsQ8hJuu+X/9KSZMoRtgUm1cdDLa4vXZncILW6QZAusnQyTePaVTdydShu5On4WQv4JAKsbjN4Z+VFxELoOOD+P5HJ1ApYhzETugwGbS4lYhpCPvwv8e+PIw/xrJ0CRxlQSjGJjCUDs9IppIxv370CYjbG4gR6vQAbYGOwJFD9vKNtYijPBxDqdlb+y+91IG+HlG0Ny+UY2rou0CTOzvQ6G+Gpx3A8clx8Vg5//+Z+fCYfDxQ9cHyDOsotomAcrK+/10yqwYQq9kQOLmzZX7r4Pl19/BZZu/pR31VTwjx6CmTNPwMnHP8klnRAYnisehPTV28Vc8eSO/ATKdgEKKNpKzvbqZjFnOxjti5xtQhyMkhx9FUjSOgnKtpKzPTU+CocPTcCpY7M8Z3s44OclAJWc7aHJo3D8Ax+D6Yc+zK8YLFx9Cy7/4Ntwb2GxLGc7FI72X852myh93gjdIQHvE/6/b776Jdq0KR5YxvDu5Tfg+lvfg437xS5oCKanjB85Cw8/ewEmjz/KozWEuOQj25BlE3j2/hqTbXmDpFq2Ba5UQRC9QqVsHzt8qEq27ex5NcoGyXB0C1bWg3BvcRkehBKQlHYbZsXjbKFMst3ziFZedb+QgPcJl69c+85v/pt/91GllKH8cFspFGgAaxV1VPzB3PuQjO1ewMCo+JFzT1NUvAfgTXtItpvGKNF7RpRTKdvTk6NVso2bJNVoybYS2X6wusEj27XKxRK9TyqVKu747RNIwPsMpZThc7/0D6T/4/f//cuXbsxfkp8iBCG4PAe3f/oazL33BkSDu7nglVFxKmVIEEQ/gLJtwqY2ShrJ9GSVbDsduxFrBZJtop+hKih9zL2Fpbda6bRZC63yhwodqYKiVUGB/c5CBxbF9aoj4EYkrPDQLBgVj24s842ZiNli42ULESybhaUMba5BNsEApJPbvAoKTmR2mxW8Hhe4HHbY3ljiP68rB6EKSoPo2op+HwR9E5C0OoWtglJIbvJzVcxOmKqOiQJWQSnsbBU3eQt4bG02NmblU5DN7JQ2yOMYZbWYeSWSQZ8XAn4vjI0E2Fcf3zRptVrAbDLxn1WDsp1M7kCICXdwMwyr65tVXYebSkHAuUHQbpO8hb+gVVAK2NkZb/h5E6zqDnbCzGazu5txehwS8ANAKBxZ+NHbl/5cq6Z4M9QV8BYltBk0J28cyLot4DiQ7uNvx7bEsfA6j4xXljK02R3gGxoH7+gsk243n8iUGrZWiwU2lm7zn9MVEvASogr4hmeMBLxVSMBbZmBgAA6feJjvYXF7fFy2/T43DA3695RtbMu+GY6WyfbWdqw12daiRwRctPrpJQFn5wEJuL5QCsoBQp2egp0233j3Gm3aFAzctLlw7a2qTZs4kWHkmyAIohtgZLuQSUJmaxWMyXUY8dpgYrTYm8DpHSpukGRjFAYG1KBQxxNJWA+GeBrJ9dv3eBrJ/NIDSiMhDjQUAT+gYKfN77/xtmanzVrUT0HZXxS4Efo1Aq6FEhVfW7jBo+KYmpJjp6s6arQWDBcb+7BJUVcoAl6CIuCtQRHw1ulGBFxJI3G7nTx1BCPbwwEfjI6OgsVYgHQ8zJuPbYdWmTznwOEuRkrTmQwv7xeJbnPhViLbka1tLtptiWw3SHm3SbEi4DlsGqR0EO1yA6NKssntYjMeioDrDgn4AUfdaXNxLRLxeNyjowHvqPx0GSTgnRNwNdhUIrx+H6JZG5/I1Jdo8f3gAzh7bTn2GLb7bjsk4CVIwFujZwR8gImasbzyRrfRW8DVsu12OmBkaJDLNrZsdzkGSmkk+HMIdpb0j06Dwz/OexyEV+d5oCCUtsFmKNIV2dZCKqhSUNgYKVKeNXbs5GmbDNEEPL8TIwHvEJSCQpT4/g9++Lsv/6t/88iv/9Pfee4vL77zivwwITA4KWIpr5HJw3Dk4afg2GMfp1KGBEFoguMFdpD0+zwwykQbq5EcP3wIjsxMwdhwAAKDPp5GojS2UcDyf0oayeLyCk8jWXgQhB1VrW3R0khy+f6qGd0pqBFP5yABJ6q4c/feD37n337t83vVFN/c3Iy8/vrrF7/yla98aWHp/rz8MNEhsA28JbEM/gHDbpMKh4tKGRIEsadsY4S7Udm+cWee52xvbIZ5VRJFtkWWXKo933/0WwdwSf5KEHX50OOPfeHZZ566cHNu8dLdu3cv3bp166L6ZPitf/7F155+7PRz8l1dkAYGweAal+8VKaRjkA/fk+/ph8E3C5LFKd8rJxe6C5CJy/f0wzhyVv6uCAp4fuMa/95sHeCRb09gjNcTV4OXibc2V3iVlZYwmME4pF3BUv0a9MYwdLpmHuexH30DfCv6vw7JYgHjQHW94m5z7dAjsOkeAbC6weidkR8Vh9zmLZ5GgSkeledwtynk0pAP3uDfG/zHaqbZdYt8dAkKqXDdY4uybTGbYGDADhaT/JXdr5TrSlC2MWcbhTu1s8MEJ81TRxolm4iAtF0so2oceZh/FQU+N+DYzDAMnxEqBxzTT/KRBf69cVSs9y2/9aCYkmVxgNEv1tXUZ555pq+clSLgREO8+fa7f/zbX/m9z7/yyitfvnz58nf6bSXa6yidNm+8/T1YuvnTsgY/Tm+gFBUfmT7JfFoswSAIojYOdv5mc7uR5srI9szUeEuR7bn5parIdjPyjRiUKLNA+dUE0SvQWUMQfUatUoYICvhDH/oUT09xD4pVf5YgiHJQtn0jh+DRj/4CTB97SFO2sd62lmzjZu16so2Rb4KoiSTOFYN+hQScaAs/uXyzv2uK53PyN72DEhW//PorPCqOqSgK/tFDMHPmCTj5+Cdp0yZBCIAS2c5sb0B++wHY81GYGvbwxluIxz/SlGxjrW2SbYIQF1riEG3hxu27P9hvp8296GoZQpsHJJNNvldOJ0owIlXlqpooAchLGa4t8tQU3ECl1O3F+uIuNrFjZBzzyLF2Lop7GZIRDI6AfKcCKkMoBFSGcB+U1QEf7EgZQpRtLP3ndAyA1+3i1UdGhvw8oj06PslWzwlIRoOwsXSTL5zxPMXuuCjbO+kMhCNbsBmOQDAUgXUm2VhrG0v/YZ+ALPuZTlHIJgGwTKIksTGi2JRHGFTdJkVr9w7ZnWIZQvaaDE6x3rfCzjb//PGxxC7OWJLL5eHrX//6l+W7fQEJONE21DXFb86vzttsNu+h8aG27QgjAW9dwBWymZ1Sgx+UbZPFBmZ2Q+xOD4+M4yVvJLFdnLy0BHxXIOyQDC3Lj+oLCXhtSMD3gc4Cns1mealQu90Kfo+7TLaxchE+ZzGb+TmlgJ0lvew8NA94ILQyD9H1RQgGNyDEvKhStrtZa5sEvEVKAs7eN8EEPJuMgoTHVTABNxgk+NrXvkYCThB70Uqnzb2QjFYuwmWQgMt3mgcFGyd3dYQN0YqKmxx+zWidg8nDxtJt/u/0hgS8NiTg+6DNAo5pJGrZHh8d4ueKh507WrKNKJHtra0YBEPhUmQ7lsxAASss5ZiwGczsvROrrCgJeGvk0imQdsQUcCkdowh4hxBoSUj0I+FIZOFP/uN3fuO5X/oH0m/92z99+dKN+UvyU4QgxKPBsk2bKNwKGBE/8vCH+aavibHhmpu+CKIh+mxjF8o2XglSqpGcPDrDz5VDE2M1zxUlZxu7Ri6vrPOc7Vt3F3nO9urGZilnu7KxjUSb4poip6ocQzQBW5CKSCQS1j/S1mFIwImO8TcX3+CdNv/Rb/7+Beq0KR7Kps2rP/rLqlKGatQCsbK+u7GTIHoRjKw1Aso2RrD9HleZbB+dPdSQbOO5Uinb2LZdS7aJ/WM07paMFqkGOFIq30gcaGhJTXSc9Y3gzR+9fenPm01PwRQQSkFRoeMGSNy0Gd1YhtDqIpu8DJDMSHzj18ZmqLTpK4bNO1Ip3V5DJZSCUpueSUGxOGs2tOoWVqsNBtgh3UnGSikoKNsWixm8TLaxy+zo8CCXbKxI4nI69kwjiW7H2Di3WXauoIi3krPNx7fcDht/7NXjX5cROQUll2bv2U5xbqgaO7tM2fsm3CZM9rqyKWFSULDj9u3bt2/89V//9SuXL1/+rvxwX0CdMAkhwE6bL3z8Qy/V66YpMbEweKbke0U61gnTc6jm5CdCJ0xdqdMJE8FOgphDW0gwydIR6oRZm57phOkYEU6GJCZBp48fhkQiDqlkAjxe/54pVijb6UyW/ZskpLPyV3Zfj0h2LjLPZU2y+arGv26TT4agsHWfvYkGMA4/JD8qBkJ3m8T3LSq/byNivW+88yoGlXAs8XV+LHnvvfcuLS0tzb/77rsX5+fnL92/f/9Svzb+IwEnhMLn9U6/8PxHXv71Fz/1svxQCU0BzyQhH7oj39MPEvDaAq4GNxZJ6S3IJNp/VYIEvDYk4I1RYIJsMaHPbvAo5MjYFIwcOi4/q02lbKdSOx1NGyEBbw0S8NZQBFyy6/95Q9mORqORd9555+KVK1cu9rNsa0ECTgjLJ557+h9/5hMffun8yZnzeJ8EXEwBd1oN4BscBpvNwi/NI+lUAoLLc/zWLkjAa0MCXg2miGAqCeZm26xW9tVWimzHIhuwtblS+nxiMyosv2mxu7hsp3aKkt1p2daCBLw1SMBbQy8BX19fj9y4ceMSyvbc3Nyl27dvXzxIsq0FCTghPGfPnPrcpz/65Euf+fTzF8LZgQhbJc+/9dZbFx88eDCfiG1H/s9/8tLX5R/VDRJwbQFXXoPDE+AS4wlUt7fHPHIUHcwr3w8k4LU56AJeKdtmkwHsdrv8rDZKZPv+nfchGVrij5mHT0NeMvHvRUFkAc/GN0GKLZOAN4nIAp4JLYAhHd2XgGPe9tWrV7ls371799KtW7cOvGxrQQJO9Aw2W9GA1Sfy+NjouT/9/f9d99KGJOD1BVwB64ajiGP5Qqwnrgbrjaujjs1CAl6bgyTglbKtvvJSD9wEmWHCHU/i5uHdyHbxKlqxlr3Bfwwkc31x7zQ9EQHnY8Qp+VEx6AkBN4r3vjUbAUfZxqDY3/zN37yCsr2xsTG/srLynvw0UQcScKKnIQEXS8DV4CV99+CYZlQcO3FuPFiAPJOfRiEBr02/CnhVZNtsArvNKj9bm1qyrQUJeOuUIuAk4E0hsoDXi4BXynYwGJwPhULzFN1uDRJwoqfBqPgvffZTX9LatNlO6go4DvJsgtSbXhNwBSUqPjR5RH5kF0xPwag43vaCBLw2/SDgKNsWJthY5q9Z2Ua53orFW8rZJgFvnXx8Awoxdu6SgDeFyAL+5S/95sujfufMhRd+7qXVWI6ne965c+fSwsLCJZLt9kICTvQNlZs22wkJeOsCrgaj4ijjdmf5e9nIpk0S8NqILuBu0w6El2+WBHy/sh1PJPmtHRskScBbhwS8NbIx+cqBIAKuRLZRtl999dWvhsPh4htH6AoJONF3PP6BR7/wkSfPXXjhuQ9ekB/aNyTg7RFwBZvDw2W8VlQ8vLbIW+SrIQGvjcgCjrKNnSNRsGPbUeYcNjBIElit9RsapTOZYhpJG2VbCxLw1iEBbw3+vm2z960LAq7I9pUrVy5hZLvfa22LDAk40bfUqyneLCTg7RVwNSPTJ3mu+F5RcbWAV0ZQ/f/l98E691P+nJ6QgNdHOS6J0DIT2zj4AmMQGJ0Cu8Ml/4Q2WJEEBbso2jvsa0oX2dZCdAHPhO6BIbNNAt4kJOBFsNY2ViS5ffs2ybZgkIATB4JGOm3WgwRcPwFX2KuUYdbkLKUrVEZQrd/6HTDdeke+px8k4Lsosj0wYAeH3c6PC97HWtvpVJwvnKLBFcjsJFQbcse7KttalAl44CRIxvqR+U5DEfDWyCYiIG0tspNWwFrbOgk4ynYoFIq8/vrrr5Bsiw8JOHGgaDUqTgKuv4Ar1Nu0WQsScH0FXC3bWJUEF0KKbNcDZXtl8TaE7t/ED4tudcD3Awl46/REBLxPBZwJ9vzi4uL8Qe0i2Q+QgBMHlgsvPP+bz33okQuNbNokAe+cgKvRKmWoFUE98sYfUw54mwRcLdt4pcHtcjYs2+rjkkqlIZPN8ufSGzfBmN8hAW8BSkFpDZGb3TQr4NTYpj8hAScOPE988NEvPPtE/U2bJODdEXAFjIo7xs9AKp0tSZ2aiWt/AxPX/1a+px/9JuBq2baY5K8tyDZulsT7tSABb51caI73GSABb45eFfBK2V5aWrpEVUn6ExJwgpCpl54iooAjubX35e90RAABR+pVQUEs8TCM3vkhv+lFLwv4fmQbW7ZvY53tBmRbCxLw1iEBbw2RBfyP/uiPvnrn5tVLTz/+6IXpk+dn1I1tHjx4QF0kDwgk4AShQeWmTck9CQa7jz+noJRzckkx7/SIW/edbyTg9QUcMeZ2wLkTgumbfw321XkoJBrvtNkIogr4wtnnYQGs7PUNcAGvlG2TyQhOB3uuA7KtBQl465QEfCAABte4/KgYkIA3jjJfvPnmmxdfe+21r5NoEyTgBFGHsbHRcx9/+omXfvGXP//S8lqsrAWvMoD+ky/+2rfbWXO8FiTgtQV88u7fweDOA3BJcfmRIoV0BnKbESZYEfmR/SGigBcsdkh87CXIHj4P0dAamGxuvlGyFdnG+3pUJMltXGdGlCEBbwES8NbopoArso2Nbdg8MX/9+vWL1EWSqIQEnCD2CQl49wVcacQjuRxg9LrB4HbKz+ySC28x0QpDIdV6RLfrAi6xIdtkgDXHKMRsLoDRw+A88TjYBqtLN6pRZDuRSEI8mdRVtrUgAW8dkQU8s70OhsTqgRZwtWyvrKzMX7t2jWSbaAgScILYJ50ScC0BJQEvUtUJE3ObB73sVp42hOzEUmDc3m4pKt5RAZdlG/8Wid3wK5iN7D0wQFYywn3rCKxaBmHHaN2toT44Djl2TBTZxvQRjG53Ura1IAFvHRLw1tBDwBXZpsY2RDsgASeIfUICLqCAqzB4XUxcnNpR8fVNSIVjYM42FhXXVcCZXIORCbbVXCbb9SgwqV4z+mB+YBJ2LHYwOgbZ3znVVdnWggS8dYROQYmtQSG+xhaKNrbYPS4/KgbtEHBsbLO0tDT/7rvvXiTZJtoNCThBtIH9dtpsBBLw1gS8RJ2oeCq8zaPihe3yHPJK2ibgLco2ZNktnYFCNse/8vuFQlc6YTYDCXjrkIC3RrMCjrIdjUYjr732GnWRJDoCCThBtJHxsdFzH3v6iZea7bTZCCTg+xRwFTwq7veBwW6VHymy16bNlgQcZZtJgGRnYtcG2daCBLx1SMBbpycEXKPW9vr6euTGjRu81vbc3Bymk1BjG6LjkIAThE5gp83PfuKpl45MDbfFiEjA2yfgCtKAHQxuh2ZUnG/ajGyVlTLcU8Bl2c6YzWCxY3S7BdnO4C1bU7a1IAFvnexOAqTIHf49CXhziCzg//7f/+nXf/qTty5+5MlHL3jHZr3URZIQDRJwgtAZTE95+vGH63babAQRBRzpyGtg6CHgaoxDfjB43UyymTirUEfF1QKeYaJtRsHGNBKeStKEbDPBLqBktyDbWpCAtw5FwFtHNAFXNkliudgrV65cvHPnzg/kpwhCOEjACaJD1Ou02Qgk4PoKuEK9TZv5WIIJGnsNTLi7JdtakIC3DkXAW6ebAq6WbeoiSfQiJOAE0QVa2bRJAt4ZAS9RZ9NmJZ2UbS1IwFuHBLx1OiXg6lrb77333kWUbaq1TfQ6JOAE0UWa2bRJAt5hAVfBo+LY4McxwO8X0kyuczko7GQ6LttakIC3TiEdg3z4Lv+eBLw59BBwtWxTF0minyEBJwhBwE2bn//E0y9NTw1pGhQJePcEXEGyMdGwMwnvomxrQQLeOqILeDp4B4y5RF8KuFq2sYvkvXv3Li0vL1P5P+JAQAJOEIJRa9Nm1wQc6+gOn5HvVHOgBFzPRjz7QBFwyeYDg2dKflQcSMBbp18i4NlsFrCDJHWRJIgiJOAEISiVmzbVAoqRI5zInjrh063xTwlRBDxwoqYckYCTgLcKRcBbp56AY2ObUCgUef3116mxDUFoQAJOED0ARsVHxqdmcLf/xsbG/MrKCt/tf/Fb/07/XAgS8BIk4K1BAt46Igv4V77ylS+tPVicf/rJD1zwjkzzWttY/o9kmyD2hgScIHoYEvAiJOAk4K0ifArK5i2AbEqY9065+oay/fbbb79Cpf8IojVIwAmih/nj/+vL92pt2mwbJOAlSMBbgwS8dbop4GrZxqtvi4uLlyKRyIL8NEEQ+4AEnCB6nHZ12qwJCXgJEvDWKAm4cwwMjiH5UTEoE/ChM+zjrr3Rt1t0SsCViiTU2IYgOgMJOEH0CfvttFkTEvASJOCtQQLeOnoIuLr8HzW2IYjuQAJOEH0IRsVf/PmPv3z+5Mx5+aHWIQEvQQLeGiTgrbNfAVfLNjW2IQhxIAEniD6mmU6bNSEBL0EC3hok4K3TjICrZRsb21y7do1kmyAEhQScIA4Ie3XarAkJeAkS8NYgAW+dWgKuyDY1tiGI3oQEnCAOGE1v2iQBL0EC3hok4K3z4osvnn/8kTMXTpw4cT5vtMPPfvaziyTbBNH7kIATxAGl4U2bJOAlSMBbgwS8ObCLZDQajbz22muvvPvuu6+Ew2Eq/UcQfQYJOEEQPCr+y5/92MuPnJqt3rRJAl6CBLw1SMBrs76+Hrlx40ap1vatW7cuUmSbIPofEnCCIEocOTz7kQ899vCFsqg4CXgJEvDWIAEvgnnb6sY2JNsEcXAhAScIogqbzeb59MefeZlv2jw0MqMIuLLx680f/eji+1eu8PrBf/p7/+oSf1JnSMBr897Uo7DlGSYBbwG9BFw5V6ixDUEQWpCAEwRRlw89/oEvxFPpSK1mHRe/9e8K8re6QgJeG4qAt047BJxkmyCIZiEBJwhiX5CAdx/RI+DptWtghGxfCLgi29RFkiCI/UACThDEviAB7z6UgtI62dQ2SNF7/PtKAVfLNjW2IQiinZCAEwSxL/7+r/3K11584dmX5Lu6QQJeG0pBaZ3XX3/94qvf+U9ff/rxcxemT5ybeevtd7lsU61tgiD0hAScIIh9g5s2f+Ezn/zSp5567ELTnTYbhAS8NpSC0hzZbBawGgneGBfffPPNP5afIgiC6Agk4ARBtJWmO202CAl4bSgFpT7qxjYU2SYIQgRIwAmC0IWGO202CAl4bURPQelkBPz27VvzKyur81hr+8qVKxdJtgmCEBEScIIgdAej4i/+/MdfPn9yprrTZoOQgNfmoKag4CZJamxDEEQvQgJOEETHOHp49iOf+/RzL3/2Y82np5CA1+YgCHilbC8tLV0Kh8ML8tMEQRA9BQk4QRAdBzdt/tJnP/Wl5z/8aMObNknAa9NvKSjU2IYgiH6HBJwgiK7S6KZNEvDa9HIEXJHtN9988+L7779PjW0IgjgQkIATBCEEe23aJAGvjegC/msvfeG5Jx996MIv/tLnXlreSPLGNnfu3Lm0sLBwiWSbIIiDCAk4QRDCobVps5aAYwT1yZv/xUsCLpaAK5FtlO1vfOMbvyE/TBAEQTBIwAmCEBb1pk0U8FBkm0sdbsa7ffv2JaWm829/+vzX/96Mqa11x7UgAddGke3K40KRbYIgCG1IwAmCEB7ctDk5MXH+/vKyptT97oUnv00C3jkBx8Y2CwsL8z/72c8ukmwTBEE0Dwk4QRA9z0EX8Muzj0PU4ddFwKmLJEEQRPshAScIouchAW+PgK+vr0du3LjBa21TF0mCIAj9IAEnCKLneez47Od+64mxL31s0NByp81G6CcBx7xt6iJJEATRHUjACYLoG05MT3zkf3xk6uUv6hQN71UBR9meZ1y8eJE3ttnY2JhfWVmhxjYEQRBdggScIIi+w+fxTP/qB468/N/P2i+cdUoNddpsBFEF/LN/vfLymUfOPveZTz9/IZwdoC6SBEEQgkMCThBEX/Pc2eNf+PwR/4V25IiLJuBrqXzkSiQz/z+8cuml+6vr72G1GHycUkkIgiDEhgScIIgDgc/jnv7VDxx9+XfODmh22myEbgq4Ituvzm9dXIgk5t+dX70YjETnU6kdkm2CIIgegwScIIgDB0bF/7fzgZeb3bTZKQGvlO3rK6FLi2sbl0i2CYIg+gMScIIgDiy4afMfPDL1cqPpKXoIeDoP8HfrO5d+tJq49LPVrUs3VkOXFlZJtgmCIPoZEnCCIA48jW7abIeA/+3qzqXVRC7yn25tvEKyTRAEcTAhAScIglBRb9NmswKOsh1M5SLfnY9c/PH82kWSbYIgCAIhAScIgtBAa9NmPQHHvO2Lq6lLKNvvr0QuXVu4f5FkmyAIgtCCBJwgCGIPlE2bHx+znUcBV8v21dXIpbmV4KVwNLog/zhBEARBEARBEO3gxPTkRyZHh8/JdwmCIAiCIAiCIAiCIAiCIAiCIAiCIAiCIAiCIAiCIAiCIAiCIAiCIAiCIAiCIAiCIAiCIAiCIAiCIAiCIAiCIAiCIAiCIAiCIAiCIAiCIAiCIAiCIAiCIAiCIAiCIAiCIAiCIAiCIAiCIAiCIAiCIAiCIAiCIAiCIAiCIAiCIAiCIAiCIAiCIAiCIAiCIAiCIAiCIAiCIAiCIAiCIAiCIAiCIAiCIAiCIAiCIAiCIAiiywD8/0VQpUsJxG2CAAAAAElFTkSuQmCC;" parent="1" vertex="1">
          <mxGeometry x="70" y="290" width="516" height="443" as="geometry" />
        </mxCell>
        <mxCell id="shfMmyxWsqZTkf_A3RDa-2" value="" style="shape=curlyBracket;whiteSpace=wrap;html=1;rounded=1;labelPosition=left;verticalLabelPosition=middle;align=right;verticalAlign=middle;rotation=-180;strokeWidth=2;" parent="1" vertex="1">
          <mxGeometry x="560" y="380" width="45" height="100" as="geometry" />
        </mxCell>
        <mxCell id="shfMmyxWsqZTkf_A3RDa-3" value="&lt;p style=&quot;line-height: 160%;&quot;&gt;&lt;span style=&quot;font-size: 18px;&quot;&gt;&lt;b&gt;&lt;i&gt;Source &lt;/i&gt;&lt;/b&gt;Parameter&lt;br&gt;Combinations&lt;/span&gt;&lt;br&gt;&lt;/p&gt;" style="text;html=1;align=center;verticalAlign=middle;resizable=0;points=[];autosize=1;strokeColor=none;fillColor=none;" parent="1" vertex="1">
          <mxGeometry x="605" y="390" width="170" height="80" as="geometry" />
        </mxCell>
        <mxCell id="shfMmyxWsqZTkf_A3RDa-4" value="" style="shape=curlyBracket;whiteSpace=wrap;html=1;rounded=1;labelPosition=left;verticalLabelPosition=middle;align=right;verticalAlign=middle;rotation=-180;strokeWidth=2;" parent="1" vertex="1">
          <mxGeometry x="560" y="480" width="45" height="190" as="geometry" />
        </mxCell>
        <mxCell id="shfMmyxWsqZTkf_A3RDa-5" value="&lt;p style=&quot;line-height: 160%;&quot;&gt;&lt;span style=&quot;font-size: 18px;&quot;&gt;&lt;b&gt;&lt;i&gt;Target&amp;nbsp;&lt;/i&gt;&lt;/b&gt;Parameter&lt;br&gt;Combinations&lt;/span&gt;&lt;br&gt;&lt;/p&gt;" style="text;html=1;align=center;verticalAlign=middle;resizable=0;points=[];autosize=1;strokeColor=none;fillColor=none;" parent="1" vertex="1">
          <mxGeometry x="605" y="535" width="170" height="80" as="geometry" />
        </mxCell>
        <mxCell id="shfMmyxWsqZTkf_A3RDa-9" value="" style="edgeStyle=segmentEdgeStyle;endArrow=classic;html=1;curved=0;rounded=0;endSize=8;startSize=8;sourcePerimeterSpacing=0;targetPerimeterSpacing=0;entryX=0.484;entryY=0.226;entryDx=0;entryDy=0;entryPerimeter=0;exitX=-0.004;exitY=0.558;exitDx=0;exitDy=0;exitPerimeter=0;" parent="1" edge="1" source="shfMmyxWsqZTkf_A3RDa-10">
          <mxGeometry width="100" relative="1" as="geometry">
            <mxPoint x="530" y="210" as="sourcePoint" />
            <mxPoint x="310.00400000000013" y="409.9801399999999" as="targetPoint" />
            <Array as="points">
              <mxPoint x="585" y="260" />
              <mxPoint x="310" y="260" />
            </Array>
          </mxGeometry>
        </mxCell>
        <mxCell id="shfMmyxWsqZTkf_A3RDa-10" value="&lt;p style=&quot;line-height: 160%;&quot;&gt;&lt;span style=&quot;font-size: 18px;&quot;&gt;&lt;b&gt;&lt;i&gt;Target &lt;/i&gt;Voxel Position&lt;/b&gt;&lt;/span&gt;&lt;/p&gt;" style="text;html=1;align=center;verticalAlign=middle;resizable=0;points=[];autosize=1;strokeColor=none;fillColor=none;" parent="1" vertex="1">
          <mxGeometry x="581" y="227" width="210" height="60" as="geometry" />
        </mxCell>
      </root>
    </mxGraphModel>
  </diagram>
</mxfile>
